<svg id="svg" version="1.1" xmlns="http://www.w3.org/2000/svg" xmlns:xlink="http://www.w3.org/1999/xlink" width="400" height="400" viewBox="0, 0, 400,400"><g id="svgg"><path id="path0" d="M56.800 6.400 C 56.800 6.620,56.361 6.800,55.824 6.800 C 55.287 6.800,54.736 6.980,54.600 7.200 C 54.464 7.420,54.003 7.600,53.576 7.600 C 53.149 7.600,52.800 7.780,52.800 8.000 C 52.800 8.220,52.575 8.400,52.300 8.400 C 52.025 8.401,51.314 8.806,50.719 9.300 C 50.124 9.795,49.311 10.470,48.912 10.800 C 47.507 11.962,44.951 15.823,44.277 17.800 C 43.652 19.634,43.596 23.316,43.598 62.250 C 43.600 105.035,43.651 107.200,44.650 107.200 C 44.995 107.200,45.200 107.649,45.200 108.404 C 45.200 109.102,45.527 109.888,45.980 110.275 C 46.408 110.642,46.667 111.092,46.554 111.274 C 46.347 111.610,46.766 112.107,48.178 113.200 C 48.867 113.733,48.914 113.733,48.601 113.200 C 48.408 112.870,47.897 112.347,47.467 112.037 C 46.718 111.498,46.715 111.451,47.404 110.948 C 48.038 110.484,48.048 110.393,47.492 110.180 C 47.146 110.047,46.781 109.727,46.682 109.469 C 46.463 108.899,139.947 108.987,140.517 109.557 C 141.573 110.613,143.200 108.543,143.200 106.144 C 143.200 105.431,143.380 104.736,143.600 104.600 C 143.857 104.441,144.000 98.063,144.000 86.776 L 144.000 69.200 156.200 69.200 L 168.400 69.200 168.450 86.400 C 168.478 95.860,168.542 103.915,168.594 104.300 C 168.810 105.906,169.327 107.631,169.652 107.832 C 169.843 107.950,170.000 108.397,170.000 108.824 C 170.000 109.251,170.250 109.600,170.556 109.600 C 170.861 109.600,171.086 109.915,171.056 110.300 C 170.988 111.153,172.068 111.240,172.297 110.400 C 172.443 109.867,172.409 109.867,171.993 110.400 C 171.595 110.910,171.560 110.890,171.762 110.267 C 171.893 109.864,172.000 109.459,172.000 109.367 C 172.000 109.275,192.970 109.200,218.600 109.200 C 255.610 109.200,265.201 109.303,265.206 109.700 C 265.211 110.089,265.284 110.086,265.538 109.686 C 265.717 109.404,266.150 109.283,266.499 109.417 C 266.949 109.589,267.306 109.274,267.727 108.330 C 269.142 105.159,269.200 104.314,269.200 86.740 L 269.200 69.200 281.400 69.200 L 293.600 69.200 293.600 86.950 C 293.600 105.187,293.704 107.200,294.650 107.200 C 294.995 107.200,295.200 107.649,295.200 108.404 C 295.200 109.102,295.527 109.888,295.980 110.275 C 296.408 110.642,296.667 111.092,296.554 111.274 C 296.347 111.610,296.766 112.107,298.178 113.200 C 298.867 113.733,298.914 113.733,298.601 113.200 C 298.408 112.870,297.897 112.347,297.467 112.037 C 296.718 111.498,296.715 111.451,297.404 110.948 C 298.038 110.484,298.048 110.393,297.492 110.180 C 297.146 110.047,296.781 109.727,296.682 109.469 C 296.463 108.899,389.947 108.987,390.517 109.557 C 391.573 110.613,393.200 108.543,393.200 106.144 C 393.200 105.431,393.380 104.736,393.600 104.600 C 394.153 104.258,394.153 19.742,393.600 19.400 C 393.380 19.264,393.200 18.623,393.200 17.976 C 393.200 17.329,393.020 16.800,392.800 16.800 C 392.580 16.800,392.400 16.440,392.400 16.000 C 392.400 15.560,392.220 15.200,392.000 15.200 C 391.780 15.200,391.600 14.936,391.600 14.613 C 391.600 13.939,387.473 9.666,386.045 8.862 C 385.520 8.567,384.480 7.982,383.733 7.562 C 382.986 7.143,382.021 6.800,381.588 6.800 C 381.155 6.800,380.800 6.620,380.800 6.400 C 380.800 6.136,368.200 6.000,343.800 6.000 C 319.400 6.000,306.800 6.136,306.800 6.400 C 306.800 6.620,306.361 6.800,305.824 6.800 C 305.287 6.800,304.736 6.980,304.600 7.200 C 304.464 7.420,304.003 7.600,303.576 7.600 C 303.149 7.600,302.800 7.780,302.800 8.000 C 302.800 8.220,302.575 8.400,302.300 8.400 C 302.025 8.401,301.314 8.806,300.719 9.300 C 300.124 9.795,299.311 10.470,298.912 10.800 C 293.972 14.885,293.596 16.802,293.598 37.900 L 293.600 56.000 281.400 56.000 L 269.200 56.000 269.200 37.824 C 269.200 26.137,269.057 19.559,268.800 19.400 C 268.580 19.264,268.400 18.623,268.400 17.976 C 268.400 17.329,268.220 16.800,268.000 16.800 C 267.780 16.800,267.600 16.440,267.600 16.000 C 267.600 15.560,267.450 15.200,267.268 15.200 C 267.085 15.200,266.680 14.705,266.368 14.100 C 265.643 12.695,262.023 9.200,261.292 9.200 C 261.105 9.200,260.593 8.885,260.155 8.500 C 258.863 7.363,257.679 6.800,256.582 6.800 C 255.998 6.800,255.660 6.627,255.800 6.400 C 255.964 6.134,243.537 6.000,218.824 6.000 C 194.275 6.000,181.600 6.136,181.600 6.400 C 181.600 6.620,181.257 6.800,180.838 6.800 C 179.879 6.800,176.874 8.343,175.775 9.400 C 175.317 9.840,174.190 10.854,173.271 11.654 C 172.352 12.454,171.600 13.410,171.600 13.778 C 171.600 14.146,171.420 14.336,171.200 14.200 C 170.980 14.064,170.800 14.233,170.800 14.576 C 170.800 14.919,170.620 15.200,170.400 15.200 C 170.180 15.200,170.000 15.549,170.000 15.976 C 170.000 16.403,169.820 16.864,169.600 17.000 C 169.380 17.136,169.200 17.687,169.200 18.224 C 169.200 18.761,169.020 19.200,168.800 19.200 C 168.539 19.200,168.400 25.600,168.400 37.600 L 168.400 56.000 156.200 56.000 L 144.000 56.000 144.000 37.824 C 144.000 26.137,143.857 19.559,143.600 19.400 C 143.380 19.264,143.200 18.623,143.200 17.976 C 143.200 17.329,143.020 16.800,142.800 16.800 C 142.580 16.800,142.400 16.440,142.400 16.000 C 142.400 15.560,142.220 15.200,142.000 15.200 C 141.780 15.200,141.600 14.936,141.600 14.613 C 141.600 13.939,137.473 9.666,136.045 8.862 C 135.520 8.567,134.480 7.982,133.733 7.562 C 132.986 7.143,132.021 6.800,131.588 6.800 C 131.155 6.800,130.800 6.620,130.800 6.400 C 130.800 6.136,118.200 6.000,93.800 6.000 C 69.400 6.000,56.800 6.136,56.800 6.400 M124.800 19.600 C 124.800 19.820,125.430 20.000,126.200 20.000 C 126.970 20.000,127.600 20.180,127.600 20.400 C 127.600 20.620,127.858 20.800,128.173 20.800 C 128.488 20.800,128.860 21.160,129.000 21.600 C 129.140 22.040,129.422 22.400,129.627 22.400 C 129.832 22.400,130.000 22.929,130.000 23.576 C 130.000 24.223,130.180 24.864,130.400 25.000 C 131.062 25.409,130.926 98.539,130.259 100.769 C 129.549 103.142,127.724 105.200,126.327 105.200 C 125.733 105.200,125.136 105.380,125.000 105.600 C 124.839 105.861,113.996 106.000,93.776 106.000 C 73.392 106.000,62.800 105.863,62.800 105.600 C 62.800 105.380,62.120 105.200,61.288 105.200 C 60.199 105.200,59.612 104.963,59.188 104.351 C 58.865 103.884,58.375 103.267,58.100 102.980 C 57.825 102.692,57.600 102.120,57.600 101.709 C 57.600 101.297,57.418 100.778,57.196 100.556 C 56.749 100.109,56.834 25.602,57.283 24.200 C 57.424 23.760,57.553 23.209,57.569 22.976 C 57.640 22.004,60.117 20.000,61.247 20.000 C 61.881 20.000,62.400 19.820,62.400 19.600 C 62.400 19.337,73.067 19.200,93.600 19.200 C 114.133 19.200,124.800 19.337,124.800 19.600 M250.200 19.600 C 250.336 19.820,250.881 20.000,251.410 20.000 C 252.681 20.000,255.200 22.519,255.200 23.790 C 255.200 24.319,255.380 24.864,255.600 25.000 C 256.153 25.342,256.153 100.400,255.600 100.400 C 255.380 100.400,255.200 100.856,255.200 101.413 C 255.200 102.873,252.764 105.200,251.237 105.200 C 250.583 105.200,249.936 105.380,249.800 105.600 C 249.639 105.861,238.796 106.000,218.576 106.000 C 198.192 106.000,187.600 105.863,187.600 105.600 C 187.600 105.380,187.078 105.200,186.440 105.200 C 184.957 105.200,182.400 102.754,182.400 101.336 C 182.400 100.795,182.225 100.461,182.012 100.593 C 181.762 100.747,181.617 87.350,181.606 63.016 C 181.594 37.701,181.723 25.200,181.994 25.200 C 182.217 25.200,182.400 24.678,182.400 24.040 C 182.400 22.589,184.846 20.000,186.216 20.000 C 186.731 20.000,187.264 19.820,187.400 19.600 C 187.741 19.048,249.859 19.048,250.200 19.600 M374.800 19.600 C 374.800 19.820,375.430 20.000,376.200 20.000 C 376.970 20.000,377.600 20.180,377.600 20.400 C 377.600 20.620,377.858 20.800,378.173 20.800 C 378.488 20.800,378.860 21.160,379.000 21.600 C 379.140 22.040,379.422 22.400,379.627 22.400 C 379.832 22.400,380.000 22.929,380.000 23.576 C 380.000 24.223,380.180 24.864,380.400 25.000 C 381.062 25.409,380.926 98.539,380.259 100.769 C 379.549 103.142,377.724 105.200,376.327 105.200 C 375.733 105.200,375.136 105.380,375.000 105.600 C 374.839 105.861,363.996 106.000,343.776 106.000 C 323.392 106.000,312.800 105.863,312.800 105.600 C 312.800 105.380,312.120 105.200,311.288 105.200 C 310.199 105.200,309.612 104.963,309.188 104.351 C 308.865 103.884,308.375 103.267,308.100 102.980 C 307.825 102.692,307.600 102.120,307.600 101.709 C 307.600 101.297,307.418 100.778,307.196 100.556 C 306.749 100.109,306.834 25.602,307.283 24.200 C 307.424 23.760,307.553 23.209,307.569 22.976 C 307.640 22.004,310.117 20.000,311.247 20.000 C 311.881 20.000,312.400 19.820,312.400 19.600 C 312.400 19.337,323.067 19.200,343.600 19.200 C 364.133 19.200,374.800 19.337,374.800 19.600 M68.400 37.400 L 68.400 44.000 93.800 44.000 L 119.200 44.000 119.200 37.400 L 119.200 30.800 93.800 30.800 L 68.400 30.800 68.400 37.400 M193.600 37.400 L 193.600 44.000 200.200 44.000 L 206.800 44.000 206.800 37.400 L 206.800 30.800 200.200 30.800 L 193.600 30.800 193.600 37.400 M218.400 37.400 L 218.400 44.000 231.200 44.000 L 244.000 44.000 244.000 37.400 L 244.000 30.800 231.200 30.800 L 218.400 30.800 218.400 37.400 M318.400 37.400 L 318.400 44.000 325.000 44.000 L 331.600 44.000 331.600 37.400 L 331.600 30.800 325.000 30.800 L 318.400 30.800 318.400 37.400 M343.600 37.400 L 343.600 44.000 356.400 44.000 L 369.200 44.000 369.200 37.400 L 369.200 30.800 356.400 30.800 L 343.600 30.800 343.600 37.400 M68.400 62.600 L 68.400 69.200 93.800 69.200 L 119.200 69.200 119.200 62.600 L 119.200 56.000 93.800 56.000 L 68.400 56.000 68.400 62.600 M193.600 62.600 L 193.600 69.200 218.800 69.200 L 244.000 69.200 244.000 62.600 L 244.000 56.000 218.800 56.000 L 193.600 56.000 193.600 62.600 M318.400 62.600 L 318.400 69.200 325.000 69.200 L 331.600 69.200 331.600 62.600 L 331.600 56.000 325.000 56.000 L 318.400 56.000 318.400 62.600 M343.600 62.600 L 343.600 69.200 356.400 69.200 L 369.200 69.200 369.200 62.600 L 369.200 56.000 356.400 56.000 L 343.600 56.000 343.600 62.600 M68.400 87.400 L 68.400 94.000 93.800 94.000 L 119.200 94.000 119.200 87.400 L 119.200 80.800 93.800 80.800 L 68.400 80.800 68.400 87.400 M193.600 87.400 L 193.600 94.000 218.800 94.000 L 244.000 94.000 244.000 87.400 L 244.000 80.800 218.800 80.800 L 193.600 80.800 193.600 87.400 M318.400 87.400 L 318.400 94.000 325.000 94.000 L 331.600 94.000 331.600 87.400 L 331.600 80.800 325.000 80.800 L 318.400 80.800 318.400 87.400 M343.600 87.400 L 343.600 94.000 356.400 94.000 L 369.200 94.000 369.200 87.400 L 369.200 80.800 356.400 80.800 L 343.600 80.800 343.600 87.400 M139.887 111.882 C 140.137 112.533,140.195 112.529,140.781 111.823 C 141.172 111.351,141.116 111.256,140.474 111.304 C 140.008 111.339,139.769 111.575,139.887 111.882 M389.887 111.882 C 390.137 112.533,390.195 112.529,390.781 111.823 C 391.172 111.351,391.116 111.256,390.474 111.304 C 390.008 111.339,389.769 111.575,389.887 111.882 M172.486 112.546 C 172.989 113.067,173.474 113.428,173.564 113.349 C 173.797 113.145,172.348 111.600,171.924 111.600 C 171.730 111.600,171.983 112.026,172.486 112.546 M49.999 114.401 C 49.491 114.714,49.521 114.854,50.201 115.352 C 51.173 116.062,51.310 115.968,50.906 114.874 C 50.677 114.255,50.437 114.130,49.999 114.401 M175.015 114.376 C 174.705 114.878,175.323 115.564,177.000 116.580 L 178.200 117.307 176.877 116.081 C 176.149 115.406,175.579 114.737,175.610 114.594 C 175.717 114.105,175.281 113.946,175.015 114.376 M299.999 114.401 C 299.491 114.714,299.521 114.854,300.201 115.352 C 301.173 116.062,301.310 115.968,300.906 114.874 C 300.677 114.255,300.437 114.130,299.999 114.401 " stroke="none" fill="#1ca1d8" fill-rule="evenodd"></path><path id="path1" d="M280.184 195.227 C 280.039 195.461,280.016 195.749,280.133 195.867 C 280.420 196.153,281.200 195.648,281.200 195.176 C 281.200 194.665,280.509 194.699,280.184 195.227 M271.738 199.383 C 272.041 200.172,271.305 200.585,270.615 200.012 C 270.194 199.663,270.082 199.679,270.141 200.078 C 270.232 200.697,270.752 200.869,271.663 200.580 C 272.585 200.287,272.877 199.315,272.130 199.029 C 271.699 198.863,271.580 198.971,271.738 199.383 M307.384 199.627 C 306.917 200.381,307.521 200.501,308.463 199.841 L 309.378 199.200 308.513 199.200 C 308.037 199.200,307.529 199.392,307.384 199.627 M19.559 200.722 C 19.426 201.121,17.926 201.246,13.193 201.253 C 8.351 201.259,6.887 201.385,6.484 201.830 C 6.063 202.295,6.063 202.401,6.484 202.406 C 6.851 202.410,6.827 202.528,6.400 202.814 C 5.877 203.164,5.893 203.286,6.524 203.769 C 6.982 204.120,7.092 204.420,6.824 204.585 C 6.591 204.729,6.400 205.027,6.400 205.247 C 6.400 205.467,6.554 205.552,6.742 205.436 C 6.930 205.319,6.998 205.675,6.893 206.226 C 6.779 206.824,6.963 207.518,7.352 207.946 C 7.709 208.342,7.882 208.784,7.737 208.930 C 7.591 209.076,7.828 209.511,8.264 209.897 C 9.787 211.249,10.194 213.060,9.184 214.000 C 8.829 214.330,8.284 215.185,7.972 215.900 C 7.660 216.615,7.269 217.200,7.102 217.200 C 6.936 217.200,6.800 217.639,6.800 218.176 C 6.800 218.713,6.620 219.264,6.400 219.400 C 5.922 219.696,5.905 255.940,6.382 259.000 C 6.563 260.166,6.715 260.541,6.747 259.900 L 6.800 258.800 12.746 258.800 L 18.691 258.800 18.946 256.944 C 19.086 255.923,19.200 248.421,19.200 240.273 C 19.200 226.139,19.395 223.292,20.427 222.400 C 20.554 222.290,20.775 221.885,20.917 221.500 C 21.059 221.115,21.461 220.800,21.811 220.800 C 22.161 220.800,22.336 220.620,22.200 220.400 C 22.053 220.162,22.529 220.000,23.376 220.000 C 24.159 220.000,24.800 219.820,24.800 219.600 C 24.800 219.092,162.255 219.042,162.569 219.550 C 162.688 219.743,163.276 219.900,163.876 219.900 C 164.476 219.900,165.034 220.103,165.117 220.350 C 165.199 220.597,165.522 220.800,165.833 220.800 C 166.145 220.800,166.400 220.967,166.400 221.171 C 166.400 221.376,166.671 221.814,167.002 222.145 C 167.334 222.476,167.643 223.209,167.690 223.774 C 167.736 224.338,167.915 224.800,168.087 224.800 C 168.259 224.800,168.410 232.315,168.423 241.500 C 168.436 250.685,168.595 258.920,168.777 259.800 C 169.100 261.360,169.109 261.368,169.154 260.100 L 169.200 258.800 174.986 258.800 C 180.297 258.800,180.806 258.736,181.186 258.026 C 181.745 256.981,181.759 219.745,181.200 219.400 C 180.980 219.264,180.800 218.713,180.800 218.176 C 180.800 217.639,180.620 217.200,180.400 217.200 C 180.180 217.200,180.000 216.931,180.000 216.603 C 180.000 216.275,179.647 215.600,179.215 215.103 C 178.783 214.606,178.438 214.040,178.449 213.845 C 178.460 213.649,178.245 213.351,177.972 213.183 C 177.370 212.810,178.841 209.405,180.062 208.346 C 180.630 207.854,180.697 207.623,180.316 207.470 C 179.921 207.312,179.917 207.256,180.300 207.232 C 180.575 207.214,180.800 206.855,180.800 206.433 C 180.800 206.012,181.025 205.576,181.300 205.465 C 181.700 205.304,181.700 205.257,181.300 205.232 C 181.025 205.214,180.800 204.919,180.800 204.576 C 180.800 204.233,180.946 204.043,181.124 204.153 C 181.302 204.263,181.471 203.427,181.499 202.295 C 181.528 201.104,181.413 200.456,181.226 200.758 C 180.981 201.154,179.493 201.267,175.091 201.222 C 170.664 201.178,169.229 201.287,169.071 201.682 C 168.943 202.000,168.851 201.917,168.832 201.467 C 168.783 200.337,167.798 200.941,167.812 202.093 C 167.820 202.756,167.647 203.039,167.312 202.911 C 166.996 202.790,166.800 203.037,166.800 203.557 C 166.800 204.141,166.547 204.400,165.976 204.400 C 165.523 204.400,165.264 204.580,165.400 204.800 C 165.547 205.038,165.079 205.200,164.247 205.200 C 163.477 205.200,162.736 205.380,162.600 205.600 C 162.223 206.210,25.108 206.148,24.497 205.537 C 24.146 205.186,23.866 205.210,23.340 205.637 C 22.890 206.002,22.752 206.024,22.947 205.700 C 23.141 205.377,23.003 205.200,22.557 205.200 C 22.177 205.200,21.986 205.081,22.131 204.936 C 22.276 204.790,21.991 204.461,21.498 204.203 C 21.004 203.945,20.645 203.524,20.700 203.267 C 20.755 203.010,20.519 202.800,20.176 202.800 C 19.833 202.800,19.664 202.620,19.800 202.400 C 19.936 202.180,19.812 201.997,19.524 201.994 C 19.111 201.989,19.116 201.914,19.549 201.640 C 19.851 201.449,20.016 201.047,19.915 200.746 C 19.770 200.309,19.699 200.304,19.559 200.722 M300.800 201.224 C 300.800 201.457,300.622 201.537,300.405 201.403 C 300.187 201.268,300.105 201.408,300.222 201.713 C 300.545 202.555,301.523 202.392,301.298 201.533 C 301.089 200.731,300.800 200.552,300.800 201.224 M209.651 201.884 C 209.380 202.173,209.248 202.554,209.357 202.730 C 209.465 202.906,209.115 203.562,208.577 204.187 C 208.040 204.813,207.600 205.590,207.600 205.915 C 207.600 206.240,207.228 206.829,206.774 207.223 C 206.319 207.617,205.994 207.998,206.052 208.070 C 206.242 208.308,205.010 210.800,204.702 210.800 C 204.536 210.800,204.400 211.214,204.400 211.720 C 204.400 212.226,204.237 212.811,204.038 213.020 C 203.297 213.797,202.000 216.450,202.000 217.189 C 202.000 217.609,201.820 218.064,201.600 218.200 C 201.380 218.336,201.200 218.797,201.200 219.224 C 201.200 219.651,201.054 220.000,200.876 220.000 C 200.697 220.000,200.321 220.900,200.039 221.999 C 199.757 223.099,199.363 224.099,199.163 224.223 C 198.963 224.346,198.800 224.876,198.800 225.400 C 198.800 225.924,198.620 226.464,198.400 226.600 C 198.180 226.736,198.000 227.347,198.000 227.957 C 198.000 228.567,197.873 229.193,197.718 229.348 C 197.563 229.503,197.372 230.118,197.294 230.715 C 197.215 231.312,196.982 231.971,196.775 232.180 C 196.569 232.389,196.400 233.156,196.400 233.885 C 196.400 234.614,196.240 235.523,196.045 235.905 C 195.573 236.827,194.875 240.741,194.958 242.000 C 194.994 242.550,194.856 243.117,194.652 243.261 C 194.224 243.561,193.966 246.480,193.728 253.700 L 193.560 258.800 205.041 258.800 C 216.291 258.800,216.505 258.815,215.661 259.547 C 214.713 260.369,214.448 261.190,215.381 260.416 C 215.700 260.151,216.309 260.044,216.733 260.179 C 217.656 260.472,218.279 259.298,217.554 258.633 C 217.204 258.312,217.165 258.345,217.403 258.762 C 217.618 259.138,217.571 259.229,217.262 259.038 C 217.008 258.881,216.800 258.604,216.800 258.423 C 216.800 257.890,218.344 257.642,218.549 258.142 C 218.652 258.394,218.751 258.285,218.768 257.900 C 218.786 257.515,219.003 257.245,219.250 257.300 C 219.498 257.355,219.781 257.130,219.880 256.800 C 220.026 256.316,219.987 256.305,219.680 256.743 C 219.415 257.122,219.218 257.152,219.026 256.843 C 218.768 256.425,219.239 256.239,220.248 256.358 C 220.805 256.424,222.858 253.791,222.516 253.449 C 222.379 253.312,222.533 253.200,222.858 253.200 C 223.472 253.200,225.200 251.146,225.200 250.416 C 225.200 250.187,225.363 250.000,225.562 250.000 C 225.761 250.000,227.810 248.155,230.115 245.900 C 232.419 243.645,234.621 241.613,235.007 241.385 C 235.392 241.157,235.639 240.825,235.554 240.646 C 235.469 240.468,235.886 240.114,236.479 239.861 C 237.073 239.607,238.455 238.545,239.550 237.500 C 240.646 236.455,241.645 235.600,241.771 235.600 C 241.896 235.600,242.741 234.880,243.648 234.000 C 244.555 233.120,245.501 232.400,245.752 232.400 C 246.003 232.400,246.409 232.085,246.654 231.700 C 246.900 231.315,247.640 230.688,248.299 230.308 L 249.498 229.615 253.149 233.235 C 255.157 235.226,256.800 237.011,256.800 237.201 C 256.800 237.391,257.160 237.660,257.600 237.800 C 258.040 237.940,258.400 238.204,258.400 238.387 C 258.400 238.684,261.115 241.600,261.391 241.600 C 261.452 241.600,264.503 244.570,268.170 248.200 C 271.837 251.830,275.009 254.800,275.219 254.800 C 275.429 254.800,275.600 255.179,275.600 255.643 C 275.600 256.240,275.781 256.416,276.221 256.247 C 276.577 256.111,276.737 256.178,276.597 256.405 C 276.463 256.622,276.629 256.800,276.966 256.800 C 277.303 256.800,277.867 257.357,278.219 258.037 C 278.571 258.718,278.957 259.176,279.077 259.056 C 279.429 258.704,280.399 259.877,280.413 260.671 C 280.425 261.359,280.458 261.357,281.006 260.633 C 281.437 260.064,281.472 259.728,281.144 259.333 C 280.778 258.892,282.078 258.800,288.663 258.800 C 296.165 258.800,296.657 258.846,297.200 259.600 C 297.776 260.400,298.667 260.756,298.200 260.000 C 298.064 259.780,298.143 259.600,298.376 259.600 C 298.609 259.600,298.800 259.780,298.800 260.000 C 298.800 260.220,298.980 260.400,299.200 260.400 C 299.963 260.400,299.593 259.566,298.219 258.192 C 297.356 257.330,296.605 256.900,296.219 257.048 C 295.878 257.179,295.600 257.076,295.600 256.819 C 295.600 256.553,295.814 256.481,296.100 256.653 C 296.805 257.077,295.730 255.757,293.671 253.672 C 292.720 252.709,291.640 251.873,291.271 251.815 C 290.897 251.756,290.652 251.420,290.718 251.055 C 290.782 250.695,290.659 250.400,290.444 250.400 C 290.230 250.400,288.917 249.218,287.527 247.774 C 286.137 246.329,279.708 239.843,273.239 233.360 L 261.478 221.573 262.322 220.787 C 262.787 220.354,263.444 220.000,263.783 220.000 C 264.122 220.000,264.400 219.841,264.400 219.647 C 264.400 219.452,264.715 219.193,265.100 219.071 C 265.787 218.854,268.006 217.595,268.400 217.199 C 268.510 217.089,269.095 216.744,269.700 216.432 C 270.305 216.120,270.800 215.715,270.800 215.532 C 270.800 215.350,271.160 215.200,271.600 215.200 C 272.040 215.200,272.400 215.020,272.400 214.800 C 272.400 214.580,272.760 214.400,273.200 214.400 C 273.640 214.400,274.000 214.254,274.000 214.075 C 274.000 213.896,274.630 213.502,275.400 213.200 C 276.170 212.898,276.800 212.504,276.800 212.325 C 276.800 212.146,277.072 212.000,277.405 212.000 C 278.009 212.000,279.621 211.224,280.000 210.750 C 280.408 210.241,282.726 209.956,282.990 210.383 C 283.136 210.620,283.451 210.692,283.689 210.545 C 283.928 210.397,284.015 210.452,283.882 210.667 C 283.750 210.882,283.992 211.358,284.420 211.725 C 284.849 212.092,285.200 212.320,285.200 212.231 C 285.200 212.142,286.325 213.261,287.700 214.718 C 292.520 219.824,318.800 246.043,318.800 245.745 C 318.800 245.580,319.205 245.990,319.700 246.656 C 320.988 248.390,321.867 249.200,322.152 248.914 C 322.289 248.778,322.400 248.927,322.400 249.244 C 322.400 249.870,323.949 251.382,324.600 251.393 C 324.820 251.397,325.003 251.580,325.006 251.800 C 325.017 252.499,325.641 253.222,326.028 252.983 C 326.232 252.856,326.400 253.001,326.400 253.304 C 326.400 253.921,328.175 255.600,328.827 255.600 C 329.058 255.600,329.149 255.760,329.028 255.955 C 328.908 256.150,329.167 256.403,329.604 256.517 C 330.042 256.631,330.400 257.031,330.400 257.405 C 330.400 257.835,330.613 258.004,330.980 257.863 C 331.388 257.707,331.486 257.833,331.310 258.290 C 331.119 258.787,331.228 258.875,331.775 258.665 C 332.299 258.464,332.429 258.547,332.265 258.975 C 332.107 259.388,332.231 259.486,332.690 259.310 C 333.148 259.134,333.273 259.233,333.115 259.643 C 332.986 259.981,333.412 260.723,334.133 261.413 C 334.815 262.066,335.146 262.301,334.867 261.936 C 334.300 261.191,334.851 260.576,335.700 261.006 C 335.975 261.145,335.930 261.013,335.600 260.711 C 335.270 260.410,334.755 259.902,334.455 259.582 C 333.987 259.082,333.948 259.127,334.181 259.897 C 334.394 260.603,334.320 260.744,333.833 260.557 C 333.379 260.383,333.315 260.132,333.593 259.613 C 333.801 259.224,333.903 258.837,333.819 258.753 C 333.563 258.497,349.192 258.748,349.610 259.006 C 349.824 259.139,350.000 259.100,350.000 258.920 C 350.000 258.740,349.633 258.363,349.184 258.083 C 348.254 257.502,348.541 256.620,349.540 256.990 C 349.903 257.125,349.703 256.768,349.095 256.197 C 348.488 255.626,347.813 255.269,347.595 255.403 C 347.378 255.537,347.198 255.412,347.196 255.124 C 347.194 254.836,346.654 254.175,345.996 253.655 C 345.338 253.135,344.800 252.472,344.800 252.182 C 344.800 251.892,344.469 251.549,344.064 251.420 C 343.659 251.292,343.089 250.740,342.796 250.193 C 342.504 249.647,342.025 249.200,341.732 249.200 C 341.440 249.200,341.200 249.013,341.200 248.784 C 341.200 248.243,304.322 211.369,303.912 211.500 C 303.740 211.555,303.600 211.425,303.600 211.210 C 303.600 210.676,297.224 204.200,296.698 204.200 C 296.466 204.200,296.233 203.904,296.180 203.541 C 296.085 202.900,296.894 202.761,297.455 203.322 C 297.944 203.810,298.800 203.620,298.800 203.024 C 298.800 202.707,299.008 202.319,299.262 202.162 C 299.567 201.973,299.614 202.054,299.400 202.400 C 299.172 202.768,299.231 202.828,299.599 202.601 C 301.678 201.316,274.355 200.351,270.138 201.560 C 269.283 201.806,268.735 201.775,268.424 201.464 C 268.082 201.122,267.895 201.121,267.683 201.463 C 267.528 201.714,266.950 201.987,266.400 202.069 C 265.820 202.156,265.449 202.445,265.516 202.759 C 265.587 203.084,265.405 203.211,265.060 203.078 C 264.745 202.958,264.112 203.209,263.652 203.638 C 263.192 204.066,262.722 204.413,262.608 204.408 C 261.740 204.374,261.583 204.450,261.800 204.800 C 262.040 205.189,261.517 205.362,260.500 205.230 C 260.225 205.194,260.000 205.353,260.000 205.582 C 260.000 205.812,259.680 206.000,259.288 206.000 C 258.897 206.000,258.317 206.360,258.000 206.800 C 257.683 207.240,257.169 207.600,256.859 207.600 C 256.548 207.600,256.003 207.933,255.647 208.341 C 255.291 208.748,254.299 209.333,253.442 209.641 C 252.584 209.948,251.686 210.515,251.445 210.900 C 251.205 211.285,250.781 211.600,250.504 211.600 C 250.227 211.600,250.000 211.791,250.000 212.024 C 250.000 212.257,249.852 212.356,249.672 212.244 C 249.377 212.062,248.845 212.350,246.247 214.094 C 245.832 214.372,245.102 214.960,244.623 215.400 C 244.145 215.840,243.332 216.470,242.817 216.800 C 241.036 217.941,238.200 220.128,238.067 220.464 C 237.993 220.649,237.668 220.800,237.343 220.800 C 237.018 220.800,236.864 220.980,237.000 221.200 C 237.136 221.420,237.012 221.601,236.724 221.602 C 236.436 221.603,235.625 222.143,234.922 222.802 C 234.219 223.461,233.454 224.000,233.222 224.000 C 232.990 224.000,232.800 224.180,232.800 224.400 C 232.800 224.620,232.607 224.800,232.371 224.800 C 232.136 224.800,231.673 225.070,231.343 225.400 C 231.013 225.730,230.859 226.000,231.000 226.000 C 231.397 226.000,230.416 226.875,227.900 228.767 C 226.635 229.718,225.600 230.642,225.600 230.821 C 225.600 231.000,225.240 231.260,224.800 231.400 C 224.360 231.540,224.000 231.912,224.000 232.227 C 224.000 232.542,223.822 232.800,223.605 232.800 C 222.703 232.800,209.703 246.512,209.090 248.110 C 208.609 249.362,208.181 248.829,208.238 247.048 C 208.269 246.084,208.378 245.139,208.482 244.948 C 208.586 244.757,208.709 243.790,208.755 242.800 C 208.802 241.810,209.011 240.940,209.220 240.867 C 209.429 240.793,209.600 239.949,209.600 238.990 C 209.600 238.032,209.780 237.136,210.000 237.000 C 210.220 236.864,210.400 236.234,210.400 235.600 C 210.400 234.966,210.580 234.336,210.800 234.200 C 211.020 234.064,211.200 233.423,211.200 232.776 C 211.200 232.129,211.380 231.600,211.600 231.600 C 211.820 231.600,212.000 231.060,212.000 230.400 C 212.000 229.740,212.180 229.200,212.400 229.200 C 212.620 229.200,212.800 228.660,212.800 228.000 C 212.800 227.340,212.980 226.800,213.200 226.800 C 213.420 226.800,213.600 226.451,213.600 226.024 C 213.600 225.597,213.780 225.136,214.000 225.000 C 214.220 224.864,214.400 224.313,214.400 223.776 C 214.400 223.239,214.580 222.800,214.800 222.800 C 215.020 222.800,215.200 222.528,215.200 222.195 C 215.200 221.862,215.368 221.277,215.574 220.895 C 215.779 220.513,216.183 219.615,216.471 218.900 C 216.760 218.185,217.109 217.600,217.248 217.600 C 217.386 217.600,217.604 217.082,217.730 216.448 C 217.857 215.815,218.231 215.026,218.561 214.696 C 218.892 214.366,219.036 213.969,218.882 213.815 C 218.727 213.661,218.876 213.324,219.212 213.067 C 219.548 212.810,220.285 211.657,220.849 210.504 C 221.413 209.351,221.980 208.514,222.110 208.643 C 222.240 208.773,222.245 208.494,222.122 208.023 C 221.999 207.551,222.056 207.219,222.249 207.283 C 222.442 207.347,222.677 207.220,222.771 207.000 C 222.866 206.780,223.136 206.381,223.371 206.114 C 224.611 204.707,224.695 204.513,224.334 203.867 C 224.044 203.349,224.188 203.097,224.980 202.736 C 227.628 201.530,225.388 201.113,216.979 201.248 C 211.960 201.328,210.011 201.498,209.651 201.884 M93.600 237.390 L 93.600 244.000 100.210 244.000 L 106.820 244.000 106.710 237.500 L 106.600 231.000 100.100 230.890 L 93.600 230.780 93.600 237.390 M118.400 237.400 L 118.400 244.000 125.000 244.000 L 131.600 244.000 131.600 237.400 L 131.600 230.800 125.000 230.800 L 118.400 230.800 118.400 237.400 M143.600 237.390 L 143.600 244.000 150.210 244.000 L 156.820 244.000 156.710 237.500 L 156.600 231.000 150.100 230.890 L 143.600 230.780 143.600 237.390 M351.581 259.823 C 351.309 260.151,351.202 260.535,351.343 260.676 C 351.484 260.818,351.600 260.723,351.600 260.467 C 351.600 260.210,351.799 260.000,352.043 260.000 C 352.299 260.000,352.374 260.294,352.219 260.700 C 352.005 261.262,352.052 261.301,352.457 260.900 C 352.861 260.498,353.223 260.653,354.280 261.678 C 355.006 262.381,355.600 262.861,355.600 262.744 C 355.600 261.874,352.031 259.281,351.581 259.823 M300.681 261.783 C 301.432 262.810,302.400 263.410,302.400 262.849 C 302.400 262.316,300.945 260.800,300.434 260.800 C 300.139 260.800,300.231 261.168,300.681 261.783 M283.200 263.095 C 283.200 263.676,284.327 264.800,284.909 264.800 C 285.175 264.800,285.123 264.595,284.780 264.300 C 284.461 264.025,283.975 263.541,283.700 263.224 C 283.408 262.886,283.200 262.833,283.200 263.095 M356.076 263.973 C 356.342 264.399,356.748 264.714,356.980 264.673 C 357.211 264.633,357.355 264.825,357.300 265.100 C 357.245 265.375,357.425 265.555,357.700 265.500 C 357.975 265.445,358.159 265.614,358.108 265.876 C 358.058 266.137,358.373 266.464,358.808 266.603 C 359.244 266.741,359.600 267.022,359.600 267.227 C 359.600 267.432,359.803 267.600,360.051 267.600 C 360.299 267.600,359.540 266.610,358.364 265.400 C 356.210 263.183,355.183 262.543,356.076 263.973 M285.460 265.811 C 285.589 266.147,286.078 266.622,286.547 266.865 C 287.332 267.273,287.322 267.224,286.430 266.254 C 285.315 265.042,285.132 264.958,285.460 265.811 M375.600 282.869 C 375.600 283.266,377.206 284.927,377.401 284.732 C 377.509 284.625,377.148 284.114,376.598 283.599 C 376.049 283.083,375.600 282.754,375.600 282.869 M358.000 285.325 C 358.000 285.394,358.585 285.979,359.300 286.625 L 360.600 287.800 359.425 286.500 C 358.330 285.288,358.000 285.016,358.000 285.325 " stroke="none" fill="#6364ed" fill-rule="evenodd"></path><path id="path2" d="M345.600 252.925 C 345.600 252.994,346.185 253.579,346.900 254.225 L 348.200 255.400 347.025 254.100 C 345.930 252.888,345.600 252.616,345.600 252.925 M301.002 281.602 C 301.402 282.044,301.811 282.322,301.912 282.221 C 302.128 282.005,300.988 280.800,300.567 280.800 C 300.407 280.800,300.603 281.161,301.002 281.602 M303.402 284.002 C 303.802 284.444,304.211 284.722,304.312 284.621 C 304.528 284.405,303.388 283.200,302.967 283.200 C 302.807 283.200,303.003 283.561,303.402 284.002 M379.200 286.525 C 379.200 286.594,379.785 287.179,380.500 287.825 L 381.800 289.000 380.625 287.700 C 379.530 286.488,379.200 286.216,379.200 286.525 M331.200 291.628 C 331.200 292.079,336.064 296.869,336.291 296.642 C 336.397 296.536,335.295 295.295,333.842 293.884 C 332.389 292.474,331.200 291.458,331.200 291.628 M30.981 301.499 L 31.000 306.600 37.300 306.616 L 43.601 306.631 37.412 306.506 L 31.224 306.380 31.093 301.389 L 30.963 296.399 30.981 301.499 M80.981 301.499 L 81.000 306.600 87.300 306.616 L 93.601 306.631 87.412 306.506 L 81.224 306.380 81.093 301.389 L 80.963 296.399 80.981 301.499 M370.000 297.184 C 370.000 297.697,371.145 298.989,371.385 298.748 C 371.465 298.666,371.187 298.175,370.766 297.656 C 370.345 297.136,370.000 296.924,370.000 297.184 M339.477 299.910 C 339.390 300.069,340.274 301.141,341.442 302.290 C 342.609 303.440,343.636 304.250,343.723 304.090 C 343.810 303.931,342.926 302.859,341.758 301.710 C 340.591 300.560,339.564 299.750,339.477 299.910 M320.800 301.400 C 321.317 301.950,321.919 302.400,322.139 302.400 C 322.359 302.400,322.117 301.950,321.600 301.400 C 321.083 300.850,320.481 300.400,320.261 300.400 C 320.041 300.400,320.283 300.850,320.800 301.400 M189.029 301.829 C 188.605 302.138,188.336 302.469,188.430 302.563 C 188.524 302.657,188.948 302.481,189.371 302.171 C 189.795 301.862,190.064 301.531,189.970 301.437 C 189.876 301.343,189.452 301.519,189.029 301.829 M376.000 303.400 C 377.311 304.753,377.600 304.977,377.600 304.642 C 377.600 304.331,375.272 302.000,374.961 302.000 C 374.786 302.000,375.254 302.630,376.000 303.400 M325.420 305.838 C 326.651 307.068,327.760 307.973,327.885 307.848 C 328.138 307.595,324.020 303.600,323.507 303.600 C 323.328 303.600,324.190 304.607,325.420 305.838 M182.800 304.424 C 182.800 304.657,182.620 304.736,182.400 304.600 C 182.180 304.464,182.000 304.543,182.000 304.776 C 182.000 305.009,182.270 305.200,182.600 305.200 C 182.930 305.200,183.200 304.930,183.200 304.600 C 183.200 304.270,183.110 304.000,183.000 304.000 C 182.890 304.000,182.800 304.191,182.800 304.424 M218.144 304.490 C 217.897 304.890,218.775 304.841,219.800 304.398 C 220.482 304.103,220.433 304.062,219.468 304.116 C 218.845 304.151,218.250 304.319,218.144 304.490 M378.000 305.071 C 378.000 305.514,378.402 306.219,378.893 306.638 C 379.721 307.344,379.744 307.346,379.211 306.660 C 378.894 306.252,378.596 305.651,378.548 305.323 C 378.408 304.374,378.000 304.186,378.000 305.071 M56.000 306.500 C 56.000 306.665,58.970 306.800,62.600 306.800 C 66.230 306.800,69.200 306.665,69.200 306.500 C 69.200 306.335,66.230 306.200,62.600 306.200 C 58.970 306.200,56.000 306.335,56.000 306.500 M208.400 307.218 C 208.400 307.447,208.625 307.599,208.900 307.555 C 209.175 307.512,209.850 307.666,210.400 307.898 C 212.344 308.718,210.164 308.868,198.262 308.734 C 190.471 308.645,186.561 308.736,186.727 309.000 C 187.137 309.655,187.158 310.421,186.758 310.174 C 186.554 310.048,186.491 309.777,186.617 309.572 C 186.744 309.368,186.477 309.200,186.024 309.200 C 185.571 309.200,185.200 309.369,185.200 309.575 C 185.200 309.781,184.879 309.926,184.486 309.897 C 183.771 309.843,179.428 312.507,178.937 313.301 C 178.773 313.567,178.871 313.603,179.200 313.400 C 179.549 313.184,179.627 313.233,179.434 313.545 C 179.275 313.802,179.000 313.924,178.823 313.814 C 178.543 313.641,177.387 314.656,175.383 316.834 C 175.062 317.182,174.800 317.637,174.800 317.845 C 174.800 318.053,174.440 318.483,174.000 318.800 C 173.560 319.117,173.200 319.614,173.200 319.905 C 173.200 320.196,172.840 320.820,172.400 321.292 C 171.960 321.764,171.600 322.466,171.600 322.852 C 171.600 323.237,171.420 323.664,171.200 323.800 C 170.980 323.936,170.800 324.397,170.800 324.824 C 170.800 325.251,170.620 325.600,170.400 325.600 C 170.180 325.600,170.000 325.960,170.000 326.400 C 170.000 326.840,169.839 327.200,169.642 327.200 C 169.056 327.200,168.744 330.183,168.541 337.739 C 168.406 342.730,168.477 344.800,168.774 344.616 C 169.048 344.447,169.200 344.924,169.200 345.953 C 169.200 346.833,169.380 347.664,169.600 347.800 C 169.820 347.936,170.000 348.397,170.000 348.824 C 170.000 349.251,170.180 349.600,170.400 349.600 C 170.620 349.600,170.800 349.949,170.800 350.376 C 170.800 350.803,170.980 351.264,171.200 351.400 C 171.420 351.536,171.600 351.997,171.600 352.424 C 171.600 352.851,171.780 353.200,172.000 353.200 C 172.220 353.200,172.400 353.470,172.400 353.800 C 172.400 354.130,172.580 354.400,172.800 354.400 C 173.020 354.400,173.203 354.625,173.207 354.900 C 173.219 355.715,178.713 362.000,179.414 362.000 C 179.560 362.000,180.183 362.540,180.800 363.200 C 181.417 363.860,182.209 364.400,182.560 364.400 C 182.912 364.400,183.200 364.547,183.200 364.726 C 183.200 365.192,186.331 366.800,187.238 366.800 C 187.657 366.800,188.000 366.980,188.000 367.200 C 188.000 367.420,188.349 367.600,188.776 367.600 C 189.203 367.600,189.664 367.780,189.800 368.000 C 189.936 368.220,190.667 368.400,191.424 368.400 C 192.181 368.400,192.800 368.580,192.800 368.800 C 192.800 369.052,195.467 369.200,200.000 369.200 C 204.533 369.200,207.200 369.052,207.200 368.800 C 207.200 368.580,207.830 368.400,208.600 368.400 C 209.370 368.400,210.000 368.220,210.000 368.000 C 210.000 367.780,210.450 367.600,211.000 367.600 C 211.550 367.600,212.000 367.420,212.000 367.200 C 212.000 366.980,212.343 366.800,212.762 366.800 C 213.669 366.800,216.800 365.192,216.800 364.726 C 216.800 364.547,217.067 364.400,217.393 364.400 C 218.768 364.400,226.780 356.305,226.795 354.900 C 226.798 354.625,226.980 354.400,227.200 354.400 C 227.420 354.400,227.600 354.130,227.600 353.800 C 227.600 353.470,227.780 353.200,228.000 353.200 C 228.220 353.200,228.400 352.840,228.400 352.400 C 228.400 351.960,228.580 351.600,228.800 351.600 C 229.020 351.600,229.200 351.150,229.200 350.600 C 229.200 350.050,229.380 349.600,229.600 349.600 C 229.820 349.600,230.000 349.251,230.000 348.824 C 230.000 348.397,230.180 347.936,230.400 347.800 C 230.620 347.664,230.800 346.933,230.800 346.176 C 230.800 345.419,230.980 344.800,231.200 344.800 C 231.452 344.800,231.600 342.141,231.600 337.624 C 231.600 333.271,231.443 330.350,231.200 330.200 C 230.980 330.064,230.800 329.333,230.800 328.576 C 230.800 327.819,230.620 327.200,230.400 327.200 C 230.180 327.200,230.000 326.840,230.000 326.400 C 230.000 325.960,229.820 325.600,229.600 325.600 C 229.380 325.600,229.200 325.212,229.200 324.738 C 229.200 324.264,228.758 323.296,228.217 322.587 C 227.677 321.879,227.347 321.187,227.484 321.049 C 227.621 320.912,227.523 320.800,227.267 320.800 C 227.010 320.800,226.800 320.480,226.800 320.088 C 226.800 319.697,226.440 319.117,226.000 318.800 C 225.560 318.483,225.195 318.038,225.189 317.812 C 225.174 317.239,221.889 313.600,221.387 313.600 C 221.162 313.600,220.663 313.232,220.278 312.783 C 219.885 312.324,219.364 312.089,219.089 312.247 C 218.820 312.402,218.726 312.388,218.881 312.217 C 219.540 311.485,215.999 309.361,215.294 310.066 C 214.804 310.556,213.873 310.129,214.217 309.572 C 214.344 309.368,214.167 309.200,213.824 309.200 C 213.481 309.200,213.200 309.009,213.200 308.776 C 213.200 308.543,213.019 308.465,212.797 308.602 C 212.576 308.739,212.286 308.569,212.154 308.225 C 212.022 307.881,211.574 307.600,211.157 307.600 C 210.741 307.600,210.400 307.420,210.400 307.200 C 210.400 306.980,209.950 306.800,209.400 306.800 C 208.850 306.800,208.400 306.988,208.400 307.218 M149.134 308.053 C 147.682 308.585,147.090 312.000,148.450 312.000 C 148.643 312.000,148.800 312.360,148.800 312.800 C 148.800 313.240,148.991 313.600,149.224 313.600 C 149.457 313.600,149.519 313.392,149.362 313.138 C 149.191 312.861,149.251 312.785,149.514 312.947 C 149.754 313.095,149.883 313.569,149.800 314.000 C 149.717 314.431,149.818 314.888,150.025 315.015 C 150.528 315.326,150.507 317.587,150.000 317.650 C 149.780 317.678,149.435 317.723,149.233 317.750 C 149.032 317.778,148.732 317.935,148.567 318.100 C 148.402 318.265,147.847 318.400,147.333 318.400 C 146.820 318.400,146.400 318.580,146.400 318.800 C 146.400 319.020,145.986 319.200,145.480 319.200 C 143.792 319.200,143.600 319.841,143.600 325.480 L 143.600 330.800 84.424 330.800 C 45.404 330.800,25.163 330.664,25.000 330.400 C 24.864 330.180,24.295 330.000,23.736 330.000 C 22.383 330.000,20.000 327.617,20.000 326.264 C 20.000 325.705,19.820 325.136,19.600 325.000 C 19.360 324.852,19.200 322.178,19.200 318.323 C 19.200 314.607,19.004 311.240,18.737 310.346 L 18.273 308.800 12.600 308.800 L 6.927 308.800 6.463 310.346 C 5.878 312.300,5.827 329.329,6.403 330.405 C 6.624 330.819,6.843 331.617,6.890 332.179 C 6.936 332.740,7.115 333.200,7.287 333.200 C 7.459 333.200,7.600 333.560,7.600 334.000 C 7.600 334.440,7.780 334.800,8.000 334.800 C 8.220 334.800,8.400 335.070,8.400 335.400 C 8.400 335.730,8.580 336.000,8.800 336.000 C 9.020 336.000,9.200 336.226,9.200 336.503 C 9.200 337.198,13.863 341.600,14.600 341.600 C 14.930 341.600,15.200 341.780,15.200 342.000 C 15.200 342.220,15.560 342.400,16.000 342.400 C 16.440 342.400,16.800 342.580,16.800 342.800 C 16.800 343.020,17.340 343.200,18.000 343.200 C 18.660 343.200,19.200 343.380,19.200 343.600 C 19.200 343.865,40.200 344.000,81.400 344.000 L 143.600 344.000 143.600 349.429 C 143.600 355.182,143.842 356.000,145.548 356.000 C 145.991 356.000,146.464 356.180,146.600 356.400 C 146.736 356.620,147.161 356.800,147.544 356.800 C 149.592 356.800,151.360 358.960,150.000 359.800 C 149.780 359.936,149.600 360.397,149.600 360.824 C 149.600 361.251,149.464 361.600,149.298 361.600 C 148.926 361.600,148.022 363.589,147.775 364.947 C 147.623 365.789,148.268 366.608,151.850 370.120 C 156.841 375.013,158.284 376.459,165.937 384.237 C 171.118 389.502,171.778 390.043,172.737 389.812 C 174.302 389.434,176.000 388.649,176.000 388.302 C 176.000 388.136,176.349 388.000,176.776 388.000 C 177.203 388.000,177.664 387.820,177.800 387.600 C 178.278 386.826,180.000 387.139,180.000 388.000 C 180.000 388.440,180.180 388.800,180.400 388.800 C 180.620 388.800,180.800 389.239,180.800 389.776 C 180.800 390.313,180.980 390.864,181.200 391.000 C 181.420 391.136,181.600 391.609,181.600 392.052 C 181.600 394.004,181.564 394.000,200.000 394.000 C 218.185 394.000,218.400 393.979,218.400 392.223 C 218.400 391.609,218.563 391.191,219.538 389.305 C 219.792 388.813,220.000 388.138,220.000 387.805 C 220.000 387.121,221.800 386.953,222.200 387.600 C 222.336 387.820,222.797 388.000,223.224 388.000 C 223.651 388.000,224.000 388.180,224.000 388.400 C 224.000 388.620,224.345 388.800,224.767 388.800 C 225.188 388.800,225.593 388.958,225.667 389.151 C 226.504 391.357,237.675 382.400,241.989 376.063 C 242.313 375.587,242.898 375.096,243.289 374.972 C 243.680 374.848,244.000 374.458,244.000 374.106 C 244.000 373.755,244.106 373.573,244.235 373.702 C 244.437 373.903,250.830 367.744,252.301 365.933 C 252.785 365.337,250.789 360.462,249.900 360.067 C 249.306 359.803,249.579 357.600,250.205 357.600 C 250.793 357.600,251.218 357.433,253.095 356.462 C 253.587 356.208,254.324 356.000,254.733 356.000 C 256.783 356.000,256.800 355.845,256.800 337.413 C 256.800 318.688,256.871 319.246,254.500 319.213 C 254.005 319.206,253.600 319.020,253.600 318.800 C 253.600 318.580,253.262 318.400,252.849 318.400 C 252.436 318.400,251.456 318.132,250.672 317.804 L 249.246 317.208 249.860 315.404 C 250.199 314.412,250.638 313.600,250.838 313.600 C 251.037 313.600,251.200 313.139,251.200 312.576 C 251.200 311.996,251.373 311.660,251.600 311.800 C 252.004 312.050,252.279 310.277,252.050 308.900 C 251.998 308.583,233.584 308.682,233.265 309.001 C 233.163 309.104,232.851 308.876,232.572 308.494 C 232.293 308.113,231.974 307.893,231.862 308.005 C 231.750 308.116,232.252 308.875,232.977 309.689 C 233.702 310.504,234.409 311.058,234.548 310.919 C 234.687 310.780,234.800 310.977,234.800 311.357 C 234.800 311.737,234.960 311.949,235.155 311.828 C 235.577 311.567,235.903 312.711,235.690 313.705 C 235.607 314.094,235.344 314.289,235.102 314.139 C 234.821 313.966,234.756 314.108,234.919 314.534 C 235.086 314.969,234.971 315.200,234.587 315.200 C 234.264 315.200,234.000 315.549,234.000 315.976 C 234.000 316.403,233.820 316.864,233.600 317.000 C 233.380 317.136,233.200 317.607,233.200 318.047 C 233.200 318.487,233.020 318.736,232.800 318.600 C 232.574 318.461,232.400 318.785,232.400 319.343 C 232.400 319.888,232.625 320.424,232.900 320.535 C 233.266 320.683,233.272 320.745,232.920 320.768 C 232.464 320.798,232.830 321.744,234.675 325.300 C 234.988 325.905,235.132 326.400,234.994 326.400 C 234.856 326.400,235.013 326.670,235.343 327.000 C 235.673 327.330,236.406 327.600,236.971 327.600 C 237.537 327.600,238.000 327.780,238.000 328.000 C 238.000 328.220,238.349 328.400,238.776 328.400 C 239.203 328.400,239.664 328.580,239.800 328.800 C 239.936 329.020,240.487 329.200,241.024 329.200 C 241.561 329.200,242.000 329.380,242.000 329.600 C 242.000 329.820,242.360 330.000,242.800 330.000 C 243.571 330.000,243.600 330.267,243.600 337.351 L 243.600 344.703 242.300 345.247 C 241.585 345.546,240.910 345.813,240.800 345.839 C 240.690 345.866,240.015 346.026,239.300 346.194 C 238.585 346.362,238.000 346.658,238.000 346.850 C 238.000 347.043,237.766 347.200,237.480 347.200 C 236.432 347.200,234.806 348.218,234.803 348.876 C 234.801 349.248,234.620 349.664,234.400 349.800 C 234.180 349.936,234.000 350.487,234.000 351.024 C 234.000 351.561,233.820 352.000,233.600 352.000 C 233.380 352.000,233.200 352.349,233.200 352.776 C 233.200 353.203,233.020 353.664,232.800 353.800 C 232.580 353.936,232.400 354.577,232.400 355.224 C 232.400 355.871,232.580 356.400,232.800 356.400 C 233.020 356.400,233.200 356.634,233.200 356.920 C 233.200 357.656,234.141 359.593,234.500 359.597 C 234.665 359.599,234.800 359.872,234.800 360.205 C 234.800 360.538,235.008 361.143,235.261 361.550 C 235.663 362.193,235.287 362.728,232.361 365.676 C 230.513 367.539,228.134 370.031,227.076 371.213 C 225.378 373.111,225.062 373.306,224.382 372.881 C 223.958 372.617,223.338 372.400,223.005 372.400 C 222.672 372.400,222.400 372.220,222.400 372.000 C 222.400 371.780,222.040 371.600,221.600 371.600 C 221.160 371.600,220.800 371.420,220.800 371.200 C 220.800 370.980,220.440 370.800,220.000 370.800 C 219.560 370.800,219.200 370.620,219.200 370.400 C 219.200 370.180,218.581 370.000,217.824 370.000 C 217.067 370.000,216.336 370.180,216.200 370.400 C 216.064 370.620,215.603 370.800,215.176 370.800 C 214.749 370.800,214.400 370.980,214.400 371.200 C 214.400 371.420,213.950 371.600,213.400 371.600 C 212.850 371.600,212.400 371.780,212.400 372.000 C 212.400 372.220,212.076 372.400,211.680 372.400 C 210.701 372.400,210.000 373.175,210.000 374.256 C 210.000 374.749,209.820 375.264,209.600 375.400 C 209.380 375.536,209.200 375.997,209.200 376.424 C 209.200 376.851,209.020 377.200,208.800 377.200 C 208.580 377.200,208.400 377.524,208.400 377.920 C 208.400 378.316,208.175 379.125,207.900 379.717 L 207.400 380.794 199.998 380.797 L 192.595 380.800 192.122 379.700 C 191.862 379.095,191.528 377.925,191.380 377.100 C 191.232 376.275,190.951 375.600,190.755 375.600 C 190.560 375.600,190.400 375.366,190.400 375.080 C 190.400 373.853,189.373 372.406,188.500 372.403 C 188.005 372.401,187.600 372.220,187.600 372.000 C 187.600 371.780,187.150 371.600,186.600 371.600 C 186.050 371.600,185.600 371.420,185.600 371.200 C 185.600 370.980,185.240 370.800,184.800 370.800 C 184.360 370.800,184.000 370.620,184.000 370.400 C 184.000 370.180,183.381 370.000,182.624 370.000 C 181.867 370.000,181.136 370.180,181.000 370.400 C 180.864 370.620,180.418 370.800,180.010 370.800 C 179.601 370.800,179.207 370.935,179.133 371.100 C 179.060 371.265,178.163 371.824,177.139 372.343 L 175.278 373.286 169.778 367.786 C 164.955 362.962,164.335 362.195,164.739 361.548 C 164.993 361.143,165.200 360.553,165.200 360.239 C 165.200 359.924,165.335 359.607,165.500 359.533 C 166.687 359.006,168.071 354.338,167.200 353.800 C 166.980 353.664,166.800 353.203,166.800 352.776 C 166.800 352.349,166.620 352.000,166.400 352.000 C 166.180 352.000,166.000 351.561,166.000 351.024 C 166.000 350.487,165.820 349.936,165.600 349.800 C 165.380 349.664,165.200 349.281,165.200 348.948 C 165.200 348.035,164.179 347.200,163.062 347.200 C 162.515 347.200,162.007 347.063,161.933 346.895 C 161.860 346.727,160.720 346.230,159.400 345.790 L 157.000 344.991 156.891 337.496 C 156.797 331.004,156.864 330.000,157.391 330.000 C 157.726 330.000,158.000 329.820,158.000 329.600 C 158.000 329.380,158.540 329.200,159.200 329.200 C 159.860 329.200,160.400 329.020,160.400 328.800 C 160.400 328.580,160.760 328.400,161.200 328.400 C 161.640 328.400,162.000 328.220,162.000 328.000 C 162.000 327.780,162.234 327.600,162.520 327.600 C 163.583 327.600,165.194 326.577,165.197 325.900 C 165.199 325.515,165.380 325.200,165.600 325.200 C 165.820 325.200,166.000 324.874,166.000 324.475 C 166.000 324.076,166.360 323.005,166.800 322.094 C 167.640 320.356,167.890 318.174,167.200 318.600 C 166.973 318.740,166.800 318.404,166.800 317.824 C 166.800 317.261,166.620 316.800,166.400 316.800 C 166.180 316.800,166.000 316.440,166.000 316.000 C 166.000 315.560,165.820 315.200,165.600 315.200 C 165.380 315.200,165.200 314.840,165.200 314.400 C 165.200 313.960,165.020 313.600,164.800 313.600 C 164.221 313.600,164.307 312.104,164.900 311.865 C 165.300 311.704,165.300 311.657,164.900 311.632 C 164.625 311.614,164.400 311.437,164.400 311.237 C 164.400 311.038,164.788 310.976,165.263 311.100 C 165.854 311.255,166.035 311.180,165.839 310.863 C 165.666 310.583,165.816 310.400,166.219 310.400 C 166.637 310.400,166.803 310.184,166.663 309.820 C 166.515 309.433,166.633 309.315,167.020 309.463 C 167.339 309.586,167.600 309.486,167.600 309.243 C 167.600 308.735,168.056 308.758,158.572 308.799 C 151.448 308.830,149.790 308.663,150.226 307.958 C 150.480 307.547,150.530 307.542,149.134 308.053 M346.982 308.428 C 346.834 308.669,343.316 308.807,337.930 308.784 C 333.085 308.763,329.027 308.840,328.913 308.954 C 328.512 309.355,329.947 310.395,330.570 310.156 C 331.024 309.982,331.200 310.157,331.200 310.786 C 331.200 311.719,332.143 312.924,332.552 312.514 C 332.689 312.378,332.800 312.518,332.800 312.826 C 332.800 313.133,336.844 317.348,341.788 322.192 C 353.106 333.284,353.883 334.000,354.607 334.000 C 354.933 334.000,355.200 334.147,355.200 334.326 C 355.200 334.792,358.331 336.400,359.238 336.400 C 359.657 336.400,360.000 336.580,360.000 336.800 C 360.000 337.020,360.529 337.200,361.176 337.200 C 361.823 337.200,362.464 337.380,362.600 337.600 C 362.747 337.838,365.263 338.000,368.800 338.000 C 372.337 338.000,374.853 337.838,375.000 337.600 C 375.136 337.380,375.777 337.200,376.424 337.200 C 377.071 337.200,377.600 337.020,377.600 336.800 C 377.600 336.580,378.050 336.400,378.600 336.400 C 379.150 336.400,379.600 336.256,379.600 336.080 C 379.600 335.905,380.230 335.533,381.000 335.254 C 381.770 334.976,382.400 334.580,382.400 334.374 C 382.400 334.168,382.691 334.000,383.047 334.000 C 383.819 334.000,390.400 327.409,390.400 326.635 C 390.400 326.340,390.670 325.874,391.000 325.600 C 391.330 325.326,391.600 324.674,391.600 324.151 C 391.600 323.628,391.780 323.200,392.000 323.200 C 392.220 323.200,392.400 322.840,392.400 322.400 C 392.400 321.960,392.560 321.600,392.756 321.600 C 393.308 321.600,393.668 319.050,393.864 313.736 L 394.045 308.873 388.068 308.822 C 382.108 308.772,381.314 308.712,379.800 308.197 C 379.195 307.991,379.138 308.023,379.567 308.327 C 379.892 308.558,380.155 309.473,380.183 310.465 C 380.210 311.419,380.372 312.605,380.543 313.100 C 380.738 313.666,380.695 314.000,380.427 314.000 C 380.192 314.000,380.000 314.191,380.000 314.424 C 380.000 314.657,380.225 314.712,380.500 314.547 C 380.857 314.333,380.847 314.436,380.466 314.906 C 380.172 315.268,380.047 315.753,380.189 315.982 C 380.331 316.212,380.265 316.400,380.042 316.400 C 379.820 316.400,379.360 316.985,379.020 317.700 C 377.870 320.120,374.502 323.200,373.005 323.200 C 372.672 323.200,372.400 323.380,372.400 323.600 C 372.400 324.107,365.503 324.138,364.980 323.633 C 364.771 323.432,364.243 323.207,363.806 323.133 C 363.369 323.060,361.080 321.065,358.719 318.700 C 356.357 316.335,354.139 314.400,353.789 314.400 C 353.439 314.400,353.265 314.219,353.402 313.997 C 353.742 313.447,352.724 312.492,352.041 312.720 C 351.711 312.830,351.599 312.725,351.763 312.460 C 352.055 311.987,349.034 308.729,347.899 308.293 C 347.529 308.151,347.116 308.212,346.982 308.428 M202.596 319.849 C 203.914 319.920,205.054 320.163,205.130 320.389 C 205.205 320.615,205.657 320.806,206.133 320.812 C 207.452 320.831,213.552 324.935,213.584 325.825 C 213.593 326.058,213.925 326.598,214.322 327.025 C 214.720 327.451,215.303 328.385,215.620 329.100 C 215.936 329.815,216.331 330.400,216.498 330.400 C 216.664 330.400,216.800 330.835,216.800 331.367 C 216.800 331.898,216.984 332.395,217.209 332.470 C 217.721 332.640,217.790 342.430,217.282 342.764 C 217.084 342.894,216.805 343.482,216.661 344.072 C 216.517 344.662,216.129 345.414,215.799 345.743 C 215.470 346.073,215.200 346.514,215.200 346.722 C 215.200 346.931,214.926 347.330,214.590 347.608 C 214.255 347.886,214.053 348.186,214.141 348.274 C 214.385 348.518,211.674 351.200,211.183 351.200 C 210.947 351.200,210.864 351.380,211.000 351.600 C 211.136 351.820,211.033 352.000,210.771 352.000 C 210.508 352.000,210.003 352.315,209.647 352.700 C 209.291 353.085,208.640 353.460,208.200 353.533 C 207.760 353.607,207.229 353.832,207.020 354.033 C 206.811 354.235,206.316 354.400,205.920 354.400 C 205.524 354.400,205.200 354.580,205.200 354.800 C 205.200 355.046,203.200 355.200,200.000 355.200 C 196.800 355.200,194.800 355.046,194.800 354.800 C 194.800 354.580,194.440 354.400,194.000 354.400 C 193.560 354.400,193.200 354.220,193.200 354.000 C 193.200 353.780,192.840 353.600,192.400 353.600 C 191.960 353.600,191.600 353.420,191.600 353.200 C 191.600 352.980,191.375 352.800,191.100 352.800 C 190.825 352.799,190.060 352.334,189.400 351.765 C 188.740 351.196,188.020 350.611,187.800 350.465 C 187.136 350.025,184.800 346.877,184.800 346.423 C 184.800 346.191,184.665 345.999,184.500 345.997 C 184.141 345.993,183.200 344.056,183.200 343.320 C 183.200 343.034,183.020 342.800,182.800 342.800 C 182.554 342.800,182.400 340.800,182.400 337.600 C 182.400 334.400,182.554 332.400,182.800 332.400 C 183.020 332.400,183.200 331.849,183.200 331.176 C 183.200 330.463,183.367 330.056,183.600 330.200 C 183.820 330.336,184.000 330.077,184.000 329.624 C 184.000 329.171,184.180 328.800,184.400 328.800 C 184.620 328.800,184.800 328.622,184.800 328.405 C 184.800 327.515,189.687 322.400,190.537 322.400 C 190.819 322.400,191.436 322.040,191.908 321.600 C 192.380 321.160,193.209 320.800,193.750 320.800 C 194.291 320.800,194.793 320.620,194.867 320.400 C 194.940 320.181,196.052 319.977,197.337 319.947 C 198.949 319.910,199.507 319.774,199.137 319.509 C 198.760 319.239,198.839 319.214,199.400 319.423 C 199.840 319.587,201.278 319.779,202.596 319.849 " stroke="none" fill="#8942f8" fill-rule="evenodd"></path><path id="path3" d="M270.600 230.800 C 271.683 231.900,272.660 232.800,272.770 232.800 C 272.880 232.800,272.083 231.900,271.000 230.800 C 269.917 229.700,268.940 228.800,268.830 228.800 C 268.720 228.800,269.517 229.700,270.600 230.800 M250.394 230.994 C 251.137 231.761,251.817 232.316,251.905 232.228 C 252.081 232.053,249.614 229.600,249.262 229.600 C 249.142 229.600,249.651 230.227,250.394 230.994 M253.771 234.311 C 254.415 235.015,255.021 235.512,255.118 235.415 C 255.311 235.222,254.653 234.534,253.398 233.615 C 252.959 233.294,253.127 233.607,253.771 234.311 M318.685 245.887 C 318.586 246.059,318.932 246.611,319.453 247.114 C 320.594 248.216,320.694 247.900,319.632 246.550 C 319.209 246.013,318.783 245.714,318.685 245.887 M286.451 246.693 C 287.240 247.689,288.491 248.910,289.407 249.579 C 289.843 249.897,289.307 249.222,288.215 248.079 C 286.260 246.031,285.377 245.337,286.451 246.693 M268.990 249.590 C 270.290 250.904,271.416 251.917,271.493 251.841 C 271.683 251.650,267.308 247.200,266.930 247.200 C 266.762 247.200,267.689 248.275,268.990 249.590 M273.535 253.986 C 274.489 254.909,275.366 255.567,275.485 255.448 C 275.603 255.330,275.111 254.730,274.391 254.116 C 272.230 252.273,271.676 252.189,273.535 253.986 M219.400 256.306 C 219.180 256.468,218.960 257.050,218.910 257.600 C 218.823 258.575,218.831 258.572,219.244 257.498 C 219.482 256.879,219.856 256.511,220.096 256.659 C 220.349 256.816,220.407 256.735,220.238 256.462 C 219.905 255.923,219.919 255.925,219.400 256.306 M18.881 257.500 L 18.800 258.800 12.800 258.800 L 6.800 258.800 6.740 259.900 C 6.701 260.616,6.587 260.372,6.413 259.200 C 6.236 258.002,6.131 259.105,6.100 262.500 C 6.073 265.424,6.213 267.600,6.427 267.600 C 6.632 267.600,6.800 268.151,6.800 268.824 C 6.800 269.656,6.950 269.955,7.268 269.758 C 7.578 269.566,7.654 269.683,7.492 270.105 C 7.357 270.455,7.505 270.955,7.819 271.216 C 8.134 271.477,8.299 271.839,8.187 272.021 C 8.075 272.202,8.268 272.510,8.617 272.705 C 8.965 272.900,9.289 273.316,9.336 273.630 C 9.384 273.943,9.584 274.459,9.782 274.776 C 10.014 275.149,9.975 275.408,9.671 275.510 C 9.412 275.596,9.200 275.841,9.200 276.055 C 9.200 276.268,8.758 277.093,8.218 277.888 C 7.677 278.683,7.328 279.484,7.441 279.667 C 7.555 279.850,7.457 280.000,7.224 280.000 C 6.991 280.000,6.800 280.461,6.800 281.024 C 6.800 281.587,6.628 281.941,6.418 281.811 C 6.179 281.663,6.044 287.125,6.055 296.488 C 6.068 307.517,6.182 311.061,6.494 310.100 L 6.916 308.800 12.600 308.800 L 18.284 308.800 18.701 310.100 C 19.013 311.070,19.129 308.439,19.159 299.724 C 19.185 292.290,19.348 287.956,19.607 287.796 C 19.830 287.658,19.906 287.372,19.776 287.161 C 18.895 285.735,22.588 281.851,24.478 282.215 C 24.887 282.294,25.116 282.188,24.987 281.979 C 24.682 281.485,162.141 281.462,163.105 281.956 C 163.487 282.151,164.443 282.625,165.228 283.008 C 167.846 284.285,168.930 287.983,167.181 289.669 C 166.571 290.257,166.176 290.842,166.303 290.969 C 166.429 291.096,166.273 291.200,165.955 291.200 C 165.637 291.200,165.112 291.578,164.788 292.041 C 164.109 293.011,158.000 299.233,158.000 298.954 C 158.000 298.852,157.749 299.001,157.442 299.284 C 157.135 299.568,156.952 299.912,157.034 300.050 C 157.117 300.187,156.716 300.637,156.143 301.050 C 155.571 301.462,154.899 302.038,154.651 302.329 C 154.141 302.926,153.115 303.965,152.329 304.681 C 151.191 305.716,150.771 306.430,151.042 306.868 C 151.230 307.172,151.065 307.258,150.551 307.124 C 149.077 306.738,148.761 307.825,150.196 308.344 C 151.796 308.923,168.895 308.958,167.983 308.381 C 167.502 308.077,167.527 308.011,168.124 308.006 C 168.522 308.003,168.736 307.820,168.600 307.600 C 168.464 307.380,168.644 307.200,169.000 307.200 C 169.356 307.200,169.536 307.020,169.400 306.800 C 169.264 306.580,169.534 306.400,170.000 306.400 C 170.466 306.400,170.737 306.222,170.603 306.005 C 170.457 305.769,170.638 305.716,171.049 305.874 C 171.571 306.075,171.678 305.981,171.490 305.490 C 171.306 305.010,171.410 304.906,171.890 305.090 C 172.381 305.278,172.475 305.171,172.274 304.649 C 172.116 304.238,172.169 304.057,172.405 304.203 C 172.622 304.337,172.800 304.248,172.800 304.005 C 172.800 303.124,174.637 301.677,175.292 302.043 C 175.634 302.235,176.309 302.452,176.790 302.526 C 177.272 302.599,177.828 302.916,178.027 303.230 C 178.305 303.670,178.389 303.680,178.394 303.271 C 178.399 302.865,178.539 302.882,179.002 303.345 C 179.334 303.677,180.009 304.074,180.502 304.228 C 180.996 304.382,181.532 304.709,181.694 304.954 C 181.897 305.262,181.990 305.238,181.994 304.876 C 181.997 304.588,182.180 304.464,182.400 304.600 C 182.620 304.736,182.803 304.612,182.806 304.324 C 182.811 303.943,182.918 303.964,183.200 304.400 C 183.419 304.740,183.590 304.798,183.594 304.535 C 183.597 304.278,184.046 304.119,184.600 304.180 C 185.150 304.241,185.600 304.135,185.600 303.945 C 185.600 303.755,185.870 303.600,186.200 303.600 C 186.530 303.600,186.800 303.439,186.800 303.243 C 186.800 303.046,187.095 302.772,187.457 302.634 C 188.027 302.415,188.042 302.475,187.575 303.091 C 187.279 303.481,187.633 303.217,188.362 302.504 C 189.091 301.791,189.811 301.283,189.961 301.376 C 190.111 301.469,190.263 301.155,190.299 300.678 C 190.335 300.202,190.521 299.760,190.712 299.696 C 190.902 299.633,190.988 299.000,190.901 298.290 C 190.780 297.300,190.841 297.139,191.166 297.600 C 191.509 298.087,191.589 298.009,191.594 297.180 C 191.597 296.619,191.825 295.675,192.100 295.083 L 192.600 294.006 199.956 294.003 C 207.925 294.000,208.356 294.117,208.387 296.300 C 208.394 296.795,208.580 297.200,208.800 297.200 C 209.020 297.200,209.200 297.539,209.200 297.954 C 209.200 298.369,209.461 299.211,209.780 299.826 C 210.098 300.440,210.268 301.091,210.156 301.271 C 210.044 301.452,210.154 301.600,210.400 301.600 C 210.646 301.600,210.748 301.761,210.626 301.958 C 210.336 302.428,211.434 302.839,212.197 302.546 C 212.542 302.413,212.901 302.597,213.048 302.981 C 213.188 303.347,213.550 303.551,213.852 303.436 C 214.153 303.320,214.400 303.451,214.400 303.727 C 214.400 304.004,214.789 304.259,215.264 304.295 C 215.739 304.331,216.234 304.504,216.364 304.680 C 216.752 305.206,218.406 305.236,218.298 304.716 C 218.241 304.437,218.694 304.233,219.400 304.221 C 220.060 304.209,220.740 303.982,220.911 303.717 C 221.081 303.451,221.516 303.346,221.876 303.485 C 222.315 303.653,222.436 303.581,222.242 303.268 C 222.049 302.956,222.302 302.800,223.000 302.800 C 223.596 302.800,223.941 302.628,223.800 302.400 C 223.422 301.788,225.834 301.918,226.348 302.537 C 226.593 302.832,226.750 303.147,226.697 303.237 C 226.643 303.327,226.669 303.361,226.753 303.314 C 226.837 303.266,227.257 303.673,227.685 304.217 C 228.114 304.762,228.657 305.088,228.894 304.942 C 229.149 304.785,229.207 304.864,229.038 305.138 C 228.881 305.392,228.973 305.600,229.243 305.600 C 229.513 305.600,229.623 305.710,229.489 305.844 C 229.202 306.131,231.067 307.742,232.142 308.135 C 232.623 308.312,232.795 308.635,232.632 309.060 C 232.432 309.581,232.494 309.620,232.937 309.252 C 233.316 308.937,236.309 308.777,242.347 308.747 C 249.184 308.713,251.200 308.588,251.200 308.198 C 251.200 307.920,250.840 307.599,250.400 307.484 C 249.960 307.369,249.600 306.977,249.600 306.614 C 249.600 306.250,249.420 306.064,249.200 306.200 C 248.980 306.336,248.800 306.156,248.800 305.800 C 248.800 305.444,248.644 305.249,248.453 305.367 C 248.013 305.639,246.706 304.227,247.066 303.868 C 247.213 303.720,247.023 303.600,246.643 303.600 C 246.263 303.600,246.064 303.420,246.200 303.200 C 246.336 302.980,246.231 302.800,245.967 302.800 C 245.395 302.800,243.200 300.582,243.200 300.004 C 243.200 299.782,243.035 299.600,242.834 299.600 C 242.443 299.600,239.600 296.960,239.600 296.597 C 239.600 295.412,228.455 285.600,227.109 285.600 C 226.279 285.600,225.600 285.780,225.600 286.000 C 225.600 286.220,225.240 286.400,224.800 286.400 C 224.360 286.400,224.000 286.580,224.000 286.800 C 224.000 287.020,223.640 287.200,223.200 287.200 C 222.760 287.200,222.400 287.359,222.400 287.553 C 222.400 287.748,221.936 287.995,221.369 288.104 C 220.328 288.303,219.392 287.108,219.909 286.238 C 220.027 286.039,219.916 286.005,219.662 286.162 C 219.360 286.348,219.200 286.101,219.200 285.447 C 219.200 284.897,219.020 284.336,218.800 284.200 C 218.580 284.064,218.400 283.413,218.400 282.753 C 218.400 282.093,218.239 281.652,218.042 281.774 C 217.845 281.896,217.581 281.726,217.454 281.398 C 217.095 280.460,183.623 280.504,182.189 281.444 C 181.187 282.101,180.079 280.899,180.709 279.838 C 180.827 279.639,180.716 279.605,180.462 279.762 C 180.170 279.942,180.000 279.744,180.000 279.224 C 180.000 278.771,179.820 278.400,179.600 278.400 C 179.380 278.400,179.200 278.130,179.200 277.800 C 179.200 277.470,179.041 277.200,178.847 277.200 C 178.652 277.200,178.382 276.885,178.246 276.500 C 178.111 276.115,177.908 275.616,177.797 275.391 C 177.685 275.166,178.219 274.013,178.982 272.828 C 179.745 271.644,180.276 270.523,180.161 270.337 C 180.047 270.152,180.143 270.000,180.376 270.000 C 180.609 270.000,180.803 269.415,180.806 268.700 C 180.811 267.714,180.906 267.545,181.200 268.000 C 181.460 268.403,181.586 266.759,181.582 263.000 C 181.577 259.002,181.459 257.600,181.168 258.100 C 180.809 258.716,180.063 258.800,174.980 258.800 L 169.200 258.800 169.147 260.100 L 169.095 261.400 168.800 260.000 C 168.527 258.705,168.501 258.759,168.453 260.724 C 168.420 262.026,168.245 262.752,168.000 262.600 C 167.780 262.464,167.600 262.530,167.600 262.747 C 167.600 262.964,167.915 263.224,168.300 263.324 C 168.837 263.465,168.856 263.518,168.380 263.554 C 168.040 263.579,167.532 264.232,167.253 265.004 C 166.723 266.469,165.199 267.543,163.442 267.688 C 162.901 267.733,162.545 267.912,162.652 268.085 C 162.760 268.258,131.877 268.400,94.024 268.400 C 40.761 268.400,25.200 268.291,25.200 267.920 C 25.200 267.547,25.093 267.547,24.720 267.920 C 24.456 268.184,24.051 268.397,23.820 268.394 C 23.589 268.391,23.670 268.213,24.000 268.000 C 24.516 267.666,24.505 267.611,23.919 267.606 C 22.895 267.597,21.195 266.731,21.436 266.342 C 21.552 266.154,21.477 266.000,21.269 266.000 C 20.709 266.000,19.513 263.265,19.841 262.734 C 20.011 262.458,19.947 262.386,19.678 262.552 C 19.368 262.743,19.192 261.818,19.098 259.513 C 19.024 257.691,18.926 256.785,18.881 257.500 M277.349 257.304 C 277.459 258.083,278.400 259.205,278.400 258.556 C 278.400 258.335,278.141 257.804,277.825 257.376 C 277.315 256.687,277.262 256.679,277.349 257.304 M348.769 256.900 C 348.546 257.629,348.530 258.368,348.737 258.340 C 349.472 258.243,350.000 258.445,350.000 258.824 C 350.000 259.057,349.824 259.139,349.610 259.006 C 349.139 258.715,333.661 258.515,333.681 258.800 C 333.759 259.916,333.529 260.041,332.846 259.253 C 332.224 258.536,332.051 258.489,331.860 258.987 C 331.725 259.339,331.831 259.551,332.114 259.495 C 332.381 259.443,332.540 259.670,332.467 260.000 C 332.393 260.330,332.462 260.471,332.619 260.314 C 332.777 260.157,333.259 260.217,333.690 260.448 C 334.391 260.823,334.445 260.768,334.193 259.934 C 333.950 259.133,333.988 259.083,334.455 259.582 C 334.755 259.902,335.270 260.397,335.600 260.683 C 336.129 261.141,336.125 261.176,335.564 260.983 C 335.214 260.862,334.689 261.052,334.396 261.404 C 333.950 261.942,333.956 262.025,334.432 261.923 C 334.745 261.855,334.955 262.025,334.900 262.300 C 334.845 262.575,335.025 262.755,335.300 262.700 C 335.575 262.645,335.745 262.855,335.677 263.168 C 335.575 263.640,335.661 263.648,336.187 263.211 C 336.722 262.767,336.781 262.784,336.575 263.322 C 336.259 264.144,339.008 266.959,339.821 266.647 C 340.140 266.525,340.400 266.612,340.400 266.841 C 340.400 267.070,340.672 267.529,341.004 267.861 C 341.336 268.193,341.488 268.658,341.342 268.894 C 341.192 269.137,341.263 269.208,341.506 269.058 C 342.035 268.731,343.296 269.920,342.974 270.442 C 342.846 270.650,342.979 270.770,343.270 270.710 C 343.562 270.649,343.755 270.825,343.700 271.100 C 343.645 271.375,343.881 271.600,344.224 271.600 C 344.593 271.600,344.731 271.788,344.562 272.062 C 344.400 272.324,344.451 272.416,344.680 272.274 C 345.199 271.953,346.906 273.750,346.504 274.194 C 346.337 274.378,346.393 274.419,346.629 274.285 C 347.129 274.000,348.462 275.404,348.067 275.800 C 347.920 275.946,348.070 276.007,348.400 275.933 C 348.730 275.860,348.955 276.025,348.900 276.300 C 348.845 276.575,348.962 276.755,349.160 276.700 C 349.358 276.645,349.527 276.758,349.535 276.951 C 349.543 277.143,349.966 277.518,350.475 277.783 C 350.984 278.048,351.355 278.476,351.300 278.733 C 351.245 278.990,351.425 279.155,351.700 279.100 C 351.975 279.045,352.155 279.225,352.100 279.500 C 352.045 279.775,352.281 280.000,352.624 280.000 C 352.967 280.000,353.149 280.160,353.028 280.355 C 352.908 280.550,353.167 280.803,353.604 280.917 C 354.042 281.031,354.400 281.423,354.400 281.786 C 354.400 282.150,354.580 282.336,354.800 282.200 C 355.020 282.064,355.200 282.233,355.200 282.576 C 355.200 282.919,355.425 283.155,355.700 283.100 C 355.975 283.045,356.155 283.225,356.100 283.500 C 356.045 283.775,356.225 283.955,356.500 283.900 C 356.775 283.845,356.955 284.025,356.900 284.300 C 356.845 284.575,357.025 284.755,357.300 284.700 C 357.575 284.645,357.755 284.825,357.700 285.100 C 357.645 285.375,357.825 285.555,358.100 285.500 C 358.375 285.445,358.555 285.625,358.500 285.900 C 358.445 286.175,358.625 286.355,358.900 286.300 C 359.175 286.245,359.351 286.438,359.290 286.730 C 359.230 287.021,359.341 287.160,359.537 287.039 C 360.009 286.747,361.288 288.179,360.901 288.566 C 360.735 288.731,360.870 288.807,361.200 288.733 C 361.532 288.660,361.751 288.836,361.690 289.130 C 361.630 289.421,361.744 289.558,361.945 289.434 C 362.417 289.142,363.286 290.180,362.897 290.570 C 362.733 290.733,362.870 290.807,363.200 290.733 C 363.530 290.660,363.755 290.825,363.700 291.100 C 363.645 291.375,363.825 291.555,364.100 291.500 C 364.375 291.445,364.555 291.625,364.500 291.900 C 364.445 292.175,364.625 292.355,364.900 292.300 C 365.175 292.245,365.355 292.425,365.300 292.700 C 365.245 292.975,365.425 293.155,365.700 293.100 C 365.975 293.045,366.155 293.225,366.100 293.500 C 366.045 293.775,366.225 293.955,366.500 293.900 C 366.775 293.845,366.955 294.025,366.900 294.300 C 366.845 294.575,367.160 294.800,367.600 294.800 C 368.316 294.800,368.587 295.216,368.447 296.100 C 368.421 296.265,368.625 296.355,368.900 296.300 C 369.175 296.245,369.349 296.442,369.288 296.737 C 369.226 297.033,369.404 297.199,369.683 297.106 C 370.217 296.928,371.600 298.412,371.600 299.163 C 371.600 299.403,371.825 299.555,372.100 299.500 C 372.375 299.445,372.551 299.638,372.490 299.930 C 372.430 300.221,372.556 300.351,372.770 300.218 C 373.256 299.918,377.704 304.308,377.405 304.792 C 377.285 304.986,377.370 305.258,377.593 305.396 C 377.817 305.534,378.000 305.337,378.000 304.957 C 378.000 304.159,378.418 304.438,378.548 305.323 C 378.596 305.651,378.897 306.242,379.218 306.636 C 379.562 307.060,379.597 307.232,379.305 307.056 C 378.971 306.856,378.885 306.956,379.042 307.364 C 379.259 307.931,380.208 308.411,381.600 308.657 C 382.836 308.876,393.665 308.868,393.885 308.648 C 394.011 308.522,393.886 308.145,393.608 307.810 C 393.245 307.373,393.233 307.200,393.565 307.200 C 393.899 307.200,393.913 306.984,393.614 306.426 C 393.386 306.001,393.200 305.180,393.200 304.603 C 393.200 304.005,393.028 303.659,392.800 303.800 C 392.573 303.940,392.400 303.604,392.400 303.024 C 392.400 302.461,392.220 302.000,392.000 302.000 C 391.780 302.000,391.600 301.449,391.600 300.776 C 391.600 299.944,391.450 299.645,391.132 299.842 C 390.817 300.036,390.748 299.913,390.919 299.466 C 391.091 299.018,390.968 298.800,390.545 298.800 C 390.149 298.800,390.000 298.577,390.145 298.200 C 390.271 297.870,390.201 297.600,389.987 297.600 C 389.774 297.600,389.600 297.330,389.600 297.000 C 389.600 296.670,389.319 296.400,388.976 296.400 C 388.633 296.400,388.433 296.265,388.530 296.100 C 388.756 295.718,386.134 293.200,385.828 293.505 C 385.609 293.724,385.444 292.955,385.563 292.270 C 385.594 292.089,385.448 292.047,385.237 292.177 C 385.027 292.307,384.601 292.052,384.291 291.609 C 383.982 291.167,383.609 290.924,383.464 291.069 C 383.216 291.317,383.036 290.601,383.163 289.870 C 383.194 289.689,383.050 289.646,382.842 289.774 C 382.350 290.078,381.122 288.850,381.426 288.358 C 381.554 288.150,381.421 288.030,381.130 288.090 C 380.838 288.151,380.649 287.962,380.710 287.670 C 380.770 287.379,380.648 287.247,380.439 287.376 C 380.229 287.506,378.954 286.529,377.606 285.206 C 376.258 283.883,375.225 282.800,375.311 282.800 C 375.397 282.800,374.192 281.493,372.634 279.896 C 371.075 278.299,369.665 277.050,369.500 277.120 C 369.335 277.190,369.200 276.956,369.200 276.600 C 369.200 276.244,369.020 276.064,368.800 276.200 C 368.433 276.427,368.222 275.880,368.363 275.070 C 368.394 274.889,368.235 274.855,368.010 274.994 C 367.784 275.133,367.600 275.027,367.600 274.757 C 367.600 274.487,367.483 274.383,367.341 274.526 C 366.960 274.906,365.572 273.169,365.870 272.687 C 366.010 272.461,365.930 272.396,365.694 272.542 C 365.135 272.888,363.912 271.665,364.258 271.106 C 364.408 270.863,364.337 270.792,364.094 270.942 C 363.565 271.269,362.304 270.080,362.626 269.558 C 362.754 269.350,362.711 269.206,362.530 269.237 C 361.720 269.378,361.173 269.167,361.400 268.800 C 361.536 268.580,361.356 268.400,361.000 268.400 C 360.644 268.400,360.464 268.220,360.600 268.000 C 360.736 267.780,360.567 267.600,360.224 267.600 C 359.881 267.600,359.600 267.432,359.600 267.227 C 359.600 267.022,359.244 266.741,358.808 266.603 C 358.373 266.464,358.058 266.137,358.108 265.876 C 358.159 265.614,357.975 265.445,357.700 265.500 C 357.425 265.555,357.245 265.438,357.300 265.240 C 357.355 265.042,357.220 264.838,357.000 264.786 C 356.780 264.735,356.348 264.312,356.040 263.846 C 354.581 261.645,353.074 260.406,352.465 260.909 C 351.948 261.335,351.932 261.281,352.344 260.509 C 352.745 259.757,352.724 259.654,352.209 259.852 C 351.874 259.980,351.600 260.276,351.600 260.509 C 351.600 260.743,351.492 260.825,351.360 260.693 C 351.228 260.561,351.268 260.216,351.449 259.927 C 352.145 258.812,351.935 258.215,351.174 259.144 C 350.748 259.664,350.400 259.899,350.400 259.668 C 350.400 259.437,350.580 259.136,350.800 259.000 C 351.020 258.864,351.200 258.573,351.200 258.353 C 351.200 258.133,351.020 258.064,350.800 258.200 C 350.580 258.336,350.400 258.186,350.400 257.866 C 350.400 257.290,348.919 256.412,348.769 256.900 M217.500 257.876 C 216.697 258.086,216.587 258.621,217.262 259.038 C 217.575 259.232,217.615 259.143,217.385 258.762 C 217.097 258.283,217.147 258.281,217.723 258.749 C 218.319 259.232,218.400 259.196,218.400 258.449 C 218.400 257.982,218.355 257.621,218.300 257.646 C 218.245 257.672,217.885 257.775,217.500 257.876 M193.600 264.000 L 193.600 269.200 201.829 269.200 C 210.201 269.200,211.200 269.030,211.200 267.605 C 211.200 267.356,211.408 267.281,211.662 267.438 C 211.936 267.607,212.015 267.549,211.858 267.294 C 211.712 267.058,211.819 266.625,212.096 266.332 C 213.189 265.178,214.992 262.583,214.899 262.300 C 214.844 262.135,215.027 262.000,215.304 262.000 C 215.900 262.000,216.965 260.431,216.610 260.076 C 216.474 259.941,216.012 260.050,215.582 260.319 C 214.535 260.972,214.586 260.479,215.661 259.547 C 216.505 258.815,216.292 258.800,205.061 258.800 L 193.600 258.800 193.600 264.000 M279.067 259.067 C 278.941 259.192,279.108 259.565,279.438 259.895 C 279.768 260.225,280.141 260.392,280.267 260.267 C 280.392 260.141,280.225 259.768,279.895 259.438 C 279.565 259.108,279.192 258.941,279.067 259.067 M281.101 259.261 C 281.417 259.577,281.439 259.954,281.170 260.455 C 280.857 261.041,281.063 261.491,282.193 262.694 C 283.134 263.696,283.522 263.932,283.350 263.400 C 283.125 262.700,283.162 262.675,283.646 263.200 C 283.951 263.530,284.470 264.051,284.800 264.359 C 285.326 264.849,285.304 264.884,284.622 264.642 C 283.864 264.372,283.863 264.386,284.584 265.183 C 285.415 266.100,285.795 266.256,285.359 265.500 C 285.201 265.225,285.550 265.436,286.135 265.970 C 287.269 267.002,287.522 267.441,286.700 266.947 C 286.363 266.744,286.379 266.868,286.751 267.326 C 287.054 267.700,287.774 268.232,288.351 268.508 C 288.928 268.785,289.400 269.278,289.400 269.605 C 289.400 269.932,289.805 270.378,290.300 270.595 C 290.795 270.812,291.200 271.205,291.200 271.468 C 291.200 271.731,291.560 272.060,292.000 272.200 C 292.440 272.340,292.800 272.722,292.800 273.051 C 292.800 273.379,292.954 273.552,293.142 273.436 C 293.329 273.320,293.685 273.669,293.933 274.213 C 294.180 274.756,294.667 275.200,295.015 275.200 C 295.363 275.200,295.536 275.380,295.400 275.600 C 295.264 275.820,295.421 276.000,295.749 276.000 C 296.078 276.000,296.460 276.360,296.600 276.800 C 296.740 277.240,297.112 277.600,297.427 277.600 C 297.742 277.600,298.000 277.881,298.000 278.224 C 298.000 278.567,298.180 278.736,298.400 278.600 C 298.620 278.464,298.800 278.633,298.800 278.976 C 298.800 279.319,298.946 279.555,299.123 279.500 C 299.565 279.363,305.989 285.878,305.699 286.168 C 305.571 286.296,305.767 286.400,306.133 286.400 C 306.500 286.400,306.755 286.552,306.700 286.739 C 306.589 287.115,309.104 289.600,309.596 289.600 C 309.767 289.600,310.001 289.960,310.116 290.399 C 310.231 290.838,310.747 291.367,311.262 291.574 C 311.778 291.780,312.059 291.961,311.887 291.975 C 311.714 291.989,312.206 292.633,312.980 293.407 C 313.754 294.180,314.502 294.799,314.644 294.781 C 314.785 294.764,315.103 295.146,315.351 295.630 C 315.598 296.114,315.958 296.474,316.151 296.430 C 316.343 296.386,316.707 296.766,316.958 297.275 C 317.209 297.784,317.816 298.378,318.307 298.595 C 318.798 298.812,319.200 299.223,319.200 299.507 C 319.200 299.792,319.515 300.136,319.900 300.272 C 320.930 300.636,322.408 302.063,322.164 302.458 C 322.048 302.646,322.244 302.800,322.600 302.800 C 322.956 302.800,323.136 302.980,323.000 303.200 C 322.864 303.420,322.988 303.606,323.276 303.613 C 324.145 303.635,325.687 305.136,325.369 305.651 C 325.186 305.946,325.248 306.017,325.535 305.840 C 326.088 305.498,328.052 307.360,327.905 308.086 C 327.789 308.653,345.556 309.091,346.773 308.551 C 347.118 308.398,347.565 308.312,347.768 308.359 C 347.970 308.406,347.905 308.167,347.622 307.827 C 347.340 307.487,346.945 307.310,346.745 307.434 C 346.544 307.558,346.430 307.421,346.490 307.130 C 346.551 306.838,346.375 306.645,346.100 306.700 C 345.825 306.755,345.645 306.575,345.700 306.300 C 345.755 306.025,345.575 305.845,345.300 305.900 C 345.025 305.955,344.845 305.775,344.900 305.500 C 344.955 305.225,344.775 305.045,344.500 305.100 C 344.225 305.155,344.045 305.065,344.100 304.900 C 344.155 304.735,344.106 304.600,343.992 304.600 C 343.439 304.600,339.353 300.136,339.508 299.700 C 339.606 299.425,339.392 299.200,339.033 299.200 C 338.674 299.200,338.205 298.739,337.991 298.176 C 337.777 297.613,337.421 297.263,337.201 297.400 C 336.980 297.536,336.800 297.356,336.800 297.000 C 336.800 296.644,336.639 296.452,336.442 296.574 C 336.040 296.822,331.884 292.878,331.200 291.600 C 330.958 291.148,330.584 290.886,330.370 291.019 C 330.156 291.151,330.030 291.021,330.090 290.730 C 330.151 290.438,329.975 290.245,329.700 290.300 C 329.425 290.355,329.245 290.242,329.300 290.049 C 329.423 289.618,326.964 287.200,326.404 287.200 C 326.182 287.200,326.000 287.012,326.000 286.783 C 326.000 286.007,322.125 281.959,314.817 275.100 C 312.766 273.175,310.933 271.600,310.744 271.600 C 310.555 271.600,310.400 271.342,310.400 271.027 C 310.400 270.712,310.040 270.340,309.600 270.200 C 309.160 270.060,308.797 269.733,308.794 269.473 C 308.782 268.611,302.704 262.307,302.384 262.826 C 302.060 263.350,300.208 261.528,300.191 260.668 C 300.186 260.411,299.871 260.253,299.491 260.318 C 299.111 260.382,298.800 260.247,298.800 260.018 C 298.800 259.788,298.609 259.600,298.376 259.600 C 298.143 259.600,298.064 259.780,298.200 260.000 C 298.667 260.756,297.776 260.400,297.200 259.600 C 296.657 258.846,296.165 258.800,288.632 258.800 C 282.596 258.800,280.753 258.913,281.101 259.261 M30.976 300.100 L 31.000 306.600 37.500 306.600 L 44.000 306.600 44.000 300.100 L 44.000 293.600 37.476 293.600 L 30.952 293.600 30.976 300.100 M56.090 299.900 L 56.200 306.200 62.600 306.200 L 69.000 306.200 69.110 299.900 L 69.220 293.600 62.600 293.600 L 55.980 293.600 56.090 299.900 M80.976 300.100 L 81.000 306.600 87.500 306.600 L 94.000 306.600 94.000 300.100 L 94.000 293.600 87.476 293.600 L 80.952 293.600 80.976 300.100 M192.968 306.451 C 192.850 306.643,192.393 306.800,191.953 306.800 C 191.513 306.800,191.254 306.964,191.378 307.165 C 191.649 307.602,190.824 307.518,190.038 307.027 C 189.653 306.787,189.566 306.822,189.762 307.138 C 189.924 307.401,189.812 307.600,189.500 307.600 C 189.199 307.600,188.615 307.847,188.201 308.150 C 187.557 308.621,189.107 308.710,199.088 308.772 C 206.015 308.815,210.820 308.692,210.958 308.467 C 211.198 308.079,209.786 307.466,208.900 307.574 C 208.625 307.608,208.400 307.437,208.400 307.194 C 208.400 306.951,208.209 306.871,207.975 307.016 C 207.741 307.160,207.182 306.946,206.733 306.539 C 205.753 305.653,205.891 305.664,204.985 306.400 C 204.579 306.730,204.374 306.788,204.529 306.529 C 204.924 305.871,196.895 305.824,196.104 306.479 C 195.765 306.761,195.431 306.799,195.270 306.574 C 194.920 306.089,193.247 306.000,192.968 306.451 M214.201 309.598 C 213.814 310.224,214.864 310.508,215.439 309.932 C 215.922 309.450,215.889 309.362,215.208 309.311 C 214.772 309.278,214.319 309.407,214.201 309.598 M330.400 310.600 C 330.400 310.930,330.580 311.200,330.800 311.200 C 331.020 311.200,331.200 310.930,331.200 310.600 C 331.200 310.270,331.020 310.000,330.800 310.000 C 330.580 310.000,330.400 310.270,330.400 310.600 " stroke="none" fill="#7454f4" fill-rule="evenodd"></path><path id="path4" d="M46.682 109.469 C 46.781 109.727,47.158 110.052,47.520 110.191 C 48.077 110.405,48.090 110.497,47.602 110.799 C 47.251 111.015,46.787 110.987,46.413 110.725 C 46.076 110.489,46.393 110.864,47.117 111.558 C 47.854 112.263,48.312 113.019,48.156 113.272 C 47.995 113.532,48.054 113.614,48.296 113.464 C 48.527 113.321,48.827 113.494,48.963 113.848 C 49.115 114.244,49.503 114.414,49.973 114.291 C 50.528 114.146,50.801 114.349,50.973 115.034 C 51.103 115.553,51.612 116.189,52.105 116.448 C 52.597 116.708,53.090 117.028,53.200 117.161 C 53.644 117.695,56.224 118.661,58.200 119.033 C 58.420 119.074,65.035 119.128,72.900 119.154 L 87.200 119.200 87.200 131.400 L 87.200 143.600 53.700 143.610 C 22.715 143.618,17.504 143.768,16.841 144.671 C 16.709 144.852,16.330 145.058,16.000 145.130 C 15.670 145.201,14.995 145.638,14.500 146.100 C 14.005 146.562,13.600 146.794,13.600 146.617 C 13.600 146.439,12.610 147.308,11.400 148.547 C 10.190 149.787,9.200 150.988,9.200 151.217 C 9.200 151.446,8.840 152.020,8.400 152.492 C 7.960 152.964,7.600 153.587,7.600 153.875 C 7.600 154.164,7.420 154.400,7.200 154.400 C 6.980 154.400,6.800 154.929,6.800 155.576 C 6.800 156.223,6.620 156.864,6.400 157.000 C 6.141 157.160,6.000 165.137,6.000 179.624 C 6.000 194.275,6.138 202.000,6.400 202.000 C 6.620 202.000,6.800 201.830,6.800 201.621 C 6.800 201.400,9.260 201.239,12.700 201.233 C 15.945 201.228,18.780 201.219,19.000 201.212 C 19.263 201.204,19.361 194.538,19.285 181.800 C 19.208 168.605,19.303 162.400,19.585 162.400 C 19.813 162.400,20.000 161.852,20.000 161.183 C 20.000 159.596,21.326 158.214,23.600 157.431 C 26.072 156.580,160.687 156.479,163.519 157.326 C 166.064 158.087,167.600 159.506,167.600 161.096 C 167.600 161.813,167.780 162.400,168.000 162.400 C 168.261 162.400,168.400 168.933,168.400 181.200 C 168.400 193.467,168.261 200.000,168.000 200.000 C 167.780 200.000,167.600 200.264,167.600 200.587 C 167.600 200.945,167.835 201.085,168.200 200.945 C 168.596 200.793,168.811 200.967,168.832 201.457 C 168.851 201.909,168.945 201.997,169.071 201.682 C 169.229 201.287,170.664 201.178,175.091 201.222 C 179.584 201.268,180.981 201.158,181.249 200.740 C 181.738 199.976,181.677 156.800,181.187 156.800 C 180.974 156.800,180.800 156.260,180.800 155.600 C 180.800 154.940,180.620 154.400,180.400 154.400 C 180.180 154.400,180.000 154.029,180.000 153.576 C 180.000 153.123,179.820 152.864,179.600 153.000 C 179.380 153.136,179.200 152.967,179.200 152.624 C 179.200 152.281,179.020 152.000,178.800 152.000 C 178.580 152.000,178.400 151.775,178.400 151.499 C 178.400 150.937,174.363 146.500,173.907 146.561 C 173.745 146.582,173.134 146.240,172.548 145.800 C 171.962 145.360,171.374 144.984,171.241 144.964 C 171.109 144.944,170.331 144.629,169.513 144.264 C 168.165 143.662,164.850 143.600,134.213 143.600 L 100.400 143.600 100.400 131.400 L 100.400 119.200 114.500 119.152 C 122.255 119.125,129.000 119.100,129.489 119.096 C 129.979 119.092,130.283 118.934,130.166 118.745 C 130.049 118.555,130.323 118.373,130.776 118.340 C 131.229 118.307,131.825 118.262,132.100 118.240 C 132.375 118.218,132.733 117.995,132.895 117.745 C 133.057 117.494,133.665 117.170,134.246 117.024 C 135.605 116.683,138.076 115.010,137.731 114.665 C 137.586 114.519,137.687 114.400,137.957 114.400 C 138.227 114.400,138.352 114.246,138.236 114.058 C 138.120 113.871,138.489 113.506,139.056 113.247 C 139.823 112.898,140.032 112.565,139.871 111.949 C 139.752 111.494,139.756 111.222,139.880 111.346 C 140.247 111.714,141.600 110.820,141.600 110.210 C 141.600 109.900,141.392 109.519,141.138 109.362 C 140.825 109.168,140.785 109.257,141.015 109.638 C 141.292 110.099,141.243 110.110,140.740 109.703 C 139.870 109.000,46.412 108.767,46.682 109.469 M296.682 109.469 C 296.781 109.727,297.158 110.052,297.520 110.191 C 298.077 110.405,298.090 110.497,297.602 110.799 C 297.251 111.015,296.787 110.987,296.413 110.725 C 296.076 110.489,296.393 110.864,297.117 111.558 C 297.854 112.263,298.312 113.019,298.156 113.272 C 297.995 113.532,298.054 113.614,298.296 113.464 C 298.527 113.321,298.827 113.494,298.963 113.848 C 299.115 114.244,299.503 114.414,299.973 114.291 C 300.528 114.146,300.801 114.349,300.973 115.034 C 301.103 115.553,301.612 116.189,302.105 116.448 C 302.597 116.708,303.090 117.028,303.200 117.161 C 303.455 117.468,305.010 118.151,306.790 118.739 C 308.588 119.333,380.559 119.381,380.193 118.788 C 380.061 118.575,380.323 118.373,380.776 118.340 C 381.229 118.307,381.825 118.262,382.100 118.240 C 382.375 118.218,382.733 117.995,382.895 117.745 C 383.057 117.494,383.665 117.170,384.246 117.024 C 385.605 116.683,388.076 115.010,387.731 114.665 C 387.586 114.519,387.687 114.400,387.957 114.400 C 388.227 114.400,388.352 114.246,388.236 114.058 C 388.120 113.871,388.489 113.506,389.056 113.247 C 389.823 112.898,390.032 112.565,389.871 111.949 C 389.752 111.494,389.756 111.222,389.880 111.346 C 390.247 111.714,391.600 110.820,391.600 110.210 C 391.600 109.900,391.392 109.519,391.138 109.362 C 390.825 109.168,390.785 109.257,391.015 109.638 C 391.292 110.099,391.243 110.110,390.740 109.703 C 389.870 109.000,296.412 108.767,296.682 109.469 M171.843 109.833 C 171.479 110.781,171.561 111.079,172.000 110.400 C 172.233 110.039,172.390 109.990,172.394 110.276 C 172.397 110.538,172.214 110.868,171.987 111.008 C 171.744 111.158,171.983 111.586,172.563 112.042 C 173.107 112.471,173.671 113.193,173.815 113.647 C 173.995 114.215,174.315 114.411,174.838 114.274 C 175.257 114.165,175.717 114.266,175.861 114.499 C 176.029 114.771,175.922 114.806,175.562 114.595 C 175.253 114.415,175.720 114.972,176.600 115.834 C 177.480 116.695,178.595 117.425,179.077 117.456 C 179.559 117.487,180.482 117.889,181.128 118.349 C 182.434 119.279,255.965 119.714,255.393 118.788 C 255.261 118.575,255.487 118.400,255.896 118.400 C 256.305 118.400,256.856 118.184,257.120 117.920 C 257.493 117.547,257.600 117.564,257.600 117.996 C 257.600 118.382,257.765 118.327,258.139 117.815 C 258.436 117.410,258.853 117.186,259.066 117.317 C 259.280 117.449,259.707 117.207,260.015 116.779 C 260.324 116.350,260.710 116.000,260.873 116.000 C 261.431 116.000,266.041 111.190,265.823 110.837 C 265.703 110.643,265.904 110.369,266.269 110.229 C 266.789 110.029,266.828 109.868,266.450 109.490 C 266.072 109.112,265.884 109.137,265.589 109.603 C 265.338 110.002,265.210 110.034,265.206 109.700 C 265.196 108.848,172.170 108.980,171.843 109.833 M298.767 143.763 C 298.675 143.852,297.520 144.028,296.200 144.153 C 294.102 144.353,290.333 144.938,289.795 145.149 C 289.131 145.409,288.429 145.569,287.200 145.744 C 285.354 146.005,283.570 146.454,278.100 148.033 C 277.275 148.271,276.105 148.561,275.500 148.678 C 274.895 148.795,274.400 149.050,274.400 149.245 C 274.400 149.440,273.961 149.600,273.424 149.600 C 272.887 149.600,272.336 149.780,272.200 150.000 C 272.064 150.220,271.513 150.400,270.976 150.400 C 270.439 150.400,270.000 150.580,270.000 150.800 C 270.000 151.020,269.561 151.200,269.024 151.200 C 268.487 151.200,267.936 151.380,267.800 151.600 C 267.664 151.820,267.203 152.000,266.776 152.000 C 266.349 152.000,266.000 152.180,266.000 152.400 C 266.000 152.620,265.651 152.800,265.224 152.800 C 264.797 152.800,264.336 152.980,264.200 153.200 C 264.064 153.420,263.603 153.600,263.176 153.600 C 262.749 153.600,262.400 153.780,262.400 154.000 C 262.400 154.220,262.128 154.400,261.795 154.400 C 261.239 154.400,259.678 155.122,259.200 155.600 C 258.722 156.078,257.161 156.800,256.605 156.800 C 256.272 156.800,256.000 156.980,256.000 157.200 C 256.000 157.420,255.629 157.600,255.176 157.600 C 254.723 157.600,254.445 157.750,254.558 157.932 C 254.671 158.115,254.142 158.509,253.382 158.807 C 252.622 159.105,252.000 159.496,252.000 159.675 C 252.000 159.854,251.640 160.000,251.200 160.000 C 250.760 160.000,250.400 160.168,250.400 160.373 C 250.400 160.578,250.023 160.866,249.562 161.012 C 248.577 161.325,245.060 163.625,244.867 164.084 C 244.793 164.258,244.518 164.400,244.255 164.400 C 243.992 164.400,243.517 164.760,243.200 165.200 C 242.883 165.640,242.375 166.000,242.072 166.000 C 241.769 166.000,241.017 166.540,240.400 167.200 C 239.783 167.860,239.081 168.400,238.840 168.400 C 238.598 168.400,238.400 168.580,238.400 168.800 C 238.400 169.020,238.206 169.200,237.969 169.200 C 237.731 169.200,236.846 169.920,236.000 170.800 C 235.154 171.680,234.269 172.400,234.031 172.400 C 233.794 172.400,233.600 172.580,233.600 172.800 C 233.600 173.020,233.453 173.200,233.274 173.200 C 232.912 173.200,227.431 178.509,225.132 181.086 C 224.325 181.991,223.560 182.627,223.432 182.499 C 223.304 182.371,223.200 182.567,223.200 182.933 C 223.200 183.300,223.020 183.600,222.800 183.600 C 222.580 183.600,222.400 183.798,222.400 184.040 C 222.400 184.281,221.860 184.983,221.200 185.600 C 220.540 186.217,220.000 186.929,220.000 187.184 C 220.000 187.439,219.833 187.544,219.629 187.418 C 219.425 187.292,219.140 187.560,218.996 188.014 C 218.851 188.468,218.103 189.471,217.332 190.241 C 216.516 191.058,216.023 191.884,216.153 192.221 C 216.275 192.540,216.188 192.800,215.959 192.800 C 215.730 192.800,215.273 193.070,214.943 193.400 C 214.613 193.730,214.437 194.000,214.552 194.000 C 214.668 194.000,214.332 194.464,213.806 195.032 C 213.238 195.644,212.948 196.321,213.093 196.697 C 213.254 197.117,213.178 197.234,212.868 197.042 C 212.611 196.883,212.400 196.916,212.400 197.115 C 212.400 197.315,212.040 197.893,211.600 198.400 C 210.619 199.531,210.604 199.841,211.500 200.386 C 212.059 200.725,211.967 200.758,211.048 200.549 C 210.205 200.357,209.942 200.425,210.067 200.800 C 210.197 201.191,212.040 201.323,217.819 201.356 C 221.988 201.380,225.715 201.554,226.100 201.743 C 226.650 202.012,226.800 201.911,226.800 201.266 C 226.800 200.816,226.983 200.334,227.207 200.196 C 227.430 200.058,227.517 199.790,227.400 199.600 C 227.283 199.410,227.398 199.125,227.655 198.966 C 227.948 198.785,228.016 198.850,227.838 199.138 C 227.446 199.773,227.938 199.719,228.603 199.054 C 228.903 198.754,229.013 198.349,228.847 198.154 C 228.682 197.959,228.963 197.401,229.473 196.914 C 229.983 196.427,230.400 196.120,230.400 196.232 C 230.400 196.608,232.380 194.461,232.491 193.966 C 232.551 193.697,233.093 192.993,233.695 192.400 C 234.297 191.808,234.657 191.190,234.495 191.028 C 234.333 190.866,234.384 190.793,234.608 190.867 C 235.062 191.015,235.917 190.367,237.525 188.656 C 240.834 185.135,242.845 183.200,243.196 183.200 C 243.415 183.200,243.818 182.840,244.093 182.400 C 244.368 181.960,244.731 181.600,244.900 181.600 C 245.069 181.600,245.772 181.060,246.463 180.400 C 247.154 179.740,247.973 179.200,248.283 179.200 C 248.593 179.200,248.736 179.020,248.600 178.800 C 248.464 178.580,248.594 178.400,248.888 178.400 C 249.183 178.400,249.683 178.040,250.000 177.600 C 250.317 177.160,250.773 176.800,251.013 176.800 C 251.253 176.800,251.803 176.485,252.235 176.100 C 252.668 175.715,253.684 175.061,254.492 174.647 C 255.301 174.233,256.324 173.558,256.765 173.147 C 257.206 172.736,257.844 172.400,258.183 172.400 C 258.522 172.400,258.800 172.242,258.800 172.049 C 258.800 171.855,259.340 171.473,260.000 171.200 C 260.660 170.927,261.200 170.545,261.200 170.351 C 261.200 170.158,261.560 170.000,262.000 170.000 C 262.440 170.000,262.800 169.820,262.800 169.600 C 262.800 169.380,263.160 169.200,263.600 169.200 C 264.040 169.200,264.401 169.065,264.403 168.900 C 264.407 168.541,266.344 167.600,267.080 167.600 C 267.366 167.600,267.600 167.420,267.600 167.200 C 267.600 166.980,267.960 166.800,268.400 166.800 C 268.840 166.800,269.200 166.620,269.200 166.400 C 269.200 166.180,269.650 166.000,270.200 166.000 C 270.750 166.000,271.200 165.820,271.200 165.600 C 271.200 165.380,271.549 165.200,271.976 165.200 C 272.403 165.200,272.864 165.020,273.000 164.800 C 273.136 164.580,273.597 164.400,274.024 164.400 C 274.451 164.400,274.800 164.220,274.800 164.000 C 274.800 163.780,275.250 163.600,275.800 163.600 C 276.350 163.600,276.800 163.420,276.800 163.200 C 276.800 162.980,277.340 162.800,278.000 162.800 C 278.660 162.800,279.200 162.620,279.200 162.400 C 279.200 162.180,279.639 162.000,280.176 162.000 C 280.713 162.000,281.264 161.820,281.400 161.600 C 281.536 161.380,282.177 161.200,282.824 161.200 C 283.471 161.200,284.000 161.020,284.000 160.800 C 284.000 160.580,284.720 160.400,285.600 160.400 C 286.480 160.400,287.200 160.220,287.200 160.000 C 287.200 159.780,287.909 159.600,288.776 159.600 C 289.643 159.600,290.449 159.444,290.568 159.252 C 290.686 159.061,292.271 158.761,294.091 158.584 C 298.684 158.139,298.489 158.164,299.600 157.866 C 300.150 157.719,302.400 157.526,304.600 157.438 C 306.800 157.351,310.805 157.143,313.500 156.978 L 318.400 156.677 318.400 169.539 L 318.400 182.400 317.424 182.400 C 316.887 182.400,316.336 182.580,316.200 182.800 C 316.064 183.020,315.524 183.200,315.000 183.200 C 314.476 183.200,313.936 183.380,313.800 183.600 C 313.664 183.820,313.128 184.000,312.610 184.000 C 312.091 184.000,311.605 184.184,311.530 184.409 C 311.456 184.633,310.721 184.842,309.897 184.873 C 309.074 184.904,308.400 185.080,308.400 185.265 C 308.400 185.449,307.961 185.600,307.424 185.600 C 306.887 185.600,306.336 185.780,306.200 186.000 C 306.064 186.220,305.423 186.400,304.776 186.400 C 304.129 186.400,303.600 186.580,303.600 186.800 C 303.600 187.020,303.049 187.200,302.376 187.200 C 301.663 187.200,301.256 187.367,301.400 187.600 C 301.549 187.842,301.004 188.000,300.024 188.000 C 299.131 188.000,298.400 188.180,298.400 188.400 C 298.400 188.620,297.961 188.800,297.424 188.800 C 296.887 188.800,296.336 188.980,296.200 189.200 C 296.064 189.420,295.423 189.600,294.776 189.600 C 294.129 189.600,293.600 189.780,293.600 190.000 C 293.600 190.220,293.240 190.400,292.800 190.400 C 292.360 190.400,292.000 190.580,292.000 190.800 C 292.000 191.020,291.460 191.200,290.800 191.200 C 290.140 191.200,289.600 191.380,289.600 191.600 C 289.600 191.820,289.060 192.000,288.400 192.000 C 287.740 192.000,287.200 192.180,287.200 192.400 C 287.200 192.620,286.840 192.800,286.400 192.800 C 285.960 192.800,285.600 192.959,285.600 193.153 C 285.600 193.541,284.013 194.151,282.516 194.339 C 282.249 194.373,281.678 194.779,281.246 195.243 C 280.814 195.706,280.282 195.974,280.063 195.839 C 279.844 195.703,279.380 195.877,279.032 196.225 C 278.685 196.573,278.400 196.670,278.400 196.441 C 278.400 196.174,278.080 196.150,277.500 196.374 C 277.005 196.566,276.641 196.908,276.691 197.133 C 276.741 197.363,276.346 197.465,275.791 197.364 C 275.004 197.221,274.800 197.351,274.800 197.992 C 274.800 198.436,274.609 198.800,274.376 198.800 C 274.143 198.800,274.064 198.620,274.200 198.400 C 274.336 198.180,274.167 198.000,273.824 198.000 C 273.481 198.000,273.200 198.180,273.200 198.400 C 273.200 198.620,272.885 198.803,272.500 198.806 C 271.968 198.811,271.927 198.893,272.330 199.148 C 272.890 199.503,271.981 200.800,271.171 200.800 C 270.967 200.800,270.710 200.800,270.600 200.800 C 270.490 200.800,270.445 200.666,270.500 200.503 C 270.555 200.339,270.811 200.254,271.070 200.313 C 271.328 200.373,271.654 200.236,271.793 200.011 C 272.165 199.409,271.104 199.510,269.700 200.210 C 268.192 200.962,267.611 202.071,268.923 201.692 C 271.117 201.060,298.576 201.146,299.400 201.788 C 299.840 202.131,299.952 202.364,299.650 202.306 C 299.347 202.248,299.046 202.430,298.980 202.710 C 298.914 202.990,298.943 203.062,299.044 202.868 C 299.145 202.675,299.672 202.601,300.214 202.705 C 300.810 202.819,301.200 202.707,301.200 202.423 C 301.200 202.164,301.039 202.052,300.842 202.174 C 300.645 202.296,300.377 202.117,300.246 201.777 C 300.116 201.437,300.172 201.259,300.370 201.382 C 300.569 201.505,300.823 201.379,300.934 201.102 C 301.056 200.799,301.149 200.878,301.168 201.300 C 301.199 201.986,303.196 202.379,303.203 201.700 C 303.205 201.535,303.655 201.192,304.204 200.937 C 304.752 200.683,305.100 200.638,304.977 200.837 C 304.854 201.037,304.924 201.200,305.134 201.200 C 305.343 201.200,305.617 200.933,305.742 200.607 C 305.867 200.280,306.223 200.111,306.533 200.230 C 306.843 200.349,307.205 200.163,307.338 199.818 C 307.523 199.336,307.999 199.231,309.389 199.367 C 310.385 199.465,311.200 199.377,311.200 199.172 C 311.200 198.967,311.560 198.800,312.000 198.800 C 312.440 198.800,312.800 198.620,312.800 198.400 C 312.800 198.180,313.520 198.000,314.400 198.000 C 315.280 198.000,316.000 197.820,316.000 197.600 C 316.000 197.380,316.360 197.200,316.800 197.200 C 317.240 197.200,317.603 196.975,317.606 196.700 C 317.610 196.364,317.744 196.397,318.013 196.800 C 318.363 197.323,318.468 197.309,318.832 196.692 C 319.061 196.302,319.418 196.088,319.625 196.215 C 319.831 196.343,320.225 196.306,320.500 196.134 C 320.775 195.961,321.436 195.760,321.969 195.687 C 322.502 195.614,323.255 195.384,323.643 195.177 C 324.030 194.970,324.719 194.800,325.174 194.800 C 325.628 194.800,326.000 194.620,326.000 194.400 C 326.000 194.180,326.540 194.000,327.200 194.000 C 327.860 194.000,328.400 193.831,328.400 193.624 C 328.400 193.417,329.075 193.192,329.900 193.124 L 331.400 193.000 331.503 168.300 L 331.606 143.600 315.270 143.600 C 306.285 143.600,298.858 143.673,298.767 143.763 M30.890 174.900 L 31.000 181.400 37.500 181.510 L 44.000 181.620 44.000 175.010 L 44.000 168.400 37.390 168.400 L 30.780 168.400 30.890 174.900 M56.000 175.000 L 56.000 181.600 62.600 181.600 L 69.200 181.600 69.200 175.000 L 69.200 168.400 62.600 168.400 L 56.000 168.400 56.000 175.000 M80.890 174.900 L 81.000 181.400 87.500 181.510 L 94.000 181.620 94.000 175.010 L 94.000 168.400 87.390 168.400 L 80.780 168.400 80.890 174.900 M209.268 202.927 C 208.047 204.227,208.182 204.582,209.424 203.339 C 209.988 202.776,210.378 202.245,210.292 202.159 C 210.207 202.073,209.746 202.419,209.268 202.927 M224.684 202.900 C 224.207 203.257,224.126 203.572,224.401 204.000 C 224.628 204.351,224.790 204.405,224.794 204.129 C 224.797 203.869,225.083 203.374,225.429 203.029 C 226.177 202.281,225.637 202.187,224.684 202.900 M296.187 203.594 C 296.297 204.344,296.378 204.341,297.524 203.538 L 298.447 202.892 297.273 202.940 C 296.468 202.972,296.126 203.178,296.187 203.594 M6.000 204.589 C 6.000 205.687,6.602 206.244,7.034 205.545 C 7.215 205.252,7.150 205.184,6.862 205.362 C 6.281 205.721,6.255 205.105,6.827 204.533 C 7.129 204.231,7.071 204.036,6.627 203.866 C 6.165 203.688,6.000 203.878,6.000 204.589 " stroke="none" fill="#497ce5" fill-rule="evenodd"></path></g></svg>