<svg id="svg" version="1.1" xmlns="http://www.w3.org/2000/svg" xmlns:xlink="http://www.w3.org/1999/xlink" width="400" height="400" viewBox="0, 0, 400,400"><g id="svgg"><path id="path0" d="M104.563 23.690 C 104.669 24.210,292.566 24.716,294.700 24.202 C 295.195 24.082,295.600 23.772,295.600 23.512 C 295.600 23.153,295.485 23.155,295.120 23.520 C 294.484 24.156,104.979 24.226,104.663 23.590 C 104.551 23.365,104.506 23.410,104.563 23.690 M49.385 36.100 C 49.281 36.375,49.241 89.610,49.298 154.400 L 49.400 272.200 199.758 272.301 C 316.277 272.378,350.247 272.293,350.695 271.921 C 351.543 271.217,351.301 37.285,350.451 36.261 C 349.721 35.382,49.719 35.221,49.385 36.100 M69.353 45.651 C 70.729 46.278,72.200 49.149,71.853 50.531 C 70.945 54.150,66.319 55.525,63.955 52.880 C 60.449 48.956,64.550 43.463,69.353 45.651 M87.134 45.766 C 90.969 47.749,89.562 54.030,85.258 54.143 C 83.314 54.194,81.707 53.367,80.966 51.934 C 78.901 47.942,83.142 43.701,87.134 45.766 M105.032 45.954 C 107.438 47.421,107.812 50.879,105.785 52.906 C 103.998 54.693,101.457 54.686,99.519 52.890 C 95.592 49.248,100.437 43.152,105.032 45.954 M350.200 167.200 L 350.200 271.800 200.000 271.800 L 49.800 271.800 49.698 167.600 C 49.641 110.290,49.681 63.175,49.785 62.899 C 49.937 62.500,80.207 62.419,200.088 62.499 L 350.200 62.600 350.200 167.200 M37.436 83.045 C 37.652 83.493,37.800 128.863,37.800 194.467 C 37.800 255.333,37.890 305.223,38.000 305.333 C 38.110 305.443,38.200 255.388,38.200 194.100 C 38.200 98.590,38.119 82.640,37.636 82.479 C 37.207 82.336,37.160 82.471,37.436 83.045 M361.779 83.234 C 361.631 83.473,361.576 133.682,361.655 194.810 C 361.735 255.938,361.934 305.590,362.098 305.147 C 362.474 304.131,362.699 82.800,362.324 82.800 C 362.172 82.800,361.927 82.995,361.779 83.234 M312.140 89.200 C 312.140 91.070,312.209 91.835,312.293 90.900 C 312.377 89.965,312.377 88.435,312.293 87.500 C 312.209 86.565,312.140 87.330,312.140 89.200 M108.500 86.676 C 108.885 86.776,109.515 86.776,109.900 86.676 C 110.285 86.575,109.970 86.493,109.200 86.493 C 108.430 86.493,108.115 86.575,108.500 86.676 M320.183 103.200 C 320.183 112.330,320.235 116.065,320.300 111.500 C 320.364 106.935,320.364 99.465,320.300 94.900 C 320.235 90.335,320.183 94.070,320.183 103.200 M105.381 104.600 C 105.381 112.740,105.434 116.013,105.500 111.874 C 105.565 107.734,105.565 101.074,105.499 97.074 C 105.434 93.073,105.381 96.460,105.381 104.600 M92.407 93.878 C 90.605 94.640,90.600 94.682,90.600 107.800 C 90.600 122.012,90.504 121.600,93.800 121.600 C 97.367 121.600,97.600 120.755,97.600 107.807 C 97.600 97.389,97.430 95.773,96.203 94.545 C 95.539 93.882,93.319 93.491,92.407 93.878 M180.800 98.046 C 177.318 99.096,175.811 102.796,177.455 106.260 C 179.332 110.216,187.900 110.397,190.447 106.534 C 193.782 101.476,187.566 96.007,180.800 98.046 M312.175 111.200 C 312.175 117.030,312.231 119.415,312.299 116.500 C 312.367 113.585,312.367 108.815,312.299 105.900 C 312.231 102.985,312.175 105.370,312.175 111.200 M112.089 120.717 L 111.179 122.200 112.189 121.078 C 112.745 120.460,113.200 119.785,113.200 119.578 C 113.200 118.990,113.065 119.128,112.089 120.717 M319.720 122.000 C 319.720 123.210,319.795 123.705,319.887 123.100 C 319.978 122.495,319.978 121.505,319.887 120.900 C 319.795 120.295,319.720 120.790,319.720 122.000 M167.160 122.053 C 163.255 124.318,163.287 129.753,167.218 131.962 C 169.310 133.138,186.213 133.201,188.200 132.041 C 192.105 129.761,192.161 124.350,188.304 121.998 C 186.268 120.757,169.319 120.801,167.160 122.053 M311.709 124.000 C 311.709 124.990,311.787 125.395,311.882 124.900 C 311.978 124.405,311.978 123.595,311.882 123.100 C 311.787 122.605,311.709 123.010,311.709 124.000 M319.050 127.650 C 318.717 129.317,319.040 129.640,319.400 128.000 C 319.552 127.309,319.593 126.659,319.491 126.558 C 319.389 126.456,319.191 126.947,319.050 127.650 M311.000 128.000 C 310.848 128.691,310.807 129.341,310.909 129.442 C 311.011 129.544,311.209 129.053,311.350 128.350 C 311.683 126.683,311.360 126.360,311.000 128.000 M309.115 134.210 C 308.992 134.645,308.769 135.360,308.620 135.800 C 308.471 136.240,308.642 136.094,309.000 135.476 C 309.358 134.858,309.581 134.142,309.495 133.886 C 309.410 133.630,309.239 133.776,309.115 134.210 M313.000 144.400 C 312.659 145.060,312.469 145.600,312.579 145.600 C 312.689 145.600,313.059 145.060,313.400 144.400 C 313.741 143.740,313.931 143.200,313.821 143.200 C 313.711 143.200,313.341 143.740,313.000 144.400 M302.208 146.300 C 301.349 147.345,301.060 147.840,301.566 147.400 C 302.461 146.622,304.198 144.400,303.912 144.400 C 303.834 144.400,303.067 145.255,302.208 146.300 M179.285 145.655 C 175.811 147.880,175.921 153.043,179.490 155.261 C 185.637 159.083,194.120 153.037,190.441 147.457 C 188.598 144.662,182.400 143.661,179.285 145.655 M296.000 152.468 C 294.952 153.420,294.701 153.765,295.400 153.295 C 296.504 152.551,298.338 150.777,297.962 150.817 C 297.873 150.826,296.990 151.570,296.000 152.468 M304.800 155.000 C 303.161 156.650,301.910 158.000,302.020 158.000 C 302.130 158.000,303.561 156.650,305.200 155.000 C 306.839 153.350,308.090 152.000,307.980 152.000 C 307.870 152.000,306.439 153.350,304.800 155.000 M271.907 161.890 C 272.626 161.979,273.706 161.977,274.307 161.886 C 274.908 161.795,274.320 161.722,273.000 161.724 C 271.680 161.726,271.188 161.801,271.907 161.890 M180.014 168.719 C 177.796 169.809,176.695 171.781,176.898 174.303 C 177.513 181.975,191.191 181.454,191.199 173.759 C 191.202 170.238,188.433 168.038,184.000 168.038 C 182.361 168.038,180.888 168.290,180.014 168.719 M265.507 170.290 C 266.226 170.379,267.306 170.377,267.907 170.286 C 268.508 170.195,267.920 170.122,266.600 170.124 C 265.280 170.126,264.788 170.201,265.507 170.290 M233.190 177.100 L 230.200 180.200 233.389 177.200 C 235.142 175.550,236.657 174.155,236.755 174.100 C 236.853 174.045,236.764 174.000,236.557 174.000 C 236.349 174.000,234.834 175.395,233.190 177.100 M247.281 175.772 C 245.525 177.014,245.097 177.545,246.600 176.618 C 248.678 175.335,249.391 174.799,248.989 174.820 C 248.775 174.830,248.007 175.259,247.281 175.772 M227.473 183.700 C 226.275 185.311,224.911 187.542,225.456 187.000 C 226.087 186.373,228.819 182.400,228.620 182.400 C 228.521 182.400,228.005 182.985,227.473 183.700 M236.355 185.100 C 235.081 186.508,234.256 187.600,234.466 187.600 C 234.557 187.600,235.308 186.790,236.135 185.800 C 237.787 183.824,237.935 183.353,236.355 185.100 M166.926 192.380 C 162.924 194.820,163.518 200.779,167.949 202.635 C 170.228 203.590,185.679 203.419,187.892 202.414 C 191.730 200.672,192.399 195.950,189.209 193.119 L 187.497 191.600 177.849 191.601 C 169.000 191.603,168.094 191.667,166.926 192.380 M227.449 201.815 C 227.312 202.173,227.215 202.766,227.234 203.133 C 227.253 203.500,227.427 203.269,227.621 202.620 C 227.998 201.358,227.865 200.733,227.449 201.815 M64.710 203.824 C 62.782 204.870,62.800 204.614,62.800 230.604 L 62.800 255.262 63.969 256.431 L 65.138 257.600 101.715 257.600 L 138.291 257.600 139.345 256.545 L 140.400 255.491 140.400 230.506 L 140.400 205.521 139.158 204.360 L 137.915 203.200 101.858 203.216 C 70.816 203.230,65.648 203.314,64.710 203.824 M226.501 207.400 C 226.505 208.280,226.587 208.593,226.683 208.095 C 226.779 207.598,226.775 206.878,226.675 206.495 C 226.575 206.113,226.496 206.520,226.501 207.400 M218.524 209.800 C 218.526 211.120,218.601 211.612,218.690 210.893 C 218.779 210.174,218.777 209.094,218.686 208.493 C 218.595 207.892,218.522 208.480,218.524 209.800 M226.184 228.400 C 226.184 238.190,226.236 242.195,226.300 237.300 C 226.363 232.405,226.363 224.395,226.300 219.500 C 226.236 214.605,226.184 218.610,226.184 228.400 M105.608 211.804 C 107.886 212.982,108.352 215.938,106.545 217.745 L 105.491 218.800 90.004 218.800 L 74.517 218.800 73.475 217.834 C 71.444 215.952,71.798 212.996,74.196 211.813 C 76.000 210.922,103.888 210.915,105.608 211.804 M218.183 228.800 C 218.183 237.930,218.235 241.665,218.300 237.100 C 218.364 232.535,218.364 225.065,218.300 220.500 C 218.235 215.935,218.183 219.670,218.183 228.800 M180.014 215.498 C 175.952 217.556,175.695 223.357,179.569 225.534 C 186.106 229.209,194.115 223.248,190.285 217.559 C 188.575 215.019,183.121 213.924,180.014 215.498 M99.064 227.574 C 101.178 228.863,101.367 232.075,99.403 233.361 C 97.963 234.305,75.261 234.320,73.824 233.379 C 71.883 232.107,72.060 228.840,74.138 227.572 C 76.072 226.393,97.130 226.394,99.064 227.574 M130.008 227.404 C 132.272 228.575,132.734 231.358,130.942 233.019 C 129.410 234.438,113.226 234.565,111.454 233.171 C 109.560 231.681,110.092 228.393,112.400 227.319 C 114.012 226.569,128.529 226.639,130.008 227.404 M317.014 288.041 C 313.914 290.763,315.785 296.000,319.857 296.000 C 322.299 296.000,323.471 295.319,324.427 293.344 C 326.672 288.706,320.933 284.600,317.014 288.041 M334.834 287.915 C 332.914 289.518,332.619 292.449,334.190 294.315 C 336.810 297.429,341.768 296.261,342.551 292.346 C 343.422 287.992,338.279 285.039,334.834 287.915 M41.544 309.976 C 42.064 310.429,42.679 310.800,42.911 310.800 C 43.403 310.800,43.379 310.780,41.800 309.855 L 40.600 309.153 41.544 309.976 M357.800 310.027 C 357.140 310.450,356.805 310.797,357.056 310.798 C 357.306 310.799,357.936 310.446,358.456 310.013 C 359.645 309.023,359.359 309.029,357.800 310.027 M60.700 311.100 L 78.000 311.208 78.002 315.904 C 78.005 321.147,78.417 323.188,79.860 325.100 C 81.953 327.874,81.149 327.778,104.200 328.000 L 125.000 328.200 125.000 343.800 L 125.000 359.400 102.100 359.503 C 89.505 359.560,79.200 359.713,79.200 359.843 C 79.200 360.223,82.160 362.781,82.612 362.791 C 82.838 362.796,83.283 363.160,83.600 363.600 C 83.917 364.040,84.417 364.400,84.712 364.400 C 85.006 364.400,85.136 364.580,85.000 364.800 C 84.864 365.020,85.084 365.200,85.488 365.200 C 85.893 365.200,86.483 365.560,86.800 366.000 C 87.117 366.440,87.687 366.800,88.066 366.800 C 88.445 366.800,88.990 367.115,89.277 367.500 C 89.565 367.885,90.059 368.256,90.375 368.325 C 90.691 368.394,91.252 368.799,91.622 369.225 C 91.991 369.651,92.588 370.000,92.947 370.000 C 93.306 370.000,93.600 370.180,93.600 370.400 C 93.600 370.620,93.960 370.800,94.400 370.800 C 94.840 370.800,95.200 370.980,95.200 371.200 C 95.200 371.420,95.470 371.600,95.800 371.600 C 96.130 371.600,96.400 371.750,96.400 371.932 C 96.400 372.115,96.895 372.520,97.500 372.832 C 98.105 373.144,98.690 373.489,98.800 373.599 C 99.315 374.116,101.592 375.200,102.162 375.200 C 102.513 375.200,102.800 375.380,102.800 375.600 C 102.800 375.820,103.078 376.000,103.417 376.000 C 103.756 376.000,104.420 376.360,104.892 376.800 C 105.364 377.240,106.127 377.600,106.587 377.600 C 107.047 377.600,107.683 377.960,108.000 378.400 C 108.317 378.840,108.771 379.200,109.009 379.200 C 109.675 379.200,111.593 380.163,111.597 380.500 C 111.599 380.665,112.061 380.800,112.624 380.800 C 113.204 380.800,113.540 380.973,113.400 381.200 C 113.260 381.427,113.596 381.600,114.176 381.600 C 114.739 381.600,115.200 381.780,115.200 382.000 C 115.200 382.220,115.560 382.400,116.000 382.400 C 116.440 382.400,116.800 382.580,116.800 382.800 C 116.800 383.020,117.160 383.200,117.600 383.200 C 118.040 383.200,118.400 383.380,118.400 383.600 C 118.400 383.820,118.749 384.000,119.176 384.000 C 119.603 384.000,120.064 384.180,120.200 384.400 C 120.336 384.620,120.887 384.800,121.424 384.800 C 121.961 384.800,122.400 384.980,122.400 385.200 C 122.400 385.420,122.760 385.600,123.200 385.600 C 123.640 385.600,124.000 385.780,124.000 386.000 C 124.000 386.220,124.324 386.400,124.720 386.400 C 125.116 386.400,125.611 386.549,125.820 386.730 C 126.029 386.912,127.010 387.290,128.000 387.569 C 128.990 387.849,130.113 388.240,130.495 388.439 C 130.877 388.638,131.462 388.800,131.795 388.800 C 132.128 388.800,132.400 388.950,132.400 389.133 C 132.400 389.317,132.625 389.480,132.900 389.497 C 133.175 389.514,134.366 389.896,135.546 390.346 C 136.727 390.796,138.482 391.283,139.446 391.428 C 140.411 391.572,141.203 391.895,141.206 392.145 C 141.209 392.395,141.387 392.330,141.600 392.000 C 141.858 391.600,141.990 391.567,141.994 391.900 C 141.997 392.175,142.439 392.400,142.976 392.400 C 143.513 392.400,144.064 392.580,144.200 392.800 C 144.336 393.020,145.056 393.200,145.800 393.200 C 146.544 393.200,147.264 393.380,147.400 393.600 C 147.536 393.820,148.087 394.000,148.624 394.000 C 149.161 394.000,149.600 394.180,149.600 394.400 C 149.600 394.620,150.399 394.800,151.376 394.800 C 152.353 394.800,153.264 394.980,153.400 395.200 C 153.536 395.420,154.357 395.600,155.224 395.600 C 156.091 395.600,156.800 395.762,156.800 395.960 C 156.800 396.297,157.519 396.438,162.300 397.039 C 163.345 397.170,164.371 397.440,164.580 397.639 C 164.789 397.837,165.914 398.000,167.080 398.000 C 168.246 398.000,169.200 398.180,169.200 398.400 C 169.200 398.631,170.475 398.800,172.224 398.800 C 173.887 398.800,175.150 398.957,175.032 399.149 C 174.701 399.683,179.920 399.801,203.371 399.788 C 219.991 399.780,224.978 399.665,225.104 399.288 C 225.211 398.967,226.210 398.800,228.033 398.800 C 229.611 398.800,230.800 398.628,230.800 398.400 C 230.800 398.178,231.867 398.000,233.200 398.000 C 234.533 398.000,235.600 397.822,235.600 397.600 C 235.600 397.380,236.590 397.200,237.800 397.200 C 239.010 397.200,240.000 397.020,240.000 396.800 C 240.000 396.580,240.720 396.400,241.600 396.400 C 242.480 396.400,243.200 396.220,243.200 396.000 C 243.200 395.780,244.100 395.600,245.200 395.600 C 246.300 395.600,247.200 395.420,247.200 395.200 C 247.200 394.980,247.931 394.800,248.824 394.800 C 249.804 394.800,250.349 394.642,250.200 394.400 C 250.051 394.158,250.596 394.000,251.576 394.000 C 252.469 394.000,253.200 393.820,253.200 393.600 C 253.200 393.380,253.729 393.200,254.376 393.200 C 255.023 393.200,255.664 393.020,255.800 392.800 C 255.936 392.580,256.667 392.400,257.424 392.400 C 258.181 392.400,258.800 392.220,258.800 392.000 C 258.800 391.780,259.255 391.600,259.811 391.600 C 260.923 391.600,269.173 388.911,269.780 388.351 C 269.989 388.158,270.486 388.000,270.885 388.000 C 271.284 388.000,271.968 387.820,272.405 387.600 C 272.842 387.380,273.558 387.020,273.995 386.800 C 274.432 386.580,275.062 386.400,275.395 386.400 C 275.728 386.400,276.000 386.220,276.000 386.000 C 276.000 385.780,276.360 385.600,276.800 385.600 C 277.240 385.600,277.600 385.420,277.600 385.200 C 277.600 384.980,278.140 384.800,278.800 384.800 C 279.460 384.800,280.001 384.665,280.003 384.500 C 280.007 384.141,281.944 383.200,282.680 383.200 C 282.966 383.200,283.200 383.020,283.200 382.800 C 283.200 382.580,283.560 382.400,284.000 382.400 C 284.440 382.400,284.800 382.220,284.800 382.000 C 284.800 381.780,285.129 381.600,285.532 381.600 C 286.507 381.600,290.055 379.788,289.725 379.459 C 289.583 379.316,289.881 379.200,290.386 379.200 C 290.892 379.200,291.597 378.885,291.953 378.500 C 292.309 378.115,292.870 377.742,293.200 377.670 C 293.530 377.599,293.860 377.374,293.933 377.170 C 294.007 376.967,294.412 376.800,294.833 376.800 C 295.255 376.800,295.600 376.620,295.600 376.400 C 295.600 376.180,295.960 376.000,296.400 376.000 C 296.840 376.000,297.200 375.820,297.200 375.600 C 297.200 375.380,297.515 375.187,297.900 375.171 C 298.285 375.155,299.140 374.797,299.800 374.375 C 300.460 373.954,301.261 373.484,301.580 373.331 C 301.899 373.178,303.291 372.366,304.673 371.526 C 306.055 370.687,307.329 370.000,307.504 370.000 C 307.680 370.000,308.083 369.640,308.400 369.200 C 308.717 368.760,309.231 368.400,309.541 368.400 C 309.852 368.400,310.397 368.084,310.753 367.697 C 311.109 367.311,311.895 366.740,312.500 366.430 C 313.105 366.119,313.600 365.715,313.600 365.532 C 313.600 365.350,313.920 365.200,314.312 365.200 C 314.703 365.200,315.283 364.840,315.600 364.400 C 315.917 363.960,316.315 363.600,316.484 363.600 C 316.984 363.600,320.800 360.278,320.800 359.843 C 320.800 359.713,310.495 359.560,297.900 359.503 L 275.000 359.400 275.000 343.800 L 275.000 328.200 295.800 328.000 C 318.853 327.778,318.066 327.872,320.124 325.100 C 321.660 323.032,322.000 321.407,322.000 316.140 L 322.000 311.200 339.300 311.104 L 356.600 311.009 339.424 310.900 C 328.238 310.829,322.108 310.932,321.844 311.196 C 321.286 311.754,78.545 311.758,78.200 311.200 C 78.040 310.941,71.867 310.834,60.676 310.896 L 43.400 310.991 60.700 311.100 " stroke="none" fill="#74d0fa" fill-rule="evenodd"></path><path id="path1" d="M42.600 23.600 C 42.464 23.820,41.997 24.000,41.563 24.000 C 40.753 24.000,38.592 25.969,37.700 27.520 C 36.845 29.006,36.985 82.232,37.845 82.562 C 38.436 82.789,38.478 92.064,38.354 194.305 L 38.219 305.800 39.317 307.430 C 41.631 310.869,41.193 310.800,60.731 310.800 C 71.781 310.800,78.041 310.943,78.200 311.200 C 78.543 311.755,321.457 311.755,321.800 311.200 C 321.959 310.943,328.226 310.800,339.288 310.800 L 356.530 310.800 358.220 309.810 C 359.149 309.265,360.325 308.140,360.834 307.310 L 361.757 305.800 361.634 194.505 C 361.521 92.451,361.564 83.189,362.155 82.962 C 362.948 82.658,363.168 28.000,362.376 28.000 C 362.143 28.000,362.054 27.836,362.178 27.635 C 362.480 27.148,359.428 24.000,358.655 24.000 C 358.321 24.000,357.936 23.820,357.800 23.600 C 357.350 22.872,296.074 23.069,295.343 23.800 C 294.430 24.713,104.895 24.713,104.545 23.800 C 104.264 23.068,43.051 22.870,42.600 23.600 M350.451 36.261 C 351.301 37.285,351.543 271.217,350.695 271.921 C 350.247 272.293,316.277 272.378,199.758 272.301 L 49.400 272.200 49.298 154.400 C 49.241 89.610,49.281 36.375,49.385 36.100 C 49.719 35.221,349.721 35.382,350.451 36.261 M314.111 83.572 C 312.337 84.677,312.399 83.935,312.253 105.600 C 312.144 121.581,312.010 125.458,311.490 127.600 C 306.417 148.478,291.403 160.906,269.937 161.994 C 263.648 162.313,260.201 162.786,255.600 163.959 C 252.805 164.673,249.778 165.759,248.800 166.400 C 248.250 166.760,246.766 167.550,245.503 168.155 C 233.060 174.116,222.690 188.101,219.343 203.435 C 218.412 207.699,218.240 245.598,219.144 247.292 C 220.224 249.315,222.712 249.746,224.600 248.236 L 225.800 247.277 226.042 227.138 C 226.248 209.931,226.384 206.592,226.977 204.200 C 227.359 202.660,227.766 200.903,227.882 200.295 C 227.997 199.687,228.251 199.092,228.446 198.971 C 228.641 198.851,228.800 198.488,228.800 198.165 C 228.800 195.750,234.320 187.096,238.647 182.727 C 246.994 174.300,255.540 170.689,268.763 170.004 C 275.689 169.645,277.664 169.388,281.800 168.310 C 284.481 167.611,288.154 166.388,289.000 165.913 C 289.440 165.665,291.150 164.752,292.800 163.882 C 304.019 157.971,313.582 146.713,317.163 135.200 C 317.677 133.550,318.237 131.750,318.408 131.200 C 319.611 127.328,319.800 123.741,319.800 104.710 L 319.800 85.220 318.800 84.220 C 317.395 82.814,315.703 82.581,314.111 83.572 M107.165 87.313 C 105.668 88.462,105.600 89.223,105.600 104.719 L 105.600 119.891 106.615 120.906 C 108.588 122.879,110.982 122.632,112.398 120.310 C 113.386 118.691,113.655 91.067,112.705 88.919 C 111.803 86.882,108.844 86.024,107.165 87.313 M84.559 152.172 C 83.876 152.469,80.591 155.466,77.259 158.833 C 70.533 165.628,69.845 166.996,72.100 169.101 C 74.610 171.444,75.982 170.779,82.147 164.237 C 87.596 158.455,87.660 158.433,90.259 161.460 C 93.236 164.926,95.179 167.134,97.766 169.989 C 101.899 174.551,102.949 175.739,105.198 178.400 C 111.287 185.601,113.349 186.787,117.688 185.582 C 119.778 185.002,121.289 183.470,124.779 178.389 C 125.757 176.965,126.657 175.710,126.779 175.600 C 126.901 175.490,127.180 175.109,127.400 174.753 C 127.620 174.398,128.745 172.741,129.900 171.071 C 132.998 166.593,132.647 163.825,128.915 163.325 C 126.611 163.016,126.111 163.534,120.012 172.561 C 115.740 178.884,115.560 179.018,113.853 177.152 C 111.638 174.730,109.032 171.802,107.827 170.382 C 105.688 167.861,101.409 163.009,100.789 162.400 C 100.452 162.070,99.192 160.637,97.989 159.215 C 91.789 151.891,88.802 150.325,84.559 152.172 M74.196 211.813 C 71.798 212.996,71.444 215.952,73.475 217.834 L 74.517 218.800 90.004 218.800 L 105.491 218.800 106.545 217.745 C 108.352 215.938,107.886 212.982,105.608 211.804 C 103.888 210.915,76.000 210.922,74.196 211.813 M74.138 227.572 C 72.060 228.840,71.883 232.107,73.824 233.379 C 75.261 234.320,97.963 234.305,99.403 233.361 C 101.367 232.075,101.178 228.863,99.064 227.574 C 97.130 226.394,76.072 226.393,74.138 227.572 M112.400 227.319 C 110.092 228.393,109.560 231.681,111.454 233.171 C 113.226 234.565,129.410 234.438,130.942 233.019 C 132.734 231.358,132.272 228.575,130.008 227.404 C 128.529 226.639,114.012 226.569,112.400 227.319 M323.143 287.813 C 326.787 290.880,324.733 296.000,319.857 296.000 C 315.785 296.000,313.914 290.763,317.014 288.041 C 318.883 286.400,321.354 286.308,323.143 287.813 M340.334 287.366 C 341.932 288.192,342.932 290.439,342.551 292.346 C 341.397 298.115,332.744 296.886,333.306 291.033 C 333.643 287.534,337.135 285.712,340.334 287.366 " stroke="none" fill="#cbecf9" fill-rule="evenodd"></path><path id="path2" d="M64.930 45.675 C 63.646 46.296,62.216 49.211,62.547 50.531 C 63.455 54.150,68.081 55.525,70.445 52.880 C 73.968 48.937,69.704 43.366,64.930 45.675 M82.705 45.826 C 79.764 47.422,79.708 52.052,82.612 53.606 C 84.095 54.400,86.634 54.272,87.667 53.351 C 91.854 49.621,87.600 43.170,82.705 45.826 M100.141 45.971 C 97.748 47.430,97.432 50.954,99.519 52.890 C 101.457 54.686,103.998 54.693,105.785 52.906 C 109.573 49.118,104.734 43.170,100.141 45.971 M49.785 62.899 C 49.681 63.175,49.641 110.290,49.698 167.600 L 49.800 271.800 200.000 271.800 L 350.200 271.800 350.200 167.200 L 350.200 62.600 200.088 62.499 C 80.207 62.419,49.937 62.500,49.785 62.899 M138.227 78.586 C 140.838 79.677,140.800 79.277,140.800 105.400 C 140.800 130.568,140.788 130.722,138.753 132.148 C 137.909 132.739,134.415 132.800,101.271 132.800 L 64.721 132.800 63.560 131.558 L 62.400 130.315 62.400 105.518 L 62.400 80.720 63.760 79.360 L 65.120 78.000 100.973 78.000 C 131.545 78.000,137.032 78.086,138.227 78.586 M224.118 82.863 C 226.840 84.320,226.800 83.976,226.800 105.795 L 226.800 125.600 245.205 125.600 C 264.384 125.600,264.208 125.586,266.180 127.323 C 267.599 128.573,267.336 131.765,265.694 133.233 L 264.387 134.400 247.194 134.400 C 227.562 134.400,229.015 134.069,231.140 138.059 C 232.525 140.660,234.086 143.328,234.382 143.600 C 234.502 143.710,235.304 144.700,236.165 145.800 C 239.498 150.060,246.089 155.285,251.000 157.561 C 252.100 158.071,253.313 158.648,253.695 158.844 C 254.077 159.040,254.741 159.200,255.171 159.200 C 255.601 159.200,256.052 159.360,256.173 159.556 C 256.294 159.751,256.979 160.012,257.696 160.134 C 258.413 160.256,259.900 160.566,261.000 160.823 C 274.134 163.890,289.117 159.348,299.233 149.233 C 303.668 144.797,309.175 136.365,309.195 133.980 C 309.198 133.639,309.352 133.189,309.537 132.980 C 310.995 131.337,311.744 124.570,311.772 112.800 L 311.800 101.000 295.200 100.800 C 277.233 100.584,277.357 100.600,276.230 98.341 C 275.470 96.816,275.436 95.878,276.100 94.710 C 277.660 91.968,277.427 92.000,295.555 92.000 L 311.920 92.000 312.060 88.432 C 312.310 82.059,317.240 80.211,319.950 85.474 C 320.543 86.626,320.571 120.073,319.982 124.123 C 317.254 142.875,308.002 156.405,292.301 164.600 C 289.499 166.063,289.492 165.941,292.460 167.369 C 294.975 168.579,298.815 170.949,300.373 172.252 C 302.388 173.937,302.796 174.294,304.485 175.851 C 305.455 176.745,307.048 178.450,308.024 179.638 C 309.001 180.827,309.902 181.890,310.026 182.000 C 310.556 182.468,312.800 185.978,312.800 186.339 C 312.800 186.556,312.945 186.793,313.122 186.867 C 313.530 187.035,316.897 194.007,317.726 196.400 C 320.282 203.777,320.628 209.333,320.441 240.086 L 320.400 246.772 319.159 248.186 C 318.133 249.354,317.644 249.600,316.344 249.600 C 312.694 249.600,311.600 247.650,311.600 241.146 L 311.600 236.415 281.765 236.307 L 251.931 236.200 250.965 235.078 C 249.481 233.352,249.606 230.689,251.242 229.160 L 252.485 228.000 282.055 228.000 L 311.625 228.000 311.471 217.300 C 311.386 211.415,311.155 205.790,310.958 204.800 L 310.600 203.000 291.856 202.800 L 273.112 202.600 271.956 201.215 C 270.368 199.312,270.419 197.717,272.128 195.850 L 273.457 194.400 290.522 194.400 L 307.586 194.400 306.745 192.902 C 303.968 187.958,298.029 180.996,295.253 179.432 C 294.894 179.230,294.328 178.780,293.996 178.432 C 293.663 178.084,292.988 177.575,292.496 177.300 C 292.003 177.025,291.195 176.575,290.700 176.300 C 290.205 176.025,289.710 175.710,289.600 175.599 C 289.490 175.489,288.950 175.197,288.400 174.950 C 287.850 174.703,286.590 174.134,285.600 173.685 C 284.610 173.236,283.350 172.751,282.800 172.607 C 282.250 172.464,281.170 172.166,280.400 171.947 C 271.566 169.426,260.820 170.027,252.800 173.490 C 249.287 175.007,248.415 175.474,245.600 177.347 C 237.672 182.620,231.672 190.512,228.661 199.627 C 226.732 205.467,226.684 206.063,226.436 227.068 L 226.200 247.137 225.272 248.124 C 223.298 250.224,219.673 249.629,218.586 247.027 C 217.737 244.996,217.743 212.979,218.593 206.600 C 220.873 189.489,231.409 174.670,246.645 167.144 L 248.689 166.134 246.045 164.781 C 243.104 163.277,239.872 161.220,239.667 160.723 C 239.593 160.545,239.355 160.400,239.138 160.400 C 238.921 160.400,238.507 160.175,238.218 159.900 C 237.930 159.625,236.998 158.833,236.147 158.140 C 233.896 156.306,233.231 155.663,230.861 153.028 C 228.646 150.565,224.800 145.123,224.800 144.451 C 224.800 144.240,224.665 144.007,224.500 143.933 C 223.950 143.689,221.551 138.366,220.346 134.714 C 218.339 128.638,218.305 128.195,218.122 106.086 L 217.949 85.171 219.334 83.786 C 220.821 82.299,222.470 81.981,224.118 82.863 M188.224 98.449 C 190.936 99.753,192.108 104.015,190.447 106.534 C 187.900 110.397,179.332 110.216,177.455 106.260 C 174.661 100.372,181.663 95.294,188.224 98.449 M188.304 121.998 C 192.161 124.350,192.105 129.761,188.200 132.041 C 186.213 133.201,169.310 133.138,167.218 131.962 C 163.287 129.753,163.255 124.318,167.160 122.053 C 169.319 120.801,186.268 120.757,188.304 121.998 M139.745 141.455 L 140.800 142.509 140.800 168.000 L 140.800 193.491 139.745 194.545 L 138.691 195.600 101.527 195.600 L 64.364 195.600 63.382 194.618 L 62.400 193.636 62.400 168.004 L 62.400 142.371 63.300 141.410 L 64.200 140.449 101.445 140.424 L 138.691 140.400 139.745 141.455 M188.543 145.559 C 194.124 149.238,191.161 156.173,184.000 156.192 C 178.271 156.207,175.083 152.080,177.385 147.629 C 178.816 144.862,185.582 143.607,188.543 145.559 M187.986 168.719 C 189.885 169.652,191.200 171.716,191.199 173.759 C 191.191 181.454,177.513 181.975,176.898 174.303 C 176.581 170.363,179.217 168.038,184.000 168.038 C 185.639 168.038,187.112 168.290,187.986 168.719 M189.209 193.119 C 192.399 195.950,191.730 200.672,187.892 202.414 C 185.679 203.419,170.228 203.590,167.949 202.635 C 163.518 200.779,162.924 194.820,166.926 192.380 C 168.094 191.667,169.000 191.603,177.849 191.601 L 187.497 191.600 189.209 193.119 M139.158 204.360 L 140.400 205.521 140.400 230.506 L 140.400 255.491 139.345 256.545 L 138.291 257.600 101.715 257.600 L 65.138 257.600 63.969 256.431 L 62.800 255.262 62.800 230.604 C 62.800 214.528,62.943 205.681,63.210 205.181 C 64.282 203.178,63.205 203.233,101.858 203.216 L 137.915 203.200 139.158 204.360 M188.185 215.615 C 190.846 216.928,192.071 221.002,190.569 223.544 C 188.180 227.590,179.361 227.476,177.414 223.374 C 174.674 217.600,181.803 212.465,188.185 215.615 M124.982 343.800 C 124.982 352.380,125.035 355.833,125.100 351.474 C 125.164 347.114,125.164 340.094,125.099 335.874 C 125.035 331.653,124.982 335.220,124.982 343.800 M274.982 343.800 C 274.982 352.380,275.035 355.833,275.100 351.474 C 275.164 347.114,275.164 340.094,275.099 335.874 C 275.035 331.653,274.982 335.220,274.982 343.800 " stroke="none" fill="#3343aa" fill-rule="evenodd"></path><path id="path3" d="M220.546 83.268 C 218.620 84.200,218.600 84.431,218.601 105.363 C 218.602 125.865,218.638 126.392,220.464 133.000 C 221.352 136.212,221.358 136.229,223.535 140.886 C 228.058 150.562,236.118 158.894,246.000 164.109 L 249.400 165.903 251.800 165.112 C 256.156 163.677,261.801 162.422,264.200 162.357 C 265.548 162.320,265.360 162.231,263.000 161.789 C 248.079 158.995,236.469 150.437,230.379 137.743 C 228.424 133.668,226.800 134.048,246.768 133.916 L 264.336 133.800 265.368 132.830 C 266.121 132.123,266.400 131.455,266.400 130.363 C 266.400 126.302,266.919 126.400,245.469 126.400 C 229.058 126.400,227.245 126.336,226.749 125.739 C 226.304 125.203,226.180 121.470,226.094 106.039 C 226.035 95.567,225.891 86.406,225.772 85.681 C 225.416 83.503,222.674 82.237,220.546 83.268 M277.574 93.965 C 276.142 95.396,276.002 97.386,277.222 98.938 L 278.045 99.983 295.040 100.092 C 314.584 100.216,312.533 100.727,312.320 95.792 L 312.200 93.000 295.474 92.896 L 278.747 92.791 277.574 93.965 M63.864 141.845 C 62.348 143.361,62.354 143.237,62.483 169.133 L 62.600 192.866 63.906 194.033 L 65.213 195.200 101.637 195.200 L 138.062 195.200 139.231 194.031 L 140.400 192.862 140.400 168.250 C 140.400 142.266,140.388 142.087,138.537 141.244 C 137.846 140.929,127.007 140.800,101.236 140.800 L 64.909 140.800 63.864 141.845 M90.611 152.179 C 92.097 152.800,94.488 155.080,97.989 159.215 C 99.192 160.637,100.452 162.070,100.789 162.400 C 101.409 163.009,105.688 167.861,107.827 170.382 C 109.032 171.802,111.638 174.730,113.853 177.152 C 115.560 179.018,115.740 178.884,120.012 172.561 C 126.111 163.534,126.611 163.016,128.915 163.325 C 132.647 163.825,132.998 166.593,129.900 171.071 C 128.745 172.741,127.620 174.398,127.400 174.753 C 127.180 175.109,126.901 175.490,126.779 175.600 C 126.657 175.710,125.757 176.965,124.779 178.389 C 121.289 183.470,119.778 185.002,117.688 185.582 C 113.349 186.787,111.287 185.601,105.198 178.400 C 102.949 175.739,101.899 174.551,97.766 169.989 C 95.179 167.134,93.236 164.926,90.259 161.460 C 87.660 158.433,87.596 158.455,82.147 164.237 C 75.982 170.779,74.610 171.444,72.100 169.101 C 69.845 166.996,70.533 165.628,77.259 158.833 C 84.599 151.417,86.510 150.465,90.611 152.179 M285.400 167.186 C 281.527 168.553,276.897 169.600,274.728 169.600 C 272.325 169.600,272.991 169.912,276.830 170.584 C 289.274 172.762,299.946 180.376,306.764 191.938 C 307.450 193.103,307.909 194.224,307.783 194.428 C 307.647 194.648,300.671 194.800,290.746 194.800 L 273.938 194.800 272.769 195.969 C 271.550 197.189,271.319 198.410,271.981 200.150 C 272.748 202.168,272.910 202.186,292.591 202.400 L 310.982 202.600 311.516 204.800 C 312.327 208.143,312.694 227.568,311.955 228.036 C 311.649 228.230,298.248 228.391,282.154 228.394 C 253.312 228.400,252.894 228.411,251.869 229.217 C 249.978 230.705,250.098 234.145,252.081 235.276 C 252.807 235.690,259.214 235.842,282.600 236.000 L 312.200 236.200 312.400 241.739 L 312.600 247.278 313.800 248.237 C 315.618 249.690,317.978 249.356,319.216 247.472 C 320.361 245.729,320.362 210.892,319.218 204.600 C 316.349 188.835,306.299 175.032,292.600 168.043 C 289.068 166.241,288.327 166.153,285.400 167.186 " stroke="none" fill="#fbbb3c" fill-rule="evenodd"></path><path id="path4" d="M178.700 0.274 C 176.555 0.359,174.800 0.602,174.800 0.814 C 174.800 1.027,173.540 1.200,172.000 1.200 C 170.400 1.200,169.200 1.371,169.200 1.600 C 169.200 1.822,168.144 2.000,166.833 2.000 C 165.532 2.000,164.407 2.170,164.333 2.378 C 164.260 2.586,163.264 2.797,162.120 2.848 C 160.976 2.899,160.132 3.089,160.244 3.271 C 160.356 3.452,159.627 3.600,158.624 3.600 C 157.621 3.600,156.800 3.780,156.800 4.000 C 156.800 4.220,155.915 4.400,154.833 4.400 C 153.752 4.400,152.807 4.572,152.733 4.782 C 152.660 4.993,151.925 5.210,151.100 5.264 C 150.275 5.319,149.600 5.487,149.600 5.638 C 149.600 5.789,148.970 6.022,148.200 6.156 C 147.430 6.290,146.170 6.510,145.400 6.644 C 144.630 6.778,144.000 7.048,144.000 7.244 C 144.000 7.440,143.471 7.600,142.824 7.600 C 142.177 7.600,141.536 7.780,141.400 8.000 C 141.264 8.220,140.623 8.400,139.976 8.400 C 139.329 8.400,138.800 8.580,138.800 8.800 C 138.800 9.020,138.260 9.200,137.600 9.200 C 136.940 9.200,136.400 9.360,136.400 9.556 C 136.400 9.858,135.302 10.143,132.900 10.466 C 132.625 10.503,132.400 10.683,132.400 10.867 C 132.400 11.050,132.048 11.200,131.619 11.200 C 131.189 11.200,130.334 11.402,129.719 11.650 C 129.103 11.897,128.240 12.234,127.800 12.399 C 127.360 12.564,126.142 13.111,125.093 13.616 C 124.044 14.121,122.927 14.533,122.610 14.533 C 122.294 14.533,122.128 14.683,122.241 14.867 C 122.414 15.146,121.542 15.299,120.545 15.166 C 120.404 15.147,120.179 15.282,120.045 15.466 C 119.656 15.997,118.068 16.800,117.405 16.800 C 117.072 16.800,116.800 16.980,116.800 17.200 C 116.800 17.420,116.339 17.600,115.776 17.600 C 115.213 17.600,114.842 17.744,114.951 17.920 C 115.060 18.096,114.350 18.476,113.374 18.764 C 112.398 19.053,111.597 19.403,111.594 19.544 C 111.590 19.685,110.690 20.240,109.594 20.779 C 108.497 21.317,107.600 21.902,107.600 22.079 C 107.600 22.255,107.227 22.400,106.771 22.400 C 106.006 22.400,104.800 23.239,104.800 23.771 C 104.800 24.198,294.736 24.027,295.000 23.600 C 295.136 23.380,294.967 23.200,294.624 23.200 C 294.281 23.200,294.000 23.020,294.000 22.800 C 294.000 22.580,293.640 22.400,293.200 22.400 C 292.760 22.400,292.400 22.220,292.400 22.000 C 292.400 21.780,292.130 21.600,291.800 21.600 C 291.470 21.600,291.200 21.464,291.200 21.298 C 291.200 21.131,290.615 20.756,289.900 20.463 C 287.540 19.498,285.002 18.205,284.867 17.900 C 284.793 17.735,284.388 17.600,283.967 17.600 C 283.545 17.600,283.200 17.420,283.200 17.200 C 283.200 16.980,282.840 16.800,282.400 16.800 C 281.960 16.800,281.600 16.620,281.600 16.400 C 281.600 16.180,281.060 16.000,280.400 16.000 C 279.740 16.000,279.200 15.820,279.200 15.600 C 279.200 15.380,278.840 15.200,278.400 15.200 C 277.960 15.200,277.600 15.020,277.600 14.800 C 277.600 14.580,277.240 14.400,276.800 14.400 C 276.360 14.400,276.000 14.220,276.000 14.000 C 276.000 13.780,275.586 13.600,275.080 13.600 C 274.574 13.600,273.989 13.442,273.780 13.249 C 273.571 13.056,272.410 12.582,271.200 12.196 C 269.990 11.809,268.640 11.299,268.200 11.061 C 267.760 10.823,267.310 10.611,267.200 10.591 C 267.090 10.570,266.236 10.413,265.302 10.242 C 264.368 10.070,263.503 9.766,263.378 9.565 C 263.254 9.364,262.613 9.200,261.953 9.200 C 261.293 9.200,260.841 9.057,260.949 8.883 C 261.056 8.709,260.575 8.523,259.879 8.469 C 259.183 8.416,258.439 8.199,258.227 7.987 C 258.014 7.774,257.426 7.600,256.920 7.600 C 256.414 7.600,256.000 7.420,256.000 7.200 C 256.000 6.980,255.280 6.800,254.400 6.800 C 253.520 6.800,252.800 6.620,252.800 6.400 C 252.800 6.180,252.069 6.000,251.176 6.000 C 250.196 6.000,249.651 5.842,249.800 5.600 C 249.947 5.362,249.479 5.200,248.647 5.200 C 247.877 5.200,247.136 5.020,247.000 4.800 C 246.864 4.580,245.953 4.400,244.976 4.400 C 243.999 4.400,243.200 4.238,243.200 4.040 C 243.200 3.704,242.225 3.517,237.500 2.951 C 236.455 2.825,235.600 2.560,235.600 2.361 C 235.600 2.163,234.520 2.000,233.200 2.000 C 231.867 2.000,230.800 1.822,230.800 1.600 C 230.800 1.373,229.627 1.200,228.080 1.200 C 226.483 1.200,225.160 1.000,224.875 0.715 C 224.395 0.235,188.355 -0.109,178.700 0.274 M63.760 79.360 L 62.400 80.720 62.400 105.518 L 62.400 130.315 63.560 131.558 L 64.721 132.800 101.271 132.800 C 141.836 132.800,139.061 132.988,140.242 130.161 C 141.090 128.133,141.064 82.606,140.214 80.573 C 139.093 77.889,140.791 78.000,100.973 78.000 L 65.120 78.000 63.760 79.360 M219.334 83.786 L 217.949 85.171 218.122 106.086 C 218.305 128.195,218.339 128.638,220.346 134.714 C 221.551 138.366,223.950 143.689,224.500 143.933 C 224.665 144.007,224.800 144.240,224.800 144.451 C 224.800 145.123,228.646 150.565,230.861 153.028 C 233.231 155.663,233.896 156.306,236.147 158.140 C 236.998 158.833,237.930 159.625,238.218 159.900 C 238.507 160.175,238.921 160.400,239.138 160.400 C 239.355 160.400,239.593 160.542,239.667 160.714 C 240.032 161.577,249.200 166.759,249.200 166.103 C 249.200 165.925,247.715 165.001,245.900 164.051 C 234.820 158.249,226.858 149.265,221.572 136.600 C 221.071 135.400,219.762 130.543,219.146 127.600 C 218.347 123.779,218.353 86.189,219.153 84.689 C 220.234 82.665,222.838 82.332,224.849 83.959 L 225.800 84.728 226.000 104.903 C 226.161 121.191,226.306 125.205,226.749 125.739 C 227.245 126.336,229.057 126.400,245.469 126.400 C 266.919 126.400,266.400 126.302,266.400 130.363 C 266.400 131.455,266.121 132.123,265.368 132.830 L 264.336 133.800 246.768 133.916 C 226.800 134.048,228.424 133.668,230.379 137.743 C 237.031 151.608,251.484 161.360,266.000 161.777 L 270.600 161.909 266.800 161.584 C 264.710 161.406,262.100 161.056,261.000 160.808 C 259.900 160.559,258.413 160.256,257.696 160.134 C 256.979 160.012,256.294 159.751,256.173 159.556 C 256.052 159.360,255.601 159.200,255.171 159.200 C 254.741 159.200,254.077 159.040,253.695 158.844 C 253.313 158.648,252.100 158.071,251.000 157.561 C 246.089 155.285,239.498 150.060,236.165 145.800 C 235.304 144.700,234.502 143.710,234.382 143.600 C 234.086 143.328,232.525 140.660,231.140 138.059 C 229.015 134.069,227.562 134.400,247.194 134.400 L 264.387 134.400 265.694 133.233 C 267.336 131.765,267.599 128.573,266.180 127.323 C 264.208 125.586,264.384 125.600,245.205 125.600 L 226.800 125.600 226.800 105.795 C 226.800 90.686,226.681 85.781,226.300 85.110 C 224.553 82.038,221.637 81.483,219.334 83.786 M35.921 84.300 C 35.563 84.905,34.804 85.940,34.235 86.600 C 33.666 87.260,33.201 87.985,33.200 88.212 C 33.200 88.438,32.840 88.883,32.400 89.200 C 31.960 89.517,31.600 90.097,31.600 90.488 C 31.600 90.880,31.450 91.200,31.268 91.200 C 31.085 91.200,30.680 91.695,30.368 92.300 C 30.056 92.905,29.711 93.490,29.601 93.600 C 29.012 94.187,27.681 96.409,27.026 97.900 C 26.615 98.835,26.126 99.600,25.939 99.600 C 25.753 99.600,25.600 99.960,25.600 100.400 C 25.600 100.840,25.420 101.200,25.200 101.200 C 24.980 101.200,24.800 101.478,24.800 101.817 C 24.800 102.156,24.440 102.820,24.000 103.292 C 23.560 103.764,23.200 104.387,23.200 104.675 C 23.200 104.964,23.020 105.200,22.800 105.200 C 22.580 105.200,22.400 105.453,22.400 105.762 C 22.400 106.428,20.732 109.741,20.300 109.933 C 20.135 110.007,20.000 110.412,20.000 110.833 C 20.000 111.255,19.840 111.600,19.644 111.600 C 19.448 111.600,19.053 112.398,18.764 113.374 C 18.476 114.350,18.096 115.060,17.920 114.951 C 17.744 114.842,17.600 115.213,17.600 115.776 C 17.600 116.339,17.420 116.800,17.200 116.800 C 16.980 116.800,16.800 117.072,16.800 117.405 C 16.800 118.103,15.988 119.662,15.400 120.094 C 15.180 120.256,15.156 120.391,15.346 120.394 C 15.536 120.397,15.401 120.844,15.046 121.386 C 14.691 121.928,14.400 122.738,14.400 123.186 C 14.400 123.634,14.220 124.000,14.000 124.000 C 13.780 124.000,13.600 124.272,13.600 124.605 C 13.600 124.938,13.441 125.523,13.247 125.905 C 12.040 128.277,10.355 133.028,10.124 134.711 C 9.994 135.652,9.733 136.518,9.544 136.635 C 9.355 136.752,9.200 137.287,9.200 137.824 C 9.200 138.361,9.020 138.800,8.800 138.800 C 8.580 138.800,8.400 139.520,8.400 140.400 C 8.400 141.280,8.220 142.000,8.000 142.000 C 7.780 142.000,7.600 142.450,7.600 143.000 C 7.600 143.550,7.420 144.000,7.200 144.000 C 6.980 144.000,6.800 144.619,6.800 145.376 C 6.800 146.133,6.620 146.864,6.400 147.000 C 6.180 147.136,6.000 147.777,6.000 148.424 C 6.000 149.071,5.820 149.600,5.600 149.600 C 5.380 149.600,5.200 150.320,5.200 151.200 C 5.200 152.080,5.020 152.800,4.800 152.800 C 4.580 152.800,4.400 153.700,4.400 154.800 C 4.400 155.900,4.220 156.800,4.000 156.800 C 3.780 156.800,3.600 157.621,3.600 158.624 C 3.600 159.627,3.452 160.356,3.271 160.244 C 3.089 160.132,2.899 160.976,2.848 162.120 C 2.797 163.264,2.586 164.260,2.378 164.333 C 2.170 164.407,2.000 165.532,2.000 166.833 C 2.000 168.144,1.822 169.200,1.600 169.200 C 1.372 169.200,1.200 170.389,1.200 171.967 C 1.200 173.824,1.036 174.788,0.700 174.900 C -0.032 175.144,-0.032 224.856,0.700 225.100 C 1.036 225.212,1.200 226.176,1.200 228.033 C 1.200 229.611,1.372 230.800,1.600 230.800 C 1.822 230.800,2.000 231.856,2.000 233.167 C 2.000 234.468,2.170 235.593,2.378 235.667 C 2.586 235.740,2.797 236.736,2.848 237.880 C 2.899 239.024,3.089 239.868,3.271 239.756 C 3.452 239.644,3.600 240.358,3.600 241.343 C 3.600 242.328,3.770 243.193,3.979 243.267 C 4.187 243.340,4.400 244.245,4.452 245.278 C 4.504 246.311,4.694 247.065,4.874 246.955 C 5.053 246.844,5.200 247.573,5.200 248.576 C 5.200 249.579,5.380 250.400,5.600 250.400 C 5.820 250.400,6.000 251.030,6.000 251.800 C 6.000 252.570,6.180 253.200,6.400 253.200 C 6.620 253.200,6.800 253.729,6.800 254.376 C 6.800 255.023,6.980 255.664,7.200 255.800 C 7.420 255.936,7.600 256.577,7.600 257.224 C 7.600 257.871,7.780 258.400,8.000 258.400 C 8.220 258.400,8.400 259.030,8.400 259.800 C 8.400 260.570,8.580 261.200,8.800 261.200 C 9.020 261.200,9.200 261.639,9.200 262.176 C 9.200 262.713,9.380 263.264,9.600 263.400 C 9.820 263.536,10.000 264.147,10.000 264.757 C 10.000 265.367,10.135 266.002,10.300 266.167 C 10.465 266.332,10.610 266.587,10.623 266.733 C 10.679 267.398,11.331 269.834,11.601 270.387 C 11.765 270.724,12.282 271.782,12.750 272.738 C 13.217 273.694,13.600 274.819,13.600 275.238 C 13.600 275.657,13.747 276.000,13.928 276.000 C 14.108 276.000,14.500 276.900,14.800 278.000 C 15.100 279.100,15.492 280.000,15.672 280.000 C 15.853 280.000,16.000 280.360,16.000 280.800 C 16.000 281.240,16.180 281.600,16.400 281.600 C 16.620 281.600,16.800 281.960,16.800 282.400 C 16.800 282.840,16.980 283.200,17.200 283.200 C 17.420 283.200,17.600 283.434,17.600 283.720 C 17.600 284.456,18.541 286.393,18.900 286.397 C 19.065 286.399,19.200 286.762,19.200 287.205 C 19.200 287.928,19.868 289.477,20.405 290.000 C 20.518 290.110,21.042 291.055,21.568 292.100 C 22.095 293.145,22.677 294.000,22.863 294.000 C 23.048 294.000,23.200 294.360,23.200 294.800 C 23.200 295.240,23.380 295.600,23.600 295.600 C 23.820 295.600,24.000 295.960,24.000 296.400 C 24.000 296.840,24.180 297.200,24.400 297.200 C 24.620 297.200,24.800 297.560,24.800 298.000 C 24.800 298.440,24.980 298.800,25.200 298.800 C 25.420 298.800,25.600 299.036,25.600 299.325 C 25.600 299.613,25.931 300.204,26.335 300.638 C 26.739 301.072,27.201 301.950,27.361 302.589 C 27.655 303.757,29.099 306.085,29.686 306.333 C 29.858 306.407,30.000 306.722,30.000 307.033 C 30.000 307.345,30.180 307.600,30.400 307.600 C 30.620 307.600,30.800 307.870,30.800 308.200 C 30.800 308.530,30.958 308.800,31.151 308.800 C 31.345 308.800,31.727 309.340,32.000 310.000 C 32.273 310.660,32.655 311.200,32.849 311.200 C 33.042 311.200,33.200 311.442,33.200 311.738 C 33.200 312.034,33.560 312.602,34.000 313.000 C 34.440 313.398,34.800 314.067,34.800 314.486 C 34.800 314.904,34.980 315.136,35.200 315.000 C 35.420 314.864,35.600 315.033,35.600 315.376 C 35.600 315.719,35.750 316.000,35.932 316.000 C 36.115 316.000,36.519 316.495,36.830 317.100 C 37.140 317.705,37.711 318.491,38.097 318.847 C 38.484 319.203,38.801 319.653,38.802 319.847 C 38.803 320.041,39.343 320.775,40.002 321.478 C 40.661 322.181,41.200 322.882,41.200 323.035 C 41.200 323.188,41.732 323.822,42.383 324.444 C 43.034 325.066,43.827 326.076,44.145 326.687 C 44.463 327.299,45.640 328.740,46.762 329.888 C 47.883 331.036,48.800 332.161,48.800 332.388 C 48.800 332.615,48.980 332.800,49.200 332.800 C 49.420 332.800,49.600 332.968,49.600 333.173 C 49.600 333.378,51.310 335.276,53.400 337.390 C 55.490 339.504,57.200 341.119,57.200 340.980 C 57.200 340.840,57.875 341.463,58.700 342.363 C 62.286 346.278,66.332 350.335,66.490 350.177 C 66.585 350.082,67.462 350.769,68.440 351.702 C 69.417 352.636,71.023 354.030,72.007 354.800 C 74.080 356.421,75.490 357.592,76.225 358.300 C 76.510 358.575,76.936 358.800,77.171 358.800 C 77.407 358.800,77.600 358.980,77.600 359.200 C 77.600 359.420,77.842 359.600,78.139 359.600 C 78.435 359.600,78.854 359.994,79.068 360.476 C 79.335 361.072,79.553 361.200,79.753 360.876 C 79.915 360.614,79.857 360.400,79.624 360.400 C 79.391 360.400,79.200 360.220,79.200 360.000 C 79.200 359.738,87.067 359.600,102.000 359.600 L 124.800 359.600 124.800 343.800 L 124.800 328.000 104.384 328.000 C 84.789 328.000,83.905 327.968,82.407 327.204 C 79.033 325.482,78.006 322.846,78.002 315.900 L 78.000 311.200 60.987 311.200 C 41.082 311.200,40.397 311.045,38.304 306.056 C 37.982 305.290,37.892 274.760,37.976 194.960 C 38.040 134.437,37.969 84.532,37.819 84.060 C 37.447 82.886,36.702 82.981,35.921 84.300 M362.667 83.467 C 362.520 83.613,362.400 133.438,362.400 194.188 L 362.400 304.643 361.387 306.676 C 360.754 307.946,359.753 309.139,358.721 309.855 L 357.069 311.000 339.535 311.112 L 322.000 311.224 322.000 316.152 C 322.000 322.896,320.969 325.481,317.593 327.204 C 316.095 327.968,315.211 328.000,295.616 328.000 L 275.200 328.000 275.200 343.800 L 275.200 359.600 297.967 359.600 C 312.745 359.600,320.780 359.740,320.867 359.999 C 320.940 360.218,321.523 359.948,322.162 359.399 C 322.801 358.849,323.497 358.400,323.709 358.400 C 323.920 358.400,324.771 357.680,325.600 356.800 C 326.429 355.920,327.297 355.200,327.529 355.200 C 327.760 355.200,329.155 354.024,330.629 352.587 C 332.102 351.150,333.388 350.055,333.488 350.155 C 333.588 350.254,335.453 348.505,337.634 346.268 C 342.403 341.374,341.374 342.403,346.268 337.634 C 348.505 335.453,350.258 333.591,350.162 333.495 C 350.067 333.400,351.161 332.120,352.594 330.651 C 354.027 329.182,355.200 327.805,355.200 327.591 C 355.200 327.377,355.920 326.437,356.800 325.503 C 357.680 324.569,358.400 323.677,358.400 323.520 C 358.400 323.364,358.850 322.786,359.400 322.236 C 359.950 321.686,360.400 321.048,360.400 320.818 C 360.400 320.588,360.580 320.400,360.800 320.400 C 361.020 320.400,361.200 320.212,361.200 319.982 C 361.200 319.752,361.641 319.122,362.181 318.583 C 362.720 318.044,363.460 316.973,363.825 316.205 C 364.189 315.436,364.676 314.923,364.906 315.065 C 365.140 315.210,365.205 315.132,365.054 314.888 C 364.906 314.648,365.238 313.998,365.792 313.444 C 366.347 312.890,366.800 312.198,366.800 311.906 C 366.800 311.615,367.160 311.117,367.600 310.800 C 368.040 310.483,368.400 309.943,368.400 309.600 C 368.400 309.257,368.760 308.717,369.200 308.400 C 369.640 308.083,370.000 307.503,370.000 307.112 C 370.000 306.720,370.159 306.400,370.354 306.400 C 370.549 306.400,371.004 305.815,371.365 305.100 C 372.278 303.292,373.281 301.573,374.085 300.435 C 374.460 299.904,374.674 299.319,374.560 299.135 C 374.446 298.951,374.543 298.800,374.776 298.800 C 375.009 298.800,375.200 298.440,375.200 298.000 C 375.200 297.560,375.380 297.200,375.600 297.200 C 375.820 297.200,376.000 296.840,376.000 296.400 C 376.000 295.960,376.180 295.600,376.400 295.600 C 376.620 295.600,376.800 295.280,376.800 294.888 C 376.800 294.497,377.160 293.917,377.600 293.600 C 378.040 293.283,378.400 292.703,378.400 292.312 C 378.400 291.920,378.580 291.600,378.800 291.600 C 379.020 291.600,379.200 291.255,379.200 290.833 C 379.200 290.412,379.335 290.007,379.500 289.933 C 379.995 289.713,382.400 284.746,382.400 283.944 C 382.400 283.535,382.580 283.200,382.800 283.200 C 383.020 283.200,383.200 282.961,383.200 282.668 C 383.200 282.375,383.641 281.264,384.181 280.198 C 384.720 279.133,385.069 278.112,384.957 277.931 C 384.845 277.749,384.943 277.600,385.176 277.600 C 385.409 277.600,385.600 277.240,385.600 276.800 C 385.600 276.360,385.780 276.000,386.000 276.000 C 386.220 276.000,386.400 275.728,386.400 275.395 C 386.400 275.062,386.559 274.477,386.753 274.095 C 387.783 272.070,390.400 264.791,390.400 263.951 C 390.400 263.626,390.585 263.175,390.811 262.949 C 391.036 262.724,391.332 261.608,391.466 260.469 C 391.601 259.331,391.866 258.400,392.056 258.400 C 392.245 258.400,392.400 257.948,392.400 257.395 C 392.400 256.842,392.558 256.077,392.751 255.695 C 393.340 254.528,394.000 252.192,394.000 251.272 C 394.000 250.792,394.180 250.400,394.400 250.400 C 394.620 250.400,394.800 249.691,394.800 248.824 C 394.800 247.957,394.980 247.136,395.200 247.000 C 395.420 246.864,395.600 245.964,395.600 245.000 C 395.600 244.036,395.761 243.148,395.958 243.026 C 396.325 242.799,396.669 241.003,397.055 237.299 C 397.176 236.144,397.437 235.300,397.637 235.423 C 397.839 235.548,398.000 234.573,398.000 233.224 C 398.000 231.891,398.166 230.800,398.368 230.800 C 398.571 230.800,398.831 229.495,398.945 227.900 C 399.060 226.305,399.356 222.930,399.603 220.400 C 400.227 214.009,399.947 175.116,399.276 174.892 C 398.975 174.792,398.800 173.800,398.800 172.190 C 398.800 170.792,398.620 169.536,398.400 169.400 C 398.180 169.264,398.000 168.083,398.000 166.776 C 398.000 165.459,397.822 164.400,397.600 164.400 C 397.380 164.400,397.200 163.500,397.200 162.400 C 397.200 161.300,397.020 160.400,396.800 160.400 C 396.580 160.400,396.400 159.590,396.400 158.600 C 396.400 157.610,396.220 156.800,396.000 156.800 C 395.780 156.800,395.600 156.080,395.600 155.200 C 395.600 154.320,395.438 153.600,395.240 153.600 C 395.042 153.600,394.781 152.835,394.659 151.900 C 394.208 148.445,393.904 147.212,393.557 147.427 C 393.360 147.548,393.200 146.927,393.200 146.047 C 393.200 145.167,393.020 144.336,392.800 144.200 C 392.580 144.064,392.400 143.528,392.400 143.010 C 392.400 142.491,392.242 142.007,392.049 141.933 C 391.856 141.860,391.595 140.943,391.470 139.895 C 391.344 138.848,391.102 137.768,390.932 137.495 C 390.614 136.987,390.386 136.182,390.310 135.300 C 390.286 135.025,390.117 134.800,389.933 134.800 C 389.750 134.800,389.600 134.361,389.600 133.824 C 389.600 133.287,389.420 132.736,389.200 132.600 C 388.980 132.464,388.800 131.924,388.800 131.400 C 388.800 130.876,388.620 130.336,388.400 130.200 C 388.180 130.064,388.000 129.513,388.000 128.976 C 388.000 128.439,387.820 128.000,387.600 128.000 C 387.380 128.000,387.200 127.640,387.200 127.200 C 387.200 126.760,387.020 126.400,386.800 126.400 C 386.580 126.400,386.400 125.860,386.400 125.200 C 386.400 124.540,386.220 124.000,386.000 124.000 C 385.780 124.000,385.600 123.640,385.600 123.200 C 385.600 122.760,385.420 122.400,385.200 122.400 C 384.980 122.400,384.800 122.051,384.800 121.624 C 384.800 121.197,384.620 120.736,384.400 120.600 C 384.180 120.464,384.000 119.913,384.000 119.376 C 384.000 118.839,383.820 118.400,383.600 118.400 C 383.380 118.400,383.200 118.040,383.200 117.600 C 383.200 117.160,383.020 116.800,382.800 116.800 C 382.580 116.800,382.400 116.440,382.400 116.000 C 382.400 115.560,382.220 115.200,382.000 115.200 C 381.780 115.200,381.600 114.840,381.600 114.400 C 381.600 113.960,381.420 113.600,381.200 113.600 C 380.980 113.600,380.800 113.240,380.800 112.800 C 380.800 112.360,380.620 112.000,380.400 112.000 C 380.180 112.000,380.000 111.730,380.000 111.400 C 380.000 111.070,379.820 110.800,379.600 110.800 C 379.380 110.800,379.200 110.440,379.200 110.000 C 379.200 109.560,379.020 109.200,378.800 109.200 C 378.580 109.200,378.400 108.840,378.400 108.400 C 378.400 107.960,378.220 107.600,378.000 107.600 C 377.780 107.600,377.600 107.240,377.600 106.800 C 377.600 106.360,377.420 106.000,377.200 106.000 C 376.980 106.000,376.800 105.640,376.800 105.200 C 376.800 104.760,376.620 104.400,376.400 104.400 C 376.180 104.400,376.000 104.117,376.000 103.771 C 376.000 103.426,375.728 102.871,375.396 102.539 C 375.064 102.207,374.895 101.770,375.020 101.568 C 375.145 101.365,375.046 101.200,374.800 101.200 C 374.554 101.200,374.455 101.035,374.579 100.834 C 374.703 100.633,374.657 100.408,374.477 100.334 C 374.297 100.260,373.611 99.210,372.954 98.000 C 371.051 94.495,370.643 93.848,369.900 93.157 C 369.515 92.799,369.200 92.252,369.200 91.941 C 369.200 91.631,368.840 91.117,368.400 90.800 C 367.960 90.483,367.600 89.943,367.600 89.600 C 367.600 89.257,367.240 88.717,366.800 88.400 C 366.360 88.083,366.000 87.627,366.000 87.387 C 366.000 87.147,365.644 86.569,365.209 86.101 C 364.773 85.634,364.368 85.020,364.309 84.736 C 364.092 83.708,363.152 82.981,362.667 83.467 M112.299 87.798 L 113.200 88.845 113.200 104.333 C 113.200 121.521,113.260 121.114,110.542 122.250 C 109.008 122.891,107.696 122.453,106.199 120.799 C 105.429 119.948,105.400 119.348,105.400 104.325 L 105.400 88.734 106.757 87.522 C 108.468 85.993,110.849 86.111,112.299 87.798 M278.217 92.524 C 275.100 94.420,274.842 98.449,277.730 100.102 C 278.847 100.741,312.076 101.226,311.867 100.600 C 311.782 100.344,305.670 100.162,294.892 100.096 L 278.051 99.991 277.226 98.942 C 276.003 97.388,276.141 95.398,277.569 93.969 L 278.738 92.800 295.369 92.800 C 306.190 92.800,312.000 92.660,312.000 92.400 C 312.000 91.786,279.231 91.906,278.217 92.524 M96.203 94.545 C 97.430 95.773,97.600 97.389,97.600 107.807 C 97.600 120.755,97.367 121.600,93.800 121.600 C 90.504 121.600,90.600 122.012,90.600 107.800 C 90.600 94.682,90.605 94.640,92.407 93.878 C 93.319 93.491,95.539 93.882,96.203 94.545 M320.101 121.000 C 320.105 121.880,320.187 122.193,320.283 121.695 C 320.379 121.198,320.375 120.478,320.275 120.095 C 320.175 119.713,320.096 120.120,320.101 121.000 M63.300 141.410 C 62.805 141.939,62.401 142.783,62.402 143.286 C 62.405 144.130,62.451 144.111,63.011 143.038 C 64.233 140.695,61.979 140.827,101.281 140.813 C 127.044 140.804,137.845 140.929,138.537 141.244 C 140.388 142.087,140.400 142.266,140.400 168.250 L 140.400 192.862 139.231 194.031 L 138.062 195.200 101.685 195.200 L 65.308 195.200 64.221 194.345 C 63.623 193.874,62.980 193.109,62.792 192.645 C 62.457 191.815,62.450 191.816,62.425 192.718 C 62.411 193.223,62.842 194.078,63.382 194.618 L 64.364 195.600 101.527 195.600 L 138.691 195.600 139.745 194.545 L 140.800 193.491 140.800 168.000 L 140.800 142.509 139.745 141.455 L 138.691 140.400 101.445 140.424 L 64.200 140.449 63.300 141.410 M289.251 165.910 C 288.949 166.014,290.289 166.896,292.229 167.870 C 306.196 174.883,316.317 188.656,319.218 204.600 C 320.362 210.892,320.361 245.729,319.216 247.472 C 317.978 249.356,315.618 249.690,313.800 248.237 L 312.600 247.278 312.400 241.739 L 312.200 236.200 282.600 236.000 C 259.214 235.842,252.807 235.690,252.081 235.276 C 250.098 234.145,249.978 230.705,251.869 229.217 C 252.894 228.411,253.312 228.400,282.154 228.394 C 298.248 228.391,311.649 228.230,311.955 228.036 C 312.694 227.568,312.327 208.143,311.516 204.800 L 310.982 202.600 292.591 202.400 C 272.910 202.186,272.748 202.168,271.981 200.150 C 271.319 198.410,271.550 197.189,272.769 195.969 L 273.938 194.800 290.746 194.800 C 300.671 194.800,307.647 194.648,307.783 194.428 C 308.016 194.050,306.510 191.285,304.285 188.010 C 300.264 182.090,287.239 172.053,284.683 172.906 C 284.417 172.995,284.920 173.385,285.800 173.774 C 288.602 175.013,289.395 175.394,289.600 175.599 C 289.710 175.710,290.160 175.997,290.600 176.238 C 292.832 177.458,293.441 177.852,293.996 178.432 C 294.328 178.780,294.894 179.230,295.253 179.432 C 298.029 180.996,303.968 187.958,306.745 192.902 L 307.586 194.400 290.522 194.400 L 273.457 194.400 272.128 195.850 C 270.419 197.717,270.368 199.312,271.956 201.215 L 273.112 202.600 291.856 202.800 L 310.600 203.000 310.958 204.800 C 311.155 205.790,311.386 211.415,311.471 217.300 L 311.625 228.000 282.055 228.000 L 252.485 228.000 251.242 229.160 C 249.606 230.689,249.481 233.352,250.965 235.078 L 251.931 236.200 281.765 236.307 L 311.600 236.415 311.600 241.146 C 311.600 247.650,312.694 249.600,316.344 249.600 C 317.644 249.600,318.133 249.354,319.159 248.186 L 320.400 246.772 320.441 240.086 C 320.628 209.333,320.282 203.777,317.726 196.400 C 316.897 194.007,313.530 187.035,313.122 186.867 C 312.945 186.793,312.800 186.556,312.800 186.339 C 312.800 185.978,310.556 182.468,310.026 182.000 C 309.902 181.890,309.001 180.827,308.024 179.638 C 307.048 178.450,305.455 176.745,304.485 175.851 C 302.814 174.311,302.272 173.837,300.525 172.382 C 298.930 171.055,296.068 169.248,293.200 167.758 C 291.550 166.901,290.110 166.092,290.000 165.960 C 289.890 165.828,289.553 165.805,289.251 165.910 M271.800 170.408 C 275.440 170.824,278.278 171.337,280.600 171.999 C 283.358 172.786,284.314 172.921,283.512 172.411 C 282.078 171.499,276.449 170.361,272.600 170.205 L 268.600 170.043 271.800 170.408 M226.493 210.000 C 226.493 210.770,226.575 211.085,226.676 210.700 C 226.776 210.315,226.776 209.685,226.676 209.300 C 226.575 208.915,226.493 209.230,226.493 210.000 M218.101 211.000 C 218.105 211.880,218.187 212.193,218.283 211.695 C 218.379 211.198,218.375 210.478,218.275 210.095 C 218.175 209.713,218.096 210.120,218.101 211.000 " stroke="none" fill="#63458e" fill-rule="evenodd"></path></g></svg>