<svg id="svg" version="1.1" xmlns="http://www.w3.org/2000/svg" xmlns:xlink="http://www.w3.org/1999/xlink" width="400" height="400" viewBox="0, 0, 400,400"><g id="svgg"><path id="path0" d="M195.600 13.275 C 187.151 14.698,179.020 19.196,174.766 24.800 C 174.015 25.790,173.175 26.838,172.900 27.129 C 172.625 27.419,172.400 27.811,172.400 28.000 C 172.400 28.189,172.172 28.581,171.893 28.871 C 171.613 29.162,170.820 30.660,170.130 32.200 C 163.674 46.601,168.349 64.096,180.975 72.783 C 183.342 74.412,187.116 76.400,187.841 76.400 C 188.148 76.400,188.400 76.560,188.400 76.755 C 188.400 76.950,188.895 77.208,189.500 77.329 C 190.105 77.449,191.500 77.781,192.600 78.066 C 196.061 78.963,208.796 78.578,209.426 77.558 C 209.548 77.361,209.999 77.200,210.429 77.200 C 210.859 77.200,211.523 77.043,211.905 76.850 C 212.287 76.658,213.320 76.149,214.200 75.720 C 216.040 74.823,217.710 73.891,218.000 73.599 C 218.110 73.488,219.245 72.604,220.521 71.634 C 223.198 69.600,226.571 65.897,227.957 63.474 C 228.483 62.553,229.234 61.233,229.627 60.541 C 232.262 55.891,233.850 43.965,232.447 39.360 C 232.252 38.722,231.862 37.390,231.579 36.400 C 227.248 21.258,210.837 10.710,195.600 13.275 M204.800 20.289 C 214.722 23.655,217.936 36.215,210.873 44.019 C 209.279 45.779,209.279 45.780,210.139 46.381 C 216.778 51.020,219.523 56.760,219.579 66.120 C 219.619 72.805,220.918 72.389,200.000 72.389 C 190.870 72.389,182.988 72.279,182.484 72.144 C 178.562 71.093,180.070 57.051,184.732 51.217 C 186.726 48.721,186.593 48.844,190.084 46.299 C 190.707 45.845,190.620 45.638,189.121 44.000 C 178.960 32.902,190.507 15.440,204.800 20.289 M304.600 54.641 C 301.565 55.038,298.222 55.854,295.800 56.790 C 294.024 57.476,290.992 59.019,290.867 59.300 C 290.793 59.465,290.523 59.603,290.267 59.607 C 287.459 59.651,276.800 72.762,276.800 76.172 C 276.800 76.491,276.620 76.864,276.400 77.000 C 276.180 77.136,276.000 77.766,276.000 78.400 C 276.000 79.034,275.845 79.648,275.657 79.765 C 274.447 80.513,274.449 94.689,275.659 95.436 C 275.847 95.552,276.000 96.089,276.000 96.629 C 276.000 97.169,276.158 97.923,276.350 98.305 C 276.543 98.687,277.465 100.530,278.400 102.400 C 282.289 110.179,289.462 116.401,297.200 118.710 C 297.970 118.940,299.230 119.313,300.000 119.540 C 312.358 123.184,327.459 117.322,335.038 105.939 C 347.209 87.659,338.240 62.252,317.400 55.971 C 316.520 55.705,315.350 55.344,314.800 55.168 C 313.623 54.791,306.333 54.414,304.600 54.641 M95.000 56.233 C 92.578 57.530,89.671 59.612,88.593 60.820 L 87.800 61.709 89.000 61.479 C 89.660 61.352,90.713 61.123,91.340 60.970 C 95.556 59.940,103.288 64.278,105.483 68.904 C 107.143 72.403,107.933 78.700,106.800 79.400 C 106.580 79.536,106.400 79.980,106.400 80.386 C 106.400 81.531,104.749 84.357,103.200 85.862 L 101.800 87.223 103.200 88.292 C 106.133 90.531,108.824 93.645,109.864 96.000 C 111.639 100.022,111.728 100.536,111.767 106.956 L 111.800 112.512 110.672 113.356 C 109.609 114.151,108.934 114.212,99.072 114.400 L 88.600 114.600 92.352 117.105 C 97.410 120.483,97.109 120.436,102.800 118.725 C 109.956 116.572,117.312 110.567,120.834 104.000 C 121.365 103.010,121.935 102.140,122.100 102.067 C 122.265 101.993,122.400 101.676,122.400 101.361 C 122.400 100.805,122.573 100.372,123.538 98.505 C 123.792 98.013,124.000 97.169,124.000 96.629 C 124.000 96.089,124.157 95.550,124.350 95.431 C 125.265 94.865,125.614 86.136,124.879 82.200 C 124.044 77.725,123.908 77.190,123.554 76.971 C 123.359 76.851,123.200 76.482,123.200 76.151 C 123.200 75.067,120.838 70.653,118.830 67.983 C 116.283 64.599,110.882 59.625,109.733 59.607 C 109.477 59.603,109.207 59.465,109.133 59.300 C 109.006 59.013,105.878 57.427,104.200 56.799 C 103.760 56.634,102.932 56.314,102.361 56.086 C 99.765 55.053,97.102 55.106,95.000 56.233 M310.400 61.335 C 321.555 64.432,325.974 77.385,318.644 85.498 C 317.142 87.161,316.832 88.000,317.718 88.000 C 319.051 88.000,325.200 95.259,325.200 96.832 C 325.200 97.040,325.362 97.523,325.561 97.905 C 326.541 99.791,326.835 102.135,326.721 107.158 C 326.552 114.639,328.501 113.911,307.800 114.233 L 291.000 114.494 289.600 113.530 L 288.200 112.567 288.233 106.983 C 288.272 100.532,288.363 100.011,290.138 96.000 C 291.349 93.265,296.263 88.000,297.605 88.000 C 298.412 88.000,297.958 86.916,296.600 85.600 C 295.830 84.854,295.200 84.008,295.200 83.722 C 295.200 83.435,295.064 83.200,294.898 83.200 C 294.587 83.200,294.079 82.073,293.265 79.572 C 292.696 77.823,292.650 72.940,293.200 72.600 C 293.420 72.464,293.604 71.868,293.609 71.276 C 293.614 70.684,293.970 69.750,294.400 69.200 C 294.830 68.650,295.186 68.013,295.191 67.785 C 295.223 66.295,301.830 61.606,303.914 61.594 C 304.511 61.591,305.270 61.413,305.600 61.200 C 306.407 60.678,308.218 60.729,310.400 61.335 M77.454 79.042 C 76.617 81.725,76.177 88.396,76.648 91.248 L 76.888 92.697 79.095 90.559 C 80.309 89.383,81.639 88.314,82.051 88.184 C 83.081 87.857,82.989 87.117,81.775 85.977 C 80.392 84.677,79.295 82.838,78.419 80.352 C 77.872 78.799,77.632 78.473,77.454 79.042 M203.825 142.334 C 190.979 143.797,171.797 162.105,165.807 178.621 C 164.514 182.185,164.311 182.088,172.712 181.933 C 182.325 181.756,181.482 182.739,181.679 171.473 C 181.867 160.688,182.367 159.178,186.520 156.845 C 188.796 155.567,211.150 155.536,213.414 156.808 C 217.761 159.250,218.400 161.189,218.400 171.942 C 218.400 182.767,217.282 181.739,229.342 182.000 C 240.177 182.234,240.878 182.466,243.192 186.586 C 244.436 188.800,244.436 211.200,243.192 213.414 C 240.750 217.761,238.811 218.400,228.058 218.400 C 217.403 218.400,218.400 217.378,218.400 228.298 C 218.400 238.927,217.796 240.731,213.414 243.192 C 211.200 244.436,188.800 244.436,186.586 243.192 C 182.322 240.797,181.871 239.458,181.681 228.600 C 181.554 221.335,181.418 219.678,180.902 219.100 C 180.296 218.422,164.800 217.953,164.800 218.613 C 164.800 218.730,165.366 220.295,166.059 222.090 C 172.109 237.778,184.914 250.630,200.502 256.659 C 204.229 258.100,206.579 258.137,212.400 256.843 C 213.390 256.623,214.740 256.330,215.400 256.191 C 216.060 256.053,216.960 255.791,217.400 255.610 C 217.840 255.429,218.830 255.062,219.600 254.796 C 220.370 254.529,222.133 253.791,223.518 253.155 C 224.903 252.520,226.113 252.000,226.206 252.000 C 227.854 252.000,236.305 245.736,241.021 241.021 C 245.736 236.305,252.000 227.854,252.000 226.206 C 252.000 226.113,252.520 224.903,253.155 223.518 C 253.791 222.133,254.529 220.370,254.796 219.600 C 255.062 218.830,255.429 217.840,255.610 217.400 C 255.791 216.960,256.053 216.060,256.191 215.400 C 256.330 214.740,256.623 213.390,256.843 212.400 C 258.592 204.532,258.592 195.468,256.843 187.600 C 256.623 186.610,256.330 185.260,256.191 184.600 C 256.053 183.940,255.791 183.040,255.610 182.600 C 255.429 182.160,255.061 181.170,254.793 180.400 C 250.327 167.568,239.082 154.552,227.400 148.693 C 223.985 146.980,221.067 145.688,219.400 145.152 C 218.520 144.868,217.629 144.493,217.420 144.318 C 217.211 144.143,216.572 144.000,216.000 144.000 C 215.428 144.000,214.789 143.838,214.580 143.641 C 213.974 143.068,205.945 142.092,203.825 142.334 M303.000 279.996 C 297.486 281.209,296.502 281.540,292.628 283.489 C 285.644 287.002,276.800 296.908,276.800 301.217 C 276.800 301.622,276.620 302.064,276.400 302.200 C 276.180 302.336,276.000 302.876,276.000 303.400 C 276.000 303.924,275.845 304.449,275.656 304.566 C 274.455 305.308,274.458 319.894,275.659 320.636 C 275.847 320.752,276.000 321.289,276.000 321.829 C 276.000 322.369,276.180 323.168,276.400 323.605 C 276.620 324.042,276.980 324.758,277.200 325.195 C 277.420 325.632,277.600 326.262,277.600 326.595 C 277.600 326.928,277.780 327.200,278.000 327.200 C 278.220 327.200,278.400 327.560,278.400 328.000 C 278.400 328.440,278.550 328.800,278.732 328.800 C 278.915 328.800,279.320 329.295,279.632 329.900 C 279.944 330.505,280.290 331.090,280.402 331.200 C 280.513 331.310,281.138 332.120,281.789 333.000 C 283.118 334.794,285.500 337.146,287.600 338.736 C 288.370 339.319,289.090 339.886,289.200 339.998 C 289.954 340.760,295.643 343.600,296.417 343.600 C 296.822 343.600,297.264 343.780,297.400 344.000 C 297.536 344.220,298.166 344.400,298.800 344.400 C 299.434 344.400,300.050 344.557,300.168 344.748 C 300.286 344.940,301.242 345.203,302.292 345.333 C 303.341 345.463,305.062 345.690,306.116 345.839 C 308.695 346.201,315.983 345.058,318.095 343.961 C 318.477 343.762,319.043 343.600,319.354 343.600 C 321.332 343.600,328.582 338.633,331.919 334.992 C 348.576 316.813,339.952 287.165,316.150 280.787 C 312.768 279.880,305.511 279.444,303.000 279.996 M95.814 280.900 C 87.156 286.401,87.172 286.377,92.144 286.364 C 98.869 286.346,106.400 291.655,106.400 296.414 C 106.400 296.820,106.580 297.264,106.800 297.400 C 108.655 298.547,106.518 307.294,103.605 310.472 C 101.658 312.597,101.657 312.454,103.616 313.811 C 105.815 315.335,108.509 318.451,109.592 320.722 C 110.085 321.755,110.648 322.913,110.844 323.295 C 111.040 323.677,111.200 324.431,111.200 324.971 C 111.200 325.511,111.380 326.064,111.600 326.200 C 112.494 326.753,112.087 337.094,111.128 338.197 L 110.256 339.200 99.751 339.200 C 88.022 339.200,87.999 339.206,91.038 341.415 C 95.430 344.609,99.053 346.008,99.800 344.800 C 99.936 344.580,100.566 344.400,101.200 344.400 C 101.834 344.400,102.464 344.220,102.600 344.000 C 102.736 343.780,103.276 343.600,103.800 343.600 C 104.324 343.600,104.864 343.420,105.000 343.200 C 105.136 342.980,105.597 342.800,106.024 342.800 C 106.451 342.800,106.800 342.641,106.800 342.447 C 106.800 342.252,107.115 341.993,107.500 341.871 C 108.223 341.642,110.447 340.368,110.800 339.981 C 110.910 339.860,111.630 339.322,112.400 338.784 C 115.450 336.654,119.575 331.913,121.000 328.901 C 121.440 327.970,121.935 327.207,122.100 327.205 C 122.265 327.202,122.400 326.928,122.400 326.595 C 122.400 326.007,122.567 325.582,123.538 323.705 C 123.792 323.213,124.000 322.369,124.000 321.829 C 124.000 321.289,124.157 320.750,124.350 320.631 C 125.545 319.893,125.556 305.869,124.363 304.620 C 124.163 304.411,124.000 303.837,124.000 303.344 C 124.000 302.851,123.820 302.336,123.600 302.200 C 123.380 302.064,123.200 301.622,123.200 301.217 C 123.200 295.976,112.428 285.080,104.200 281.999 C 103.760 281.834,102.920 281.508,102.333 281.273 C 100.552 280.562,96.693 280.341,95.814 280.900 M313.200 287.416 C 322.557 292.145,325.157 303.489,318.559 310.793 L 317.030 312.486 318.215 313.339 C 320.513 314.993,322.717 317.234,323.204 318.410 C 323.475 319.065,323.811 319.600,323.951 319.600 C 324.178 319.600,324.597 320.476,325.578 323.000 C 326.583 325.586,326.800 327.198,326.800 332.099 C 326.800 339.932,328.819 339.200,307.218 339.200 L 289.744 339.200 288.851 338.172 C 287.590 336.723,287.810 326.831,289.179 323.400 C 290.813 319.305,293.374 315.897,296.384 313.811 C 298.329 312.463,298.322 312.547,296.650 310.783 C 293.655 307.624,291.348 298.944,293.200 297.800 C 293.420 297.664,293.600 297.149,293.600 296.656 C 293.600 295.621,294.457 293.608,294.900 293.603 C 295.065 293.601,295.200 293.344,295.200 293.032 C 295.200 292.053,298.706 288.905,301.104 287.730 C 304.856 285.892,309.925 285.761,313.200 287.416 M77.484 304.000 C 76.650 306.090,76.155 313.466,76.649 316.452 L 76.889 317.904 78.205 316.452 C 78.929 315.653,80.254 314.550,81.150 314.000 C 83.171 312.759,83.175 312.849,81.005 310.185 C 80.018 308.974,79.094 307.491,78.950 306.891 C 78.807 306.291,78.554 305.620,78.388 305.400 C 78.222 305.180,78.005 304.640,77.905 304.200 C 77.763 303.574,77.672 303.531,77.484 304.000 M192.200 322.049 C 189.227 322.859,188.925 322.972,185.800 324.435 C 169.818 331.919,162.778 351.401,170.130 367.800 C 170.820 369.340,171.613 370.838,171.893 371.129 C 172.172 371.419,172.400 371.811,172.400 372.000 C 172.400 372.189,172.631 372.581,172.913 372.871 C 173.195 373.162,173.863 374.030,174.397 374.800 C 178.526 380.754,187.459 385.583,196.675 386.843 C 211.649 388.891,227.332 378.447,231.579 363.600 C 231.862 362.610,232.252 361.278,232.447 360.640 C 233.002 358.817,232.843 349.285,232.216 346.800 C 231.199 342.772,231.178 342.718,228.251 336.903 C 228.003 336.410,227.665 336.005,227.500 336.003 C 227.335 336.001,227.200 335.822,227.200 335.605 C 227.200 334.735,223.184 330.388,220.487 328.339 C 219.229 327.384,218.110 326.499,218.000 326.374 C 217.575 325.888,210.919 322.874,209.400 322.479 C 208.520 322.251,207.059 321.869,206.154 321.632 C 203.473 320.929,195.429 321.170,192.200 322.049 M204.800 328.485 C 207.758 329.733,207.849 329.790,210.225 331.876 C 216.030 336.971,216.081 347.712,210.325 352.847 C 209.374 353.695,209.410 354.100,210.500 354.811 C 212.643 356.211,216.380 360.408,217.396 362.556 C 219.865 367.773,220.387 378.021,218.278 379.835 L 217.155 380.800 200.197 380.800 C 179.301 380.800,180.400 381.164,180.400 374.240 C 180.400 365.568,183.357 359.172,189.300 354.985 C 190.669 354.021,190.666 353.872,189.255 352.394 C 182.695 345.531,184.824 333.117,193.206 329.354 C 193.753 329.108,194.650 328.707,195.200 328.463 C 197.077 327.630,202.804 327.643,204.800 328.485 " stroke="none" fill="#d9a9b5" fill-rule="evenodd"></path><path id="path1" d="M188.926 161.446 C 187.030 162.381,186.800 163.590,186.800 172.611 C 186.800 186.038,186.038 186.800,172.611 186.800 C 160.184 186.800,160.800 186.111,160.800 200.000 C 160.800 213.930,160.156 213.200,172.439 213.200 C 186.014 213.200,186.800 213.992,186.800 227.669 C 186.800 239.909,185.989 239.200,200.000 239.200 C 214.019 239.200,213.200 239.919,213.200 227.604 C 213.200 213.996,213.996 213.200,227.600 213.200 C 239.923 213.200,239.200 214.025,239.200 199.961 C 239.200 186.031,239.891 186.800,227.389 186.800 C 214.033 186.800,213.200 185.957,213.200 172.439 C 213.200 163.194,213.039 162.394,210.984 161.419 C 209.052 160.503,190.794 160.525,188.926 161.446 M349.800 166.976 C 331.167 170.135,318.307 187.810,321.844 205.400 C 322.197 207.160,322.575 209.050,322.683 209.600 C 323.511 213.814,328.742 221.755,333.074 225.374 C 353.984 242.840,384.647 230.512,387.979 203.300 C 390.551 182.293,370.723 163.428,349.800 166.976 M40.800 167.038 C 36.410 167.561,31.265 169.573,26.943 172.459 C 7.274 185.590,7.246 214.388,26.889 227.505 C 30.831 230.137,31.458 230.416,38.000 232.442 C 43.883 234.265,55.135 232.717,61.400 229.222 C 93.483 211.328,77.369 162.685,40.800 167.038 M51.375 175.337 C 59.954 179.265,62.311 190.819,55.952 197.777 L 53.972 199.942 55.734 201.155 C 59.262 203.582,61.987 207.223,63.461 211.480 C 64.452 214.341,64.490 224.646,63.513 225.364 C 62.489 226.117,29.154 226.613,27.660 225.898 L 26.600 225.390 26.482 219.595 C 26.297 210.471,28.568 205.446,34.700 201.412 C 36.759 200.057,36.769 199.940,34.983 198.101 C 24.069 186.864,37.081 168.793,51.375 175.337 M360.496 175.313 C 368.612 179.075,371.369 188.788,366.463 196.336 C 365.700 197.510,364.743 198.679,364.337 198.932 C 363.220 199.630,363.435 200.185,365.300 201.415 C 371.102 205.244,373.600 210.836,373.600 219.997 C 373.600 224.460,373.545 224.793,372.711 225.377 C 371.433 226.273,337.789 226.321,336.576 225.429 C 335.644 224.743,335.499 215.002,336.379 212.175 C 337.765 207.725,342.992 200.800,344.964 200.800 C 346.102 200.800,345.852 199.763,344.307 198.070 C 333.908 186.675,346.579 168.863,360.496 175.313 " stroke="none" fill="#64b4e1" fill-rule="evenodd"></path><path id="path2" d="M208.000 13.982 C 208.330 14.205,208.945 14.391,209.367 14.394 C 210.390 14.402,210.071 14.173,208.600 13.844 C 207.724 13.648,207.562 13.685,208.000 13.982 M210.200 24.000 C 211.059 24.880,211.852 25.600,211.962 25.600 C 212.072 25.600,211.459 24.880,210.600 24.000 C 209.741 23.120,208.948 22.400,208.838 22.400 C 208.728 22.400,209.341 23.120,210.200 24.000 M214.514 34.200 C 214.517 35.300,214.595 35.703,214.687 35.095 C 214.779 34.486,214.777 33.586,214.682 33.095 C 214.587 32.603,214.511 33.100,214.514 34.200 M187.160 41.400 C 187.834 42.705,188.388 43.428,188.385 43.000 C 188.383 42.780,188.014 42.150,187.564 41.600 C 187.021 40.936,186.885 40.869,187.160 41.400 M232.946 45.800 C 232.947 48.000,233.014 48.849,233.095 47.687 C 233.176 46.524,233.176 44.724,233.093 43.687 C 233.011 42.649,232.945 43.600,232.946 45.800 M189.736 44.660 C 190.804 45.843,190.828 45.945,190.136 46.348 C 189.731 46.583,189.603 46.781,189.851 46.788 C 191.135 46.822,191.156 45.709,189.893 44.568 L 188.600 43.400 189.736 44.660 M209.775 44.900 L 208.600 46.200 209.900 45.025 C 210.615 44.379,211.200 43.794,211.200 43.725 C 211.200 43.416,210.870 43.688,209.775 44.900 M87.000 54.613 C 52.238 61.155,49.277 109.200,83.000 119.522 C 104.141 125.993,125.997 109.730,126.000 87.526 C 126.002 67.068,106.823 50.883,87.000 54.613 M301.200 54.612 C 272.900 60.989,264.423 95.696,286.772 113.686 C 295.847 120.990,306.281 122.860,318.357 119.343 C 320.026 118.857,318.218 118.922,316.381 119.414 C 311.099 120.828,304.642 120.893,300.100 119.577 C 295.006 118.101,293.266 117.342,289.600 114.997 C 284.677 111.849,281.129 107.859,278.400 102.400 C 277.465 100.530,276.543 98.687,276.350 98.305 C 276.158 97.923,276.000 97.169,276.000 96.629 C 276.000 96.089,275.847 95.552,275.659 95.436 C 274.449 94.689,274.447 80.513,275.657 79.765 C 275.845 79.648,276.000 79.034,276.000 78.400 C 276.000 77.766,276.180 77.136,276.400 77.000 C 276.620 76.864,276.800 76.491,276.800 76.172 C 276.800 72.762,287.459 59.651,290.267 59.607 C 290.523 59.603,290.793 59.465,290.867 59.300 C 291.075 58.832,295.095 56.971,297.800 56.090 C 302.461 54.572,311.620 54.106,315.048 55.211 C 315.902 55.486,317.140 55.885,317.800 56.096 C 345.865 65.090,348.546 104.073,322.009 117.282 C 320.354 118.106,319.230 118.784,319.511 118.790 C 323.825 118.875,334.913 108.727,337.856 102.000 C 340.443 96.086,340.910 93.863,340.924 87.400 C 340.931 84.226,340.738 81.194,340.477 80.400 C 338.754 75.152,338.195 73.692,337.134 71.673 C 330.504 59.055,314.725 51.564,301.200 54.612 M102.361 56.086 C 102.932 56.314,103.760 56.634,104.200 56.799 C 105.878 57.427,109.006 59.013,109.133 59.300 C 109.207 59.465,109.477 59.603,109.733 59.607 C 110.882 59.625,116.283 64.599,118.830 67.983 C 120.838 70.653,123.200 75.067,123.200 76.151 C 123.200 76.482,123.359 76.851,123.554 76.971 C 123.908 77.190,124.044 77.725,124.879 82.200 C 125.614 86.136,125.265 94.865,124.350 95.431 C 124.157 95.550,124.000 96.089,124.000 96.629 C 124.000 97.169,123.792 98.013,123.538 98.505 C 122.573 100.372,122.400 100.805,122.400 101.361 C 122.400 101.676,122.265 101.993,122.100 102.067 C 121.935 102.140,121.365 103.010,120.834 104.000 C 117.312 110.567,109.956 116.572,102.800 118.725 C 97.109 120.436,97.410 120.483,92.352 117.105 L 88.600 114.600 99.072 114.400 C 108.934 114.212,109.609 114.151,110.672 113.356 L 111.800 112.512 111.767 106.956 C 111.728 100.536,111.639 100.022,109.864 96.000 C 108.824 93.645,106.133 90.531,103.200 88.292 L 101.800 87.223 103.200 85.862 C 104.749 84.357,106.400 81.531,106.400 80.386 C 106.400 79.980,106.580 79.536,106.800 79.400 C 107.933 78.700,107.143 72.403,105.483 68.904 C 103.288 64.278,95.556 59.940,91.340 60.970 C 90.713 61.123,89.660 61.352,89.000 61.479 L 87.800 61.709 88.593 60.820 C 92.601 56.328,98.163 54.416,102.361 56.086 M305.600 61.200 C 305.270 61.413,304.511 61.591,303.914 61.594 C 301.830 61.606,295.223 66.295,295.191 67.785 C 295.186 68.013,294.830 68.650,294.400 69.200 C 293.970 69.750,293.614 70.684,293.609 71.276 C 293.604 71.868,293.420 72.464,293.200 72.600 C 292.650 72.940,292.696 77.823,293.265 79.572 C 294.079 82.073,294.587 83.200,294.898 83.200 C 295.064 83.200,295.200 83.435,295.200 83.722 C 295.200 84.008,295.830 84.854,296.600 85.600 C 297.958 86.916,298.412 88.000,297.605 88.000 C 296.263 88.000,291.349 93.265,290.138 96.000 C 288.363 100.011,288.272 100.532,288.233 106.983 L 288.200 112.567 289.600 113.530 L 291.000 114.494 307.800 114.233 C 328.501 113.911,326.552 114.639,326.721 107.158 C 326.835 102.135,326.541 99.791,325.561 97.905 C 325.362 97.523,325.200 97.040,325.200 96.832 C 325.200 95.259,319.051 88.000,317.718 88.000 C 316.832 88.000,317.142 87.161,318.644 85.498 C 323.608 80.004,323.169 70.639,317.699 65.322 C 314.425 62.140,307.694 59.847,305.600 61.200 M96.116 62.195 C 106.380 64.868,110.048 77.490,102.836 85.315 C 100.766 87.560,100.772 87.602,103.349 89.313 C 108.760 92.906,110.867 97.404,111.117 105.900 C 111.239 110.034,111.154 112.173,110.853 112.536 C 110.124 113.414,75.850 113.856,74.549 113.003 C 73.626 112.399,73.600 112.229,73.600 106.857 C 73.600 97.960,75.933 92.944,81.900 89.014 C 84.004 87.628,84.002 87.565,81.822 85.139 C 72.397 74.657,82.388 58.619,96.116 62.195 M313.856 63.198 C 322.070 67.242,324.263 78.372,318.178 85.139 C 315.997 87.565,315.996 87.633,318.100 88.992 C 323.713 92.617,326.400 98.528,326.400 107.248 C 326.400 113.866,328.522 113.200,307.443 113.200 C 286.615 113.200,288.800 113.894,288.800 107.281 C 288.800 98.372,291.297 92.731,296.805 89.197 C 299.207 87.656,299.219 87.544,297.228 85.384 C 286.633 73.890,299.824 56.290,313.856 63.198 M219.284 65.667 C 219.238 67.794,219.096 69.864,218.970 70.267 C 218.757 70.944,218.774 70.947,219.184 70.309 C 219.459 69.883,219.579 68.122,219.498 65.709 L 219.367 61.800 219.284 65.667 M223.178 69.500 L 221.800 71.000 223.300 69.622 C 224.696 68.338,224.984 68.000,224.678 68.000 C 224.612 68.000,223.937 68.675,223.178 69.500 M219.669 72.231 C 218.717 72.984,218.102 73.600,218.302 73.600 C 218.503 73.600,219.372 72.977,220.233 72.217 C 222.237 70.447,221.914 70.455,219.669 72.231 M200.900 72.299 C 203.925 72.367,208.875 72.367,211.900 72.299 C 214.925 72.231,212.450 72.175,206.400 72.175 C 200.350 72.175,197.875 72.231,200.900 72.299 M79.949 83.717 C 80.390 84.430,81.211 85.447,81.775 85.977 C 82.989 87.117,83.081 87.857,82.051 88.184 C 81.639 88.314,80.309 89.383,79.095 90.559 L 76.888 92.697 76.648 91.248 C 76.297 89.121,76.362 85.779,76.817 82.600 C 77.449 78.185,77.588 77.991,78.419 80.352 C 78.820 81.490,79.508 83.004,79.949 83.717 M194.800 141.622 C 154.604 144.557,129.498 188.746,147.201 225.400 C 159.032 249.897,188.230 264.019,213.200 257.321 C 214.410 256.996,215.940 256.588,216.600 256.413 C 234.594 251.646,251.512 234.701,256.447 216.500 C 256.641 215.785,256.984 214.525,257.208 213.700 C 259.258 206.162,259.258 193.838,257.208 186.300 C 256.984 185.475,256.641 184.215,256.447 183.500 C 251.818 166.428,236.288 150.079,219.400 144.500 C 217.144 143.755,216.134 143.467,212.200 142.449 C 208.980 141.616,200.438 141.210,194.800 141.622 M212.400 143.027 C 213.390 143.167,214.371 143.444,214.580 143.641 C 214.789 143.838,215.428 144.000,216.000 144.000 C 216.572 144.000,217.211 144.143,217.420 144.318 C 217.629 144.493,218.520 144.868,219.400 145.152 C 221.067 145.688,223.985 146.980,227.400 148.693 C 239.082 154.552,250.327 167.568,254.793 180.400 C 255.061 181.170,255.429 182.160,255.610 182.600 C 255.791 183.040,256.053 183.940,256.191 184.600 C 256.330 185.260,256.623 186.610,256.843 187.600 C 258.592 195.468,258.592 204.532,256.843 212.400 C 256.623 213.390,256.330 214.740,256.191 215.400 C 256.053 216.060,255.791 216.960,255.610 217.400 C 255.429 217.840,255.062 218.830,254.796 219.600 C 254.529 220.370,253.791 222.133,253.155 223.518 C 252.520 224.903,252.000 226.113,252.000 226.206 C 252.000 227.854,245.736 236.305,241.021 241.021 C 236.305 245.736,227.854 252.000,226.206 252.000 C 226.113 252.000,224.903 252.520,223.518 253.155 C 222.133 253.791,220.370 254.529,219.600 254.796 C 218.830 255.062,217.840 255.429,217.400 255.610 C 216.960 255.791,216.060 256.053,215.400 256.191 C 214.740 256.330,213.390 256.623,212.400 256.843 C 206.579 258.137,204.229 258.100,200.502 256.659 C 184.914 250.630,172.109 237.778,166.059 222.090 C 165.366 220.295,164.800 218.730,164.800 218.613 C 164.800 217.953,180.296 218.422,180.902 219.100 C 181.418 219.678,181.554 221.335,181.681 228.600 C 181.871 239.458,182.322 240.797,186.586 243.192 C 188.800 244.436,211.200 244.436,213.414 243.192 C 217.796 240.731,218.400 238.927,218.400 228.298 C 218.400 217.378,217.403 218.400,228.058 218.400 C 238.811 218.400,240.750 217.761,243.192 213.414 C 244.436 211.200,244.436 188.800,243.192 186.586 C 240.878 182.466,240.177 182.234,229.342 182.000 C 217.282 181.739,218.400 182.767,218.400 171.942 C 218.400 161.189,217.761 159.250,213.414 156.808 C 211.150 155.536,188.796 155.567,186.520 156.845 C 182.367 159.178,181.867 160.688,181.679 171.473 C 181.482 182.739,182.325 181.756,172.712 181.933 C 164.311 182.088,164.514 182.185,165.807 178.621 C 171.376 163.266,184.571 149.650,199.707 143.637 C 203.721 142.042,205.007 141.981,212.400 143.027 M213.000 157.357 C 214.100 157.879,215.270 158.655,215.600 159.083 C 217.346 161.344,217.379 161.549,217.593 171.090 C 217.865 183.290,216.712 182.137,228.910 182.400 L 238.200 182.600 240.048 183.884 C 243.434 186.235,243.600 186.985,243.600 199.947 C 243.600 212.095,243.471 212.942,241.288 215.116 C 239.068 217.327,238.853 217.370,228.910 217.593 C 216.712 217.865,217.865 216.712,217.593 228.910 C 217.370 238.853,217.327 239.068,215.116 241.288 C 212.943 243.470,212.090 243.600,200.000 243.600 C 182.925 243.600,182.712 243.422,182.400 228.910 C 182.137 216.710,183.290 217.863,171.090 217.600 C 160.542 217.373,160.051 217.242,157.806 214.046 L 156.600 212.331 156.600 200.000 L 156.600 187.669 157.806 185.954 C 160.051 182.758,160.542 182.627,171.090 182.400 C 183.276 182.138,182.137 183.257,182.400 171.290 C 182.642 160.320,183.044 159.184,187.400 157.161 C 190.148 155.884,210.221 156.038,213.000 157.357 M88.200 279.577 C 68.899 282.017,55.454 301.292,59.945 320.084 C 66.745 348.540,103.522 355.438,120.275 331.400 C 126.027 323.146,127.583 310.680,124.020 301.400 C 123.382 299.738,120.378 293.981,119.703 293.127 C 116.018 288.461,111.517 284.716,106.916 282.487 C 104.463 281.299,104.098 281.168,100.600 280.223 C 98.052 279.534,91.316 279.183,88.200 279.577 M302.800 279.436 C 267.333 285.925,263.825 333.682,298.000 344.783 C 300.517 345.601,306.580 346.407,304.400 345.634 C 303.850 345.439,302.736 345.262,301.924 345.240 C 301.112 345.218,300.336 345.020,300.200 344.800 C 300.064 344.580,299.434 344.400,298.800 344.400 C 298.166 344.400,297.536 344.220,297.400 344.000 C 297.264 343.780,296.822 343.600,296.417 343.600 C 295.643 343.600,289.954 340.760,289.200 339.998 C 289.090 339.886,288.370 339.319,287.600 338.736 C 285.500 337.146,283.118 334.794,281.789 333.000 C 281.138 332.120,280.513 331.310,280.402 331.200 C 280.290 331.090,279.944 330.505,279.632 329.900 C 279.320 329.295,278.915 328.800,278.732 328.800 C 278.550 328.800,278.400 328.440,278.400 328.000 C 278.400 327.560,278.220 327.200,278.000 327.200 C 277.780 327.200,277.600 326.928,277.600 326.595 C 277.600 326.262,277.420 325.632,277.200 325.195 C 276.980 324.758,276.620 324.042,276.400 323.605 C 276.180 323.168,276.000 322.369,276.000 321.829 C 276.000 321.289,275.847 320.752,275.659 320.636 C 274.458 319.894,274.455 305.308,275.656 304.566 C 275.845 304.449,276.000 303.924,276.000 303.400 C 276.000 302.876,276.180 302.336,276.400 302.200 C 276.620 302.064,276.800 301.622,276.800 301.217 C 276.800 300.221,278.850 296.392,280.986 293.399 C 284.957 287.834,291.630 283.071,298.000 281.254 C 298.770 281.034,300.210 280.617,301.200 280.327 C 304.091 279.480,312.349 279.712,316.085 280.744 C 345.437 288.852,349.353 328.117,322.233 342.383 C 320.960 343.052,319.665 343.600,319.354 343.600 C 319.043 343.600,318.477 343.762,318.095 343.961 C 317.225 344.413,314.858 345.033,312.000 345.558 L 309.800 345.962 312.254 345.792 C 318.591 345.352,326.130 341.547,331.603 336.023 C 333.479 334.130,337.600 328.485,337.600 327.809 C 337.600 327.689,337.941 326.828,338.357 325.896 C 340.434 321.241,340.911 318.773,340.924 312.600 C 340.931 309.405,340.735 306.356,340.468 305.500 C 340.211 304.675,339.798 303.325,339.550 302.500 C 336.657 292.847,327.367 283.506,318.000 280.831 C 317.010 280.548,315.750 280.139,315.200 279.921 C 314.142 279.502,304.498 279.125,302.800 279.436 M102.333 281.273 C 102.920 281.508,103.760 281.834,104.200 281.999 C 112.428 285.080,123.200 295.976,123.200 301.217 C 123.200 301.622,123.380 302.064,123.600 302.200 C 123.820 302.336,124.000 302.851,124.000 303.344 C 124.000 303.837,124.163 304.411,124.363 304.620 C 125.556 305.869,125.545 319.893,124.350 320.631 C 124.157 320.750,124.000 321.289,124.000 321.829 C 124.000 322.369,123.792 323.213,123.538 323.705 C 122.567 325.582,122.400 326.007,122.400 326.595 C 122.400 326.928,122.265 327.202,122.100 327.205 C 121.935 327.207,121.440 327.970,121.000 328.901 C 119.575 331.913,115.450 336.654,112.400 338.784 C 111.630 339.322,110.910 339.860,110.800 339.981 C 110.447 340.368,108.223 341.642,107.500 341.871 C 107.115 341.993,106.800 342.252,106.800 342.447 C 106.800 342.641,106.451 342.800,106.024 342.800 C 105.597 342.800,105.136 342.980,105.000 343.200 C 104.864 343.420,104.324 343.600,103.800 343.600 C 103.276 343.600,102.736 343.780,102.600 344.000 C 102.464 344.220,101.834 344.400,101.200 344.400 C 100.566 344.400,99.936 344.580,99.800 344.800 C 99.053 346.008,95.430 344.609,91.038 341.415 C 87.999 339.206,88.022 339.200,99.751 339.200 L 110.256 339.200 111.128 338.197 C 112.087 337.094,112.494 326.753,111.600 326.200 C 111.380 326.064,111.200 325.511,111.200 324.971 C 111.200 324.431,111.040 323.677,110.844 323.295 C 110.648 322.913,110.085 321.755,109.592 320.722 C 108.509 318.451,105.815 315.335,103.616 313.811 C 101.657 312.454,101.658 312.597,103.605 310.472 C 105.173 308.761,105.844 307.541,106.739 304.772 C 107.305 303.018,107.349 297.739,106.800 297.400 C 106.580 297.264,106.400 296.820,106.400 296.414 C 106.400 291.655,98.869 286.346,92.144 286.364 C 87.172 286.377,87.156 286.401,95.814 280.900 C 96.693 280.341,100.552 280.562,102.333 281.273 M305.400 286.394 C 301.758 286.780,295.200 291.048,295.200 293.032 C 295.200 293.344,295.065 293.601,294.900 293.603 C 294.457 293.608,293.600 295.621,293.600 296.656 C 293.600 297.149,293.420 297.664,293.200 297.800 C 291.348 298.944,293.655 307.624,296.650 310.783 C 298.322 312.547,298.329 312.463,296.384 313.811 C 293.374 315.897,290.813 319.305,289.179 323.400 C 287.810 326.831,287.590 336.723,288.851 338.172 L 289.744 339.200 307.218 339.200 C 328.819 339.200,326.800 339.932,326.800 332.099 C 326.800 327.198,326.583 325.586,325.578 323.000 C 324.597 320.476,324.178 319.600,323.951 319.600 C 323.811 319.600,323.475 319.065,323.204 318.410 C 322.717 317.234,320.513 314.993,318.215 313.339 L 317.030 312.486 318.559 310.793 C 327.579 300.809,319.025 284.949,305.400 286.394 M96.040 287.234 C 106.570 290.593,110.088 302.647,102.836 310.515 C 100.805 312.718,100.806 312.750,102.997 314.134 C 106.034 316.053,108.694 319.491,110.323 323.600 C 111.184 325.773,111.450 336.760,110.667 337.800 C 109.834 338.907,76.196 339.282,74.549 338.203 C 73.199 337.319,73.118 327.999,74.425 324.018 C 75.782 319.886,79.282 315.412,82.434 313.782 C 83.864 313.043,83.902 312.423,82.592 311.193 C 72.120 301.355,82.476 282.906,96.040 287.234 M311.240 287.234 C 321.441 290.488,325.057 302.442,318.208 310.265 C 316.071 312.704,316.024 312.985,317.603 313.802 C 323.126 316.658,326.411 323.583,326.387 332.320 C 326.369 339.088,328.497 338.387,307.625 338.502 C 286.358 338.620,288.654 339.539,288.894 331.000 C 289.126 322.776,291.656 317.513,296.998 314.137 C 299.186 312.755,299.189 312.712,297.228 310.584 C 287.748 300.300,298.104 283.042,311.240 287.234 M78.388 305.400 C 78.554 305.620,78.807 306.291,78.950 306.891 C 79.094 307.491,80.018 308.974,81.005 310.185 C 83.175 312.849,83.171 312.759,81.150 314.000 C 80.254 314.550,78.929 315.653,78.205 316.452 L 76.889 317.904 76.649 316.452 C 76.012 312.601,77.195 301.064,77.905 304.200 C 78.005 304.640,78.222 305.180,78.388 305.400 M205.800 321.600 C 206.240 321.789,206.870 321.944,207.200 321.944 C 207.578 321.944,207.504 321.817,207.000 321.600 C 206.560 321.411,205.930 321.256,205.600 321.256 C 205.222 321.256,205.296 321.383,205.800 321.600 M223.200 330.600 C 223.946 331.370,224.647 332.000,224.757 332.000 C 224.867 332.000,224.346 331.370,223.600 330.600 C 222.854 329.830,222.153 329.200,222.043 329.200 C 221.933 329.200,222.454 329.830,223.200 330.600 M214.520 342.400 C 214.520 343.610,214.595 344.105,214.687 343.500 C 214.778 342.895,214.778 341.905,214.687 341.300 C 214.595 340.695,214.520 341.190,214.520 342.400 M185.632 345.800 C 185.630 346.240,185.886 347.050,186.200 347.600 C 186.930 348.878,186.934 348.604,186.212 346.600 C 185.895 345.720,185.634 345.360,185.632 345.800 M306.700 346.282 C 307.195 346.378,308.005 346.378,308.500 346.282 C 308.995 346.187,308.590 346.109,307.600 346.109 C 306.610 346.109,306.205 346.187,306.700 346.282 M232.946 354.200 C 232.947 356.400,233.014 357.249,233.095 356.087 C 233.176 354.924,233.176 353.124,233.093 352.087 C 233.011 351.049,232.945 352.000,232.946 354.200 M213.435 357.575 C 214.334 358.579,215.459 359.919,215.935 360.554 C 216.411 361.189,216.800 361.524,216.800 361.300 C 216.800 361.075,215.675 359.734,214.300 358.320 C 212.925 356.906,212.536 356.571,213.435 357.575 M186.181 357.700 L 184.600 359.400 186.300 357.819 C 187.881 356.348,188.184 356.000,187.881 356.000 C 187.816 356.000,187.051 356.765,186.181 357.700 M218.893 368.800 C 218.893 369.570,218.975 369.885,219.076 369.500 C 219.176 369.115,219.176 368.485,219.076 368.100 C 218.975 367.715,218.893 368.030,218.893 368.800 M219.278 373.800 C 219.229 375.780,219.096 377.850,218.983 378.400 L 218.777 379.400 219.203 378.427 C 219.438 377.890,219.569 375.829,219.497 373.827 L 219.366 370.200 219.278 373.800 M217.834 379.900 C 217.669 380.065,212.554 380.296,206.467 380.412 L 195.400 380.625 206.224 380.712 C 215.219 380.785,217.178 380.701,217.824 380.213 C 218.251 379.890,218.495 379.620,218.367 379.613 C 218.238 379.606,217.999 379.735,217.834 379.900 " stroke="none" fill="#ababab" fill-rule="evenodd"></path><path id="path3" d="M192.000 8.000 C 192.000 8.220,191.280 8.400,190.400 8.400 C 189.520 8.400,188.800 8.580,188.800 8.800 C 188.800 9.020,188.260 9.200,187.600 9.200 C 186.940 9.200,186.400 9.380,186.400 9.600 C 186.400 9.820,185.995 10.001,185.500 10.002 C 185.005 10.003,183.790 10.426,182.800 10.942 C 178.922 12.965,177.600 13.761,177.600 14.074 C 177.600 14.253,177.413 14.400,177.184 14.400 C 176.575 14.400,168.400 22.683,168.400 23.300 C 168.400 23.588,168.040 24.083,167.600 24.400 C 167.160 24.717,166.800 25.297,166.800 25.688 C 166.800 26.080,166.620 26.400,166.400 26.400 C 166.180 26.400,166.000 26.670,166.000 27.000 C 166.000 27.330,165.820 27.600,165.600 27.600 C 165.380 27.600,165.200 27.960,165.200 28.400 C 165.200 28.840,165.020 29.200,164.800 29.200 C 164.580 29.200,164.400 29.472,164.400 29.805 C 164.400 30.138,164.192 30.813,163.938 31.305 C 162.928 33.259,162.800 33.625,162.800 34.571 C 162.800 35.111,162.639 35.652,162.442 35.774 C 161.545 36.328,160.754 51.714,161.580 52.540 C 161.811 52.771,162.000 53.633,162.000 54.456 C 162.000 55.279,162.180 56.064,162.400 56.200 C 162.620 56.336,162.800 56.977,162.800 57.624 C 162.800 58.271,162.980 58.800,163.200 58.800 C 163.420 58.800,163.600 59.239,163.600 59.776 C 163.600 60.313,163.780 60.864,164.000 61.000 C 164.220 61.136,164.400 61.597,164.400 62.024 C 164.400 62.451,164.580 62.800,164.800 62.800 C 165.020 62.800,165.200 63.160,165.200 63.600 C 165.200 64.040,165.380 64.400,165.600 64.400 C 165.820 64.400,166.000 64.636,166.000 64.925 C 166.000 65.213,166.360 65.836,166.800 66.308 C 167.240 66.780,167.600 67.404,167.600 67.695 C 167.600 67.986,167.960 68.483,168.400 68.800 C 168.840 69.117,169.200 69.515,169.200 69.684 C 169.200 70.680,175.559 76.781,176.612 76.795 C 176.838 76.798,177.283 77.160,177.600 77.600 C 177.917 78.040,178.407 78.400,178.688 78.400 C 178.970 78.400,179.200 78.580,179.200 78.800 C 179.200 79.020,179.455 79.200,179.767 79.200 C 180.078 79.200,180.393 79.335,180.467 79.500 C 180.688 79.999,184.022 81.600,184.838 81.600 C 185.257 81.600,185.600 81.780,185.600 82.000 C 185.600 82.220,186.039 82.400,186.576 82.400 C 187.113 82.400,187.664 82.580,187.800 82.800 C 187.936 83.020,188.577 83.200,189.224 83.200 C 189.871 83.200,190.400 83.380,190.400 83.600 C 190.400 83.820,191.300 84.000,192.400 84.000 C 193.500 84.000,194.400 84.180,194.400 84.400 C 194.400 84.620,195.031 84.800,195.803 84.800 L 197.206 84.800 197.103 110.500 L 197.000 136.200 193.300 136.315 C 191.265 136.378,189.600 136.603,189.600 136.815 C 189.600 137.027,188.711 137.200,187.624 137.200 C 186.537 137.200,185.536 137.380,185.400 137.600 C 185.264 137.820,184.544 138.000,183.800 138.000 C 183.056 138.000,182.336 138.180,182.200 138.400 C 182.064 138.620,181.423 138.800,180.776 138.800 C 180.129 138.800,179.600 138.980,179.600 139.200 C 179.600 139.420,179.060 139.600,178.400 139.600 C 177.740 139.600,177.200 139.780,177.200 140.000 C 177.200 140.220,176.840 140.400,176.400 140.400 C 175.960 140.400,175.600 140.580,175.600 140.800 C 175.600 141.020,175.240 141.200,174.800 141.200 C 174.360 141.200,174.000 141.380,174.000 141.600 C 174.000 141.820,173.475 142.000,172.833 142.000 C 172.192 142.000,171.607 142.135,171.533 142.300 C 171.323 142.773,168.944 144.000,168.238 144.000 C 167.887 144.000,167.600 144.180,167.600 144.400 C 167.600 144.620,167.364 144.800,167.075 144.800 C 166.787 144.800,166.202 145.115,165.775 145.500 C 165.349 145.885,164.505 146.455,163.900 146.768 C 163.295 147.080,162.800 147.485,162.800 147.668 C 162.800 147.850,162.594 148.000,162.343 148.000 C 162.092 148.000,161.409 148.495,160.826 149.100 C 160.243 149.705,159.278 150.455,158.683 150.768 C 158.087 151.080,157.600 151.485,157.600 151.668 C 157.600 152.685,155.163 150.392,138.352 133.560 L 119.935 115.121 120.867 114.092 C 121.380 113.526,122.340 112.471,123.000 111.747 C 123.660 111.024,124.646 109.570,125.190 108.516 C 125.735 107.462,126.275 106.510,126.390 106.400 C 126.931 105.885,128.400 102.641,128.400 101.962 C 128.400 101.543,128.580 101.200,128.800 101.200 C 129.020 101.200,129.200 100.660,129.200 100.000 C 129.200 99.340,129.380 98.800,129.600 98.800 C 129.820 98.800,130.000 98.080,130.000 97.200 C 130.000 96.320,130.180 95.600,130.400 95.600 C 130.635 95.600,130.800 94.208,130.800 92.224 C 130.800 90.367,130.980 88.736,131.200 88.600 C 131.420 88.464,131.600 87.913,131.600 87.376 C 131.600 86.839,131.420 86.400,131.200 86.400 C 130.963 86.400,130.800 84.933,130.800 82.800 C 130.800 80.667,130.637 79.200,130.400 79.200 C 130.180 79.200,130.000 78.570,130.000 77.800 C 130.000 77.030,129.820 76.400,129.600 76.400 C 129.380 76.400,129.200 75.860,129.200 75.200 C 129.200 74.540,129.020 74.000,128.800 74.000 C 128.580 74.000,128.400 73.460,128.400 72.800 C 128.400 72.140,128.220 71.600,128.000 71.600 C 127.780 71.600,127.600 71.240,127.600 70.800 C 127.600 70.360,127.420 70.000,127.200 70.000 C 126.980 70.000,126.800 69.680,126.800 69.288 C 126.800 68.897,126.440 68.317,126.000 68.000 C 125.560 67.683,125.200 67.130,125.200 66.772 C 125.200 65.716,119.892 59.200,119.032 59.200 C 118.870 59.200,118.046 58.480,117.200 57.600 C 116.354 56.720,115.418 56.000,115.120 56.000 C 114.821 56.000,114.317 55.640,114.000 55.200 C 113.683 54.760,113.103 54.400,112.712 54.400 C 112.320 54.400,111.999 54.265,111.997 54.100 C 111.993 53.741,110.056 52.800,109.320 52.800 C 109.034 52.800,108.800 52.664,108.800 52.498 C 108.800 52.331,108.215 51.960,107.500 51.671 C 106.785 51.383,105.887 50.979,105.505 50.774 C 105.123 50.568,104.358 50.400,103.805 50.400 C 103.252 50.400,102.800 50.220,102.800 50.000 C 102.800 49.780,102.001 49.600,101.024 49.600 C 100.047 49.600,99.136 49.420,99.000 49.200 C 98.852 48.961,96.204 48.800,92.400 48.800 C 88.596 48.800,85.948 48.961,85.800 49.200 C 85.664 49.420,84.854 49.600,84.000 49.600 C 83.146 49.600,82.336 49.780,82.200 50.000 C 82.064 50.220,81.511 50.400,80.971 50.400 C 80.025 50.400,79.659 50.528,77.705 51.538 C 77.213 51.792,76.538 52.000,76.205 52.000 C 75.872 52.000,75.600 52.180,75.600 52.400 C 75.600 52.620,75.240 52.800,74.800 52.800 C 74.360 52.800,74.000 52.980,74.000 53.200 C 74.000 53.420,73.764 53.600,73.475 53.600 C 73.187 53.600,72.564 53.960,72.092 54.400 C 71.620 54.840,71.028 55.200,70.777 55.200 C 70.526 55.200,69.817 55.740,69.200 56.400 C 68.583 57.060,67.869 57.600,67.612 57.600 C 66.620 57.600,60.000 65.056,60.000 66.173 C 60.000 66.518,59.820 66.800,59.600 66.800 C 59.380 66.800,59.200 67.160,59.200 67.600 C 59.200 68.040,59.053 68.400,58.874 68.400 C 58.408 68.400,56.800 71.531,56.800 72.438 C 56.800 72.857,56.620 73.200,56.400 73.200 C 56.180 73.200,56.000 73.740,56.000 74.400 C 56.000 75.060,55.820 75.600,55.600 75.600 C 55.380 75.600,55.200 76.140,55.200 76.800 C 55.200 77.460,55.020 78.000,54.800 78.000 C 54.580 78.000,54.400 78.990,54.400 80.200 C 54.400 81.410,54.220 82.400,54.000 82.400 C 53.464 82.400,53.464 92.269,54.000 92.600 C 54.220 92.736,54.400 93.827,54.400 95.024 C 54.400 96.221,54.580 97.200,54.800 97.200 C 55.020 97.200,55.200 97.740,55.200 98.400 C 55.200 99.060,55.380 99.600,55.600 99.600 C 55.820 99.600,56.000 100.140,56.000 100.800 C 56.000 101.460,56.180 102.000,56.400 102.000 C 56.620 102.000,56.800 102.450,56.800 103.000 C 56.800 103.550,56.980 104.000,57.200 104.000 C 57.420 104.000,57.600 104.360,57.600 104.800 C 57.600 105.240,57.746 105.600,57.925 105.600 C 58.104 105.600,58.498 106.230,58.800 107.000 C 59.102 107.770,59.496 108.400,59.675 108.400 C 59.854 108.400,60.000 108.651,60.000 108.958 C 60.000 109.264,60.540 110.093,61.200 110.800 C 61.860 111.507,62.400 112.212,62.400 112.369 C 62.400 112.808,67.073 117.600,67.502 117.600 C 67.711 117.600,68.446 118.140,69.137 118.800 C 69.828 119.460,70.582 120.000,70.813 120.000 C 71.044 120.000,71.620 120.360,72.092 120.800 C 72.564 121.240,73.187 121.600,73.475 121.600 C 73.764 121.600,74.000 121.780,74.000 122.000 C 74.000 122.220,74.236 122.400,74.525 122.400 C 75.025 122.400,77.762 123.561,79.337 124.441 C 79.742 124.667,81.317 124.957,82.837 125.084 C 84.357 125.212,85.600 125.470,85.600 125.658 C 85.600 125.846,88.750 126.000,92.600 126.000 C 96.450 126.000,99.600 125.845,99.600 125.655 C 99.600 125.466,100.783 125.189,102.228 125.041 C 103.673 124.893,105.158 124.613,105.528 124.418 C 105.898 124.223,107.505 123.478,109.100 122.761 C 110.695 122.045,112.000 121.310,112.000 121.129 C 112.000 120.948,112.360 120.800,112.800 120.800 C 113.240 120.800,113.600 120.639,113.600 120.443 C 113.600 118.636,115.894 120.688,133.410 138.166 C 150.289 155.006,152.725 157.600,151.668 157.600 C 151.485 157.600,151.080 158.087,150.768 158.683 C 150.455 159.278,149.705 160.243,149.100 160.826 C 148.495 161.409,148.000 162.092,148.000 162.343 C 148.000 162.594,147.850 162.800,147.668 162.800 C 147.485 162.800,147.080 163.295,146.768 163.900 C 146.455 164.505,145.885 165.349,145.500 165.775 C 145.115 166.202,144.800 166.787,144.800 167.075 C 144.800 167.364,144.620 167.600,144.400 167.600 C 144.180 167.600,144.000 167.887,144.000 168.238 C 144.000 168.944,142.773 171.323,142.300 171.533 C 142.135 171.607,142.000 172.192,142.000 172.833 C 142.000 173.475,141.820 174.000,141.600 174.000 C 141.380 174.000,141.200 174.360,141.200 174.800 C 141.200 175.240,141.020 175.600,140.800 175.600 C 140.580 175.600,140.400 175.960,140.400 176.400 C 140.400 176.840,140.220 177.200,140.000 177.200 C 139.780 177.200,139.600 177.740,139.600 178.400 C 139.600 179.060,139.420 179.600,139.200 179.600 C 138.980 179.600,138.800 180.129,138.800 180.776 C 138.800 181.423,138.620 182.064,138.400 182.200 C 138.180 182.336,138.000 183.056,138.000 183.800 C 138.000 184.544,137.820 185.264,137.600 185.400 C 137.380 185.536,137.200 186.411,137.200 187.344 C 137.200 188.277,137.028 189.212,136.817 189.423 C 136.606 189.634,136.381 191.425,136.317 193.403 L 136.200 197.000 110.139 197.103 L 84.078 197.206 83.850 195.303 C 83.283 190.578,83.096 189.600,82.760 189.600 C 82.562 189.600,82.400 189.060,82.400 188.400 C 82.400 187.740,82.220 187.200,82.000 187.200 C 81.780 187.200,81.600 186.660,81.600 186.000 C 81.600 185.340,81.420 184.800,81.200 184.800 C 80.980 184.800,80.800 184.440,80.800 184.000 C 80.800 183.560,80.620 183.200,80.400 183.200 C 80.180 183.200,80.000 182.840,80.000 182.400 C 80.000 181.960,79.820 181.600,79.600 181.600 C 79.380 181.600,79.200 181.240,79.200 180.800 C 79.200 180.360,79.020 180.000,78.800 180.000 C 78.580 180.000,78.400 179.730,78.400 179.400 C 78.400 179.070,78.220 178.800,78.000 178.800 C 77.780 178.800,77.600 178.607,77.600 178.371 C 77.600 178.136,77.375 177.715,77.100 177.437 C 76.825 177.159,76.240 176.430,75.800 175.816 C 74.716 174.304,69.718 169.200,69.319 169.199 C 69.144 169.199,68.370 168.659,67.600 168.000 C 66.830 167.341,65.975 166.801,65.700 166.801 C 65.425 166.800,65.200 166.620,65.200 166.400 C 65.200 166.180,64.840 166.000,64.400 166.000 C 63.960 166.000,63.600 165.820,63.600 165.600 C 63.600 165.380,63.240 165.200,62.800 165.200 C 62.360 165.200,62.000 165.020,62.000 164.800 C 62.000 164.580,61.640 164.400,61.200 164.400 C 60.760 164.400,60.400 164.220,60.400 164.000 C 60.400 163.780,60.038 163.600,59.595 163.600 C 59.152 163.600,58.477 163.442,58.095 163.249 C 56.774 162.582,54.538 162.000,53.295 162.000 C 52.609 162.000,51.936 161.820,51.800 161.600 C 51.653 161.361,49.070 161.200,45.400 161.200 C 41.730 161.200,39.147 161.361,39.000 161.600 C 38.864 161.820,37.964 162.000,37.000 162.000 C 36.036 162.000,35.136 162.180,35.000 162.400 C 34.864 162.620,34.223 162.800,33.576 162.800 C 32.929 162.800,32.400 162.980,32.400 163.200 C 32.400 163.420,32.057 163.600,31.638 163.600 C 30.822 163.600,27.488 165.201,27.267 165.700 C 27.193 165.865,26.788 166.000,26.367 166.000 C 25.945 166.000,25.600 166.180,25.600 166.400 C 25.600 166.620,25.375 166.800,25.100 166.801 C 24.825 166.801,23.970 167.341,23.200 168.000 C 22.430 168.659,21.662 169.199,21.494 169.199 C 21.160 169.200,14.400 175.862,14.400 176.191 C 14.400 176.302,13.766 177.224,12.990 178.240 C 11.482 180.215,10.000 183.159,10.000 184.178 C 10.000 184.520,9.820 184.800,9.600 184.800 C 9.380 184.800,9.200 185.340,9.200 186.000 C 9.200 186.660,9.020 187.200,8.800 187.200 C 8.580 187.200,8.400 187.740,8.400 188.400 C 8.400 189.060,8.220 189.600,8.000 189.600 C 7.780 189.600,7.600 190.399,7.600 191.376 C 7.600 192.353,7.420 193.264,7.200 193.400 C 6.663 193.732,6.663 206.668,7.200 207.000 C 7.420 207.136,7.600 207.957,7.600 208.824 C 7.600 209.691,7.780 210.400,8.000 210.400 C 8.220 210.400,8.400 210.940,8.400 211.600 C 8.400 212.260,8.580 212.800,8.800 212.800 C 9.020 212.800,9.200 213.340,9.200 214.000 C 9.200 214.660,9.380 215.200,9.600 215.200 C 9.820 215.200,10.000 215.488,10.000 215.840 C 10.000 217.094,13.165 222.757,14.077 223.133 C 14.255 223.207,14.400 223.434,14.400 223.639 C 14.400 224.083,21.053 230.800,21.494 230.801 C 21.662 230.801,22.430 231.341,23.200 232.000 C 23.970 232.659,24.825 233.199,25.100 233.199 C 25.375 233.200,25.600 233.380,25.600 233.600 C 25.600 233.820,25.945 234.000,26.367 234.000 C 26.788 234.000,27.193 234.135,27.267 234.300 C 27.488 234.799,30.822 236.400,31.638 236.400 C 32.057 236.400,32.400 236.580,32.400 236.800 C 32.400 237.020,32.929 237.200,33.576 237.200 C 34.223 237.200,34.864 237.380,35.000 237.600 C 35.136 237.820,36.047 238.000,37.024 238.000 C 38.001 238.000,38.800 238.180,38.800 238.400 C 38.800 238.651,41.267 238.800,45.400 238.800 C 49.533 238.800,52.000 238.651,52.000 238.400 C 52.000 238.180,52.799 238.000,53.776 238.000 C 54.753 238.000,55.664 237.820,55.800 237.600 C 55.936 237.380,56.476 237.200,57.000 237.200 C 57.524 237.200,58.064 237.020,58.200 236.800 C 58.336 236.580,58.887 236.400,59.424 236.400 C 59.961 236.400,60.400 236.220,60.400 236.000 C 60.400 235.780,60.760 235.600,61.200 235.600 C 61.640 235.600,62.000 235.420,62.000 235.200 C 62.000 234.980,62.360 234.800,62.800 234.800 C 63.240 234.800,63.600 234.620,63.600 234.400 C 63.600 234.180,63.960 234.000,64.400 234.000 C 64.840 234.000,65.200 233.820,65.200 233.600 C 65.200 233.380,65.425 233.200,65.700 233.199 C 65.975 233.199,66.830 232.659,67.600 232.000 C 68.370 231.341,69.147 230.801,69.327 230.801 C 69.819 230.800,75.507 224.880,76.290 223.555 C 76.665 222.920,77.114 222.400,77.286 222.400 C 77.459 222.400,77.600 222.130,77.600 221.800 C 77.600 221.470,77.780 221.200,78.000 221.200 C 78.220 221.200,78.400 220.930,78.400 220.600 C 78.400 220.270,78.580 220.000,78.800 220.000 C 79.020 220.000,79.200 219.640,79.200 219.200 C 79.200 218.760,79.380 218.400,79.600 218.400 C 79.820 218.400,80.000 218.040,80.000 217.600 C 80.000 217.160,80.180 216.800,80.400 216.800 C 80.620 216.800,80.800 216.440,80.800 216.000 C 80.800 215.560,80.980 215.200,81.200 215.200 C 81.420 215.200,81.600 214.660,81.600 214.000 C 81.600 213.340,81.780 212.800,82.000 212.800 C 82.220 212.800,82.400 212.260,82.400 211.600 C 82.400 210.940,82.580 210.400,82.800 210.400 C 83.020 210.400,83.200 209.691,83.200 208.824 C 83.200 207.957,83.380 207.136,83.600 207.000 C 83.820 206.864,84.000 205.862,84.000 204.773 L 84.000 202.794 110.100 202.897 L 136.200 203.000 136.317 206.597 C 136.381 208.575,136.606 210.366,136.817 210.577 C 137.028 210.788,137.200 211.723,137.200 212.656 C 137.200 213.589,137.380 214.464,137.600 214.600 C 137.820 214.736,138.000 215.467,138.000 216.224 C 138.000 216.981,138.180 217.600,138.400 217.600 C 138.620 217.600,138.800 218.219,138.800 218.976 C 138.800 219.733,138.980 220.464,139.200 220.600 C 139.420 220.736,139.600 221.287,139.600 221.824 C 139.600 222.361,139.780 222.800,140.000 222.800 C 140.220 222.800,140.400 223.065,140.400 223.388 C 140.400 223.711,140.760 224.617,141.200 225.400 C 141.640 226.183,142.000 227.164,142.000 227.579 C 142.000 227.994,142.135 228.393,142.300 228.467 C 142.773 228.677,144.000 231.056,144.000 231.762 C 144.000 232.113,144.180 232.400,144.400 232.400 C 144.620 232.400,144.800 232.636,144.800 232.925 C 144.800 233.213,145.115 233.798,145.500 234.225 C 145.885 234.651,146.455 235.495,146.768 236.100 C 147.080 236.705,147.485 237.200,147.668 237.200 C 147.850 237.200,148.000 237.435,148.000 237.722 C 148.000 238.009,148.585 238.892,149.300 239.685 C 151.339 241.946,152.001 242.786,151.993 243.105 C 151.982 243.566,114.400 281.008,114.400 280.558 C 114.400 280.338,113.503 279.717,112.406 279.179 C 111.310 278.640,110.410 278.081,110.406 277.935 C 110.403 277.789,109.680 277.549,108.800 277.400 C 107.920 277.251,107.200 276.966,107.200 276.765 C 107.200 276.564,106.750 276.400,106.200 276.400 C 105.650 276.400,105.200 276.220,105.200 276.000 C 105.200 275.780,104.671 275.600,104.024 275.600 C 103.377 275.600,102.736 275.420,102.600 275.200 C 102.464 274.980,101.463 274.800,100.376 274.800 C 99.289 274.800,98.400 274.620,98.400 274.400 C 98.400 274.152,96.208 274.000,92.624 274.000 C 89.204 274.000,86.746 274.163,86.600 274.400 C 86.464 274.620,85.463 274.800,84.376 274.800 C 83.289 274.800,82.400 274.980,82.400 275.200 C 82.400 275.420,81.860 275.600,81.200 275.600 C 80.540 275.600,80.000 275.780,80.000 276.000 C 80.000 276.220,79.561 276.400,79.024 276.400 C 78.487 276.400,77.948 276.560,77.827 276.756 C 77.706 276.951,77.111 277.231,76.504 277.378 C 74.902 277.765,73.200 278.548,73.200 278.898 C 73.200 279.064,72.840 279.200,72.400 279.200 C 71.960 279.200,71.600 279.350,71.600 279.532 C 71.600 279.715,71.111 280.120,70.512 280.432 C 67.648 281.927,60.663 289.116,60.147 291.100 C 60.019 291.595,59.753 292.000,59.557 292.000 C 59.360 292.000,59.200 292.360,59.200 292.800 C 59.200 293.240,59.020 293.600,58.800 293.600 C 58.580 293.600,58.400 293.870,58.400 294.200 C 58.400 294.530,58.220 294.800,58.000 294.800 C 57.780 294.800,57.600 295.160,57.600 295.600 C 57.600 296.040,57.420 296.400,57.200 296.400 C 56.980 296.400,56.800 296.760,56.800 297.200 C 56.800 297.640,56.620 298.000,56.400 298.000 C 56.180 298.000,56.000 298.540,56.000 299.200 C 56.000 299.860,55.820 300.400,55.600 300.400 C 55.380 300.400,55.200 300.929,55.200 301.576 C 55.200 302.223,55.020 302.864,54.800 303.000 C 54.580 303.136,54.400 304.227,54.400 305.424 C 54.400 306.621,54.220 307.600,54.000 307.600 C 53.464 307.600,53.464 317.469,54.000 317.800 C 54.220 317.936,54.400 318.926,54.400 320.000 C 54.400 321.074,54.580 322.064,54.800 322.200 C 55.020 322.336,55.200 323.067,55.200 323.824 C 55.200 324.581,55.380 325.200,55.600 325.200 C 55.820 325.200,56.000 325.560,56.000 326.000 C 56.000 326.440,56.180 326.800,56.400 326.800 C 56.620 326.800,56.800 327.340,56.800 328.000 C 56.800 328.660,56.980 329.200,57.200 329.200 C 57.420 329.200,57.600 329.560,57.600 330.000 C 57.600 330.440,57.780 330.800,58.000 330.800 C 58.220 330.800,58.400 331.120,58.400 331.512 C 58.400 331.903,58.760 332.483,59.200 332.800 C 59.640 333.117,60.000 333.658,60.000 334.001 C 60.000 335.186,67.313 343.200,68.394 343.200 C 68.661 343.200,69.383 343.740,70.000 344.400 C 70.617 345.060,71.409 345.600,71.760 345.600 C 72.112 345.600,72.400 345.780,72.400 346.000 C 72.400 346.220,72.760 346.400,73.200 346.400 C 73.640 346.400,74.000 346.580,74.000 346.800 C 74.000 347.020,74.360 347.200,74.800 347.200 C 75.240 347.200,75.600 347.380,75.600 347.600 C 75.600 347.820,75.960 348.000,76.400 348.000 C 76.840 348.000,77.200 348.180,77.200 348.400 C 77.200 348.620,77.549 348.800,77.976 348.800 C 78.403 348.800,78.864 348.980,79.000 349.200 C 79.136 349.420,79.676 349.600,80.200 349.600 C 80.724 349.600,81.264 349.780,81.400 350.000 C 81.536 350.220,82.256 350.400,83.000 350.400 C 83.744 350.400,84.464 350.580,84.600 350.800 C 84.751 351.044,87.871 351.200,92.624 351.200 C 97.541 351.200,100.400 351.053,100.400 350.800 C 100.400 350.580,101.120 350.400,102.000 350.400 C 102.880 350.400,103.600 350.220,103.600 350.000 C 103.600 349.780,104.140 349.600,104.800 349.600 C 105.460 349.600,106.000 349.420,106.000 349.200 C 106.000 348.980,106.450 348.800,107.000 348.800 C 107.550 348.800,108.000 348.620,108.000 348.400 C 108.000 348.180,108.360 348.000,108.800 348.000 C 109.240 348.000,109.600 347.820,109.600 347.600 C 109.600 347.380,109.960 347.200,110.400 347.200 C 110.840 347.200,111.200 347.020,111.200 346.800 C 111.200 346.580,111.436 346.400,111.725 346.400 C 112.013 346.400,112.636 346.040,113.108 345.600 C 113.580 345.160,114.172 344.800,114.423 344.800 C 114.674 344.800,115.383 344.260,116.000 343.600 C 116.617 342.940,117.297 342.400,117.512 342.400 C 118.390 342.400,123.656 336.615,124.704 334.500 C 125.058 333.785,125.495 333.200,125.674 333.200 C 125.853 333.200,126.000 332.840,126.000 332.400 C 126.000 331.960,126.180 331.600,126.400 331.600 C 126.620 331.600,126.800 331.240,126.800 330.800 C 126.800 330.360,126.980 330.000,127.200 330.000 C 127.420 330.000,127.600 329.640,127.600 329.200 C 127.600 328.760,127.780 328.400,128.000 328.400 C 128.220 328.400,128.400 327.860,128.400 327.200 C 128.400 326.540,128.580 326.000,128.800 326.000 C 129.020 326.000,129.200 325.550,129.200 325.000 C 129.200 324.450,129.380 324.000,129.600 324.000 C 129.820 324.000,130.000 323.381,130.000 322.624 C 130.000 321.867,130.180 321.136,130.400 321.000 C 130.620 320.864,130.800 319.244,130.800 317.400 C 130.800 315.556,130.980 313.936,131.200 313.800 C 131.420 313.664,131.600 313.113,131.600 312.576 C 131.600 312.039,131.420 311.600,131.200 311.600 C 130.963 311.600,130.800 310.133,130.800 308.000 C 130.800 305.867,130.637 304.400,130.400 304.400 C 130.180 304.400,130.000 303.680,130.000 302.800 C 130.000 301.920,129.820 301.200,129.600 301.200 C 129.380 301.200,129.200 300.660,129.200 300.000 C 129.200 299.340,129.020 298.800,128.800 298.800 C 128.580 298.800,128.400 298.451,128.400 298.024 C 128.400 297.597,128.220 297.136,128.000 297.000 C 127.780 296.864,127.600 296.403,127.600 295.976 C 127.600 295.549,127.420 295.200,127.200 295.200 C 126.980 295.200,126.800 294.880,126.800 294.488 C 126.800 294.097,126.440 293.517,126.000 293.200 C 125.560 292.883,125.200 292.331,125.200 291.973 C 125.200 291.615,124.840 290.907,124.400 290.400 C 123.960 289.893,123.600 289.357,123.600 289.210 C 123.600 289.063,122.777 288.084,121.771 287.035 C 119.977 285.162,119.956 285.111,120.671 284.297 C 126.482 277.688,157.600 247.381,157.600 248.332 C 157.600 248.515,158.087 248.920,158.683 249.232 C 159.278 249.545,160.243 250.295,160.826 250.900 C 161.409 251.505,162.092 252.000,162.343 252.000 C 162.594 252.000,162.800 252.150,162.800 252.332 C 162.800 252.515,163.295 252.920,163.900 253.232 C 164.505 253.545,165.349 254.115,165.775 254.500 C 166.202 254.885,166.787 255.200,167.075 255.200 C 167.364 255.200,167.600 255.380,167.600 255.600 C 167.600 255.820,167.945 256.000,168.367 256.000 C 168.788 256.000,169.193 256.135,169.267 256.300 C 169.515 256.859,172.592 258.330,174.100 258.610 C 174.925 258.764,175.600 259.049,175.600 259.245 C 175.600 259.440,175.949 259.600,176.376 259.600 C 176.803 259.600,177.264 259.780,177.400 260.000 C 177.536 260.220,178.087 260.400,178.624 260.400 C 179.161 260.400,179.600 260.580,179.600 260.800 C 179.600 261.020,180.230 261.200,181.000 261.200 C 181.770 261.200,182.400 261.380,182.400 261.600 C 182.400 261.820,183.019 262.000,183.776 262.000 C 184.533 262.000,185.264 262.180,185.400 262.400 C 185.536 262.620,186.537 262.800,187.624 262.800 C 188.711 262.800,189.600 262.973,189.600 263.185 C 189.600 263.397,191.265 263.622,193.300 263.685 L 197.000 263.800 197.103 289.500 L 197.206 315.200 195.803 315.200 C 195.031 315.200,194.400 315.380,194.400 315.600 C 194.400 315.820,193.500 316.000,192.400 316.000 C 191.300 316.000,190.400 316.180,190.400 316.400 C 190.400 316.620,189.781 316.800,189.024 316.800 C 188.267 316.800,187.536 316.980,187.400 317.200 C 187.264 317.420,186.803 317.600,186.376 317.600 C 185.949 317.600,185.600 317.780,185.600 318.000 C 185.600 318.220,185.257 318.400,184.838 318.400 C 184.022 318.400,180.688 320.001,180.467 320.500 C 180.393 320.665,180.078 320.800,179.767 320.800 C 179.455 320.800,179.200 320.980,179.200 321.200 C 179.200 321.420,179.018 321.600,178.796 321.600 C 178.574 321.600,177.828 322.140,177.137 322.800 C 176.446 323.460,175.724 324.000,175.531 324.000 C 175.115 324.000,169.200 329.815,169.200 330.224 C 169.200 330.379,168.885 330.798,168.500 331.154 C 167.704 331.891,166.459 333.858,166.129 334.900 C 166.007 335.285,165.748 335.600,165.553 335.600 C 165.359 335.600,165.200 335.960,165.200 336.400 C 165.200 336.840,165.020 337.200,164.800 337.200 C 164.580 337.200,164.400 337.549,164.400 337.976 C 164.400 338.403,164.220 338.864,164.000 339.000 C 163.780 339.136,163.600 339.687,163.600 340.224 C 163.600 340.761,163.440 341.200,163.244 341.200 C 163.048 341.200,162.788 341.785,162.666 342.500 C 162.544 343.215,162.225 344.700,161.956 345.800 C 161.070 349.431,161.459 364.400,162.440 364.400 C 162.638 364.400,162.800 364.929,162.800 365.576 C 162.800 366.223,162.980 366.864,163.200 367.000 C 163.420 367.136,163.600 367.687,163.600 368.224 C 163.600 368.761,163.780 369.200,164.000 369.200 C 164.220 369.200,164.400 369.560,164.400 370.000 C 164.400 370.440,164.580 370.800,164.800 370.800 C 165.020 370.800,165.200 371.160,165.200 371.600 C 165.200 372.040,165.336 372.400,165.502 372.400 C 165.669 372.400,166.060 372.985,166.372 373.700 C 166.684 374.415,167.268 375.291,167.670 375.647 C 168.071 376.003,168.400 376.503,168.400 376.758 C 168.400 377.205,176.545 385.600,176.979 385.600 C 177.095 385.600,177.559 385.915,178.008 386.300 C 178.788 386.967,175.964 387.009,117.513 387.200 L 56.200 387.400 56.200 389.800 L 56.200 392.200 200.000 392.200 L 343.800 392.200 343.800 389.800 L 343.800 387.400 282.487 387.200 C 224.036 387.009,221.212 386.967,221.992 386.300 C 222.441 385.915,222.934 385.600,223.086 385.600 C 223.553 385.600,231.600 377.233,231.600 376.748 C 231.600 376.498,231.929 376.003,232.330 375.647 C 232.732 375.291,233.316 374.415,233.628 373.700 C 233.940 372.985,234.331 372.400,234.498 372.400 C 234.664 372.400,234.800 372.040,234.800 371.600 C 234.800 371.160,234.980 370.800,235.200 370.800 C 235.420 370.800,235.600 370.440,235.600 370.000 C 235.600 369.560,235.780 369.200,236.000 369.200 C 236.220 369.200,236.400 368.761,236.400 368.224 C 236.400 367.687,236.580 367.136,236.800 367.000 C 237.020 366.864,237.200 366.223,237.200 365.576 C 237.200 364.929,237.362 364.400,237.560 364.400 C 238.416 364.400,239.234 348.274,238.420 347.460 C 238.189 347.229,238.000 346.367,238.000 345.544 C 238.000 344.721,237.820 343.936,237.600 343.800 C 237.380 343.664,237.200 343.023,237.200 342.376 C 237.200 341.729,237.020 341.200,236.800 341.200 C 236.580 341.200,236.400 340.761,236.400 340.224 C 236.400 339.687,236.220 339.136,236.000 339.000 C 235.780 338.864,235.600 338.403,235.600 337.976 C 235.600 337.549,235.420 337.200,235.200 337.200 C 234.980 337.200,234.800 336.840,234.800 336.400 C 234.800 335.960,234.620 335.600,234.400 335.600 C 234.180 335.600,234.000 335.364,234.000 335.075 C 234.000 334.787,233.640 334.164,233.200 333.692 C 232.760 333.220,232.400 332.596,232.400 332.305 C 232.400 332.014,232.040 331.517,231.600 331.200 C 231.160 330.883,230.800 330.451,230.800 330.241 C 230.800 329.403,222.237 321.621,221.300 321.607 C 221.025 321.603,220.800 321.420,220.800 321.200 C 220.800 320.980,220.545 320.800,220.233 320.800 C 219.922 320.800,219.607 320.665,219.533 320.500 C 219.316 320.012,215.987 318.400,215.196 318.400 C 214.795 318.400,214.407 318.222,214.333 318.003 C 214.260 317.785,213.705 317.566,213.100 317.516 C 212.495 317.466,212.000 317.285,212.000 317.113 C 212.000 316.941,211.460 316.800,210.800 316.800 C 210.140 316.800,209.600 316.620,209.600 316.400 C 209.600 316.180,208.700 316.000,207.600 316.000 C 206.500 316.000,205.600 315.820,205.600 315.600 C 205.600 315.380,204.969 315.200,204.197 315.200 L 202.794 315.200 202.897 289.500 L 203.000 263.800 206.700 263.685 C 208.735 263.622,210.400 263.397,210.400 263.185 C 210.400 262.973,211.289 262.800,212.376 262.800 C 213.463 262.800,214.464 262.620,214.600 262.400 C 214.736 262.180,215.467 262.000,216.224 262.000 C 216.981 262.000,217.600 261.820,217.600 261.600 C 217.600 261.380,218.142 261.200,218.805 261.200 C 219.468 261.200,220.368 261.020,220.805 260.800 C 221.242 260.580,221.958 260.220,222.395 260.000 C 222.832 259.780,223.552 259.600,223.995 259.600 C 224.438 259.600,224.800 259.434,224.800 259.232 C 224.800 259.029,225.385 258.740,226.100 258.588 C 227.484 258.295,230.511 256.800,230.733 256.300 C 230.807 256.135,231.212 256.000,231.633 256.000 C 232.055 256.000,232.400 255.820,232.400 255.600 C 232.400 255.380,232.636 255.200,232.925 255.200 C 233.213 255.200,233.836 254.840,234.308 254.400 C 234.780 253.960,235.404 253.600,235.695 253.600 C 235.986 253.600,236.483 253.240,236.800 252.800 C 237.117 252.360,237.572 252.000,237.810 252.000 C 238.049 252.000,238.892 251.415,239.685 250.700 C 241.833 248.762,242.782 248.000,243.045 248.000 C 243.363 248.000,280.000 284.658,280.000 284.976 C 280.000 285.114,279.415 285.841,278.700 286.592 C 276.760 288.629,276.400 289.114,276.400 289.695 C 276.400 289.986,276.040 290.483,275.600 290.800 C 275.160 291.117,274.800 291.657,274.800 292.000 C 274.800 292.343,274.440 292.883,274.000 293.200 C 273.560 293.517,273.200 294.097,273.200 294.488 C 273.200 294.880,273.020 295.200,272.800 295.200 C 272.580 295.200,272.400 295.549,272.400 295.976 C 272.400 296.403,272.220 296.864,272.000 297.000 C 271.780 297.136,271.600 297.597,271.600 298.024 C 271.600 298.451,271.420 298.800,271.200 298.800 C 270.980 298.800,270.800 299.340,270.800 300.000 C 270.800 300.660,270.620 301.200,270.400 301.200 C 270.180 301.200,270.000 301.920,270.000 302.800 C 270.000 303.680,269.820 304.400,269.600 304.400 C 269.363 304.400,269.200 305.867,269.200 308.000 C 269.200 310.133,269.037 311.600,268.800 311.600 C 268.580 311.600,268.400 312.039,268.400 312.576 C 268.400 313.113,268.580 313.664,268.800 313.800 C 269.020 313.936,269.200 315.556,269.200 317.400 C 269.200 319.244,269.380 320.864,269.600 321.000 C 269.820 321.136,270.000 321.867,270.000 322.624 C 270.000 323.381,270.180 324.000,270.400 324.000 C 270.620 324.000,270.800 324.450,270.800 325.000 C 270.800 325.550,270.980 326.000,271.200 326.000 C 271.420 326.000,271.600 326.540,271.600 327.200 C 271.600 327.860,271.780 328.400,272.000 328.400 C 272.220 328.400,272.400 328.760,272.400 329.200 C 272.400 329.640,272.580 330.000,272.800 330.000 C 273.020 330.000,273.200 330.360,273.200 330.800 C 273.200 331.240,273.380 331.600,273.600 331.600 C 273.820 331.600,274.000 331.920,274.000 332.312 C 274.000 332.703,274.360 333.283,274.800 333.600 C 275.240 333.917,275.600 334.415,275.600 334.706 C 275.600 334.998,276.050 335.686,276.600 336.236 C 277.150 336.786,277.600 337.381,277.600 337.557 C 277.600 338.011,282.042 342.400,282.500 342.400 C 282.709 342.400,283.383 342.940,284.000 343.600 C 284.617 344.260,285.326 344.800,285.577 344.800 C 285.828 344.800,286.420 345.160,286.892 345.600 C 287.364 346.040,287.987 346.400,288.275 346.400 C 288.564 346.400,288.800 346.580,288.800 346.800 C 288.800 347.020,289.160 347.200,289.600 347.200 C 290.040 347.200,290.400 347.380,290.400 347.600 C 290.400 347.820,290.760 348.000,291.200 348.000 C 291.640 348.000,292.000 348.180,292.000 348.400 C 292.000 348.620,292.439 348.800,292.976 348.800 C 293.513 348.800,294.064 348.980,294.200 349.200 C 294.336 349.420,294.876 349.600,295.400 349.600 C 295.924 349.600,296.464 349.780,296.600 350.000 C 296.736 350.220,297.456 350.400,298.200 350.400 C 298.944 350.400,299.664 350.580,299.800 350.800 C 299.951 351.044,302.996 351.200,307.600 351.200 C 312.204 351.200,315.249 351.044,315.400 350.800 C 315.536 350.580,316.256 350.400,317.000 350.400 C 317.744 350.400,318.464 350.220,318.600 350.000 C 318.736 349.780,319.199 349.600,319.629 349.600 C 320.059 349.600,320.768 349.420,321.205 349.200 C 321.642 348.980,322.358 348.620,322.795 348.400 C 323.232 348.180,323.862 348.000,324.195 348.000 C 324.528 348.000,324.800 347.820,324.800 347.600 C 324.800 347.380,325.070 347.200,325.400 347.200 C 325.730 347.200,326.000 347.020,326.000 346.800 C 326.000 346.580,326.360 346.400,326.800 346.400 C 327.240 346.400,327.600 346.220,327.600 346.000 C 327.600 345.780,327.888 345.600,328.240 345.600 C 328.591 345.600,329.383 345.060,330.000 344.400 C 330.617 343.740,331.325 343.200,331.575 343.200 C 331.824 343.200,332.427 342.838,332.914 342.396 C 336.057 339.543,337.137 338.441,338.002 337.200 C 338.539 336.430,339.298 335.451,339.689 335.025 C 340.080 334.598,340.400 334.090,340.400 333.896 C 340.400 333.702,340.670 333.273,341.000 332.943 C 341.330 332.613,341.600 331.996,341.600 331.571 C 341.600 331.147,341.780 330.800,342.000 330.800 C 342.220 330.800,342.400 330.440,342.400 330.000 C 342.400 329.560,342.580 329.200,342.800 329.200 C 343.020 329.200,343.200 328.660,343.200 328.000 C 343.200 327.340,343.380 326.800,343.600 326.800 C 343.820 326.800,344.000 326.440,344.000 326.000 C 344.000 325.560,344.180 325.200,344.400 325.200 C 344.620 325.200,344.800 324.581,344.800 323.824 C 344.800 323.067,344.980 322.336,345.200 322.200 C 345.420 322.064,345.600 321.074,345.600 320.000 C 345.600 318.926,345.780 317.936,346.000 317.800 C 346.232 317.657,346.400 315.463,346.400 312.576 C 346.400 309.525,346.245 307.600,346.000 307.600 C 345.780 307.600,345.600 306.621,345.600 305.424 C 345.600 304.227,345.420 303.136,345.200 303.000 C 344.980 302.864,344.800 302.223,344.800 301.576 C 344.800 300.929,344.620 300.400,344.400 300.400 C 344.180 300.400,344.000 299.860,344.000 299.200 C 344.000 298.540,343.820 298.000,343.600 298.000 C 343.380 298.000,343.200 297.640,343.200 297.200 C 343.200 296.760,343.020 296.400,342.800 296.400 C 342.580 296.400,342.400 296.040,342.400 295.600 C 342.400 295.160,342.240 294.800,342.043 294.800 C 341.847 294.800,341.565 294.316,341.417 293.724 C 341.268 293.133,340.799 292.160,340.373 291.563 C 339.948 290.965,339.600 290.352,339.600 290.199 C 339.600 290.046,339.104 289.444,338.498 288.860 C 337.891 288.277,336.954 287.142,336.416 286.338 C 335.877 285.534,334.923 284.573,334.296 284.202 C 333.668 283.831,332.579 282.959,331.874 282.264 C 331.170 281.569,330.100 280.745,329.497 280.432 C 328.894 280.120,328.400 279.715,328.400 279.532 C 328.400 279.350,328.040 279.200,327.600 279.200 C 327.160 279.200,326.800 279.062,326.800 278.894 C 326.800 278.523,323.831 277.200,322.997 277.200 C 322.669 277.200,322.400 277.020,322.400 276.800 C 322.400 276.580,321.860 276.400,321.200 276.400 C 320.540 276.400,320.000 276.220,320.000 276.000 C 320.000 275.780,319.460 275.600,318.800 275.600 C 318.140 275.600,317.600 275.420,317.600 275.200 C 317.600 274.980,316.711 274.800,315.624 274.800 C 314.537 274.800,313.536 274.620,313.400 274.400 C 313.070 273.867,302.130 273.867,301.800 274.400 C 301.664 274.620,300.674 274.800,299.600 274.800 C 298.526 274.800,297.536 274.980,297.400 275.200 C 297.264 275.420,296.724 275.600,296.200 275.600 C 295.676 275.600,295.136 275.780,295.000 276.000 C 294.864 276.220,294.313 276.400,293.776 276.400 C 293.239 276.400,292.800 276.560,292.800 276.755 C 292.800 276.951,292.125 277.238,291.301 277.392 C 290.476 277.547,289.711 277.793,289.601 277.940 C 289.490 278.086,288.462 278.707,287.315 279.320 L 285.230 280.433 266.615 261.830 C 256.377 251.598,248.000 243.133,248.000 243.018 C 248.000 242.781,248.814 241.777,250.700 239.685 C 251.415 238.892,252.000 238.075,252.000 237.869 C 252.000 237.663,252.315 237.202,252.700 236.846 C 253.496 236.109,254.741 234.142,255.071 233.100 C 255.193 232.715,255.452 232.400,255.647 232.400 C 255.841 232.400,256.000 232.040,256.000 231.600 C 256.000 231.160,256.144 230.800,256.320 230.800 C 256.746 230.800,258.219 227.734,258.578 226.100 C 258.735 225.385,259.029 224.800,259.232 224.800 C 259.434 224.800,259.600 224.350,259.600 223.800 C 259.600 223.250,259.780 222.800,260.000 222.800 C 260.220 222.800,260.400 222.361,260.400 221.824 C 260.400 221.287,260.580 220.736,260.800 220.600 C 261.020 220.464,261.200 219.733,261.200 218.976 C 261.200 218.219,261.380 217.600,261.600 217.600 C 261.820 217.600,262.000 216.981,262.000 216.224 C 262.000 215.467,262.180 214.736,262.400 214.600 C 262.620 214.464,262.800 213.463,262.800 212.376 C 262.800 211.289,262.973 210.400,263.185 210.400 C 263.397 210.400,263.622 208.735,263.685 206.700 L 263.800 203.000 289.900 202.897 L 316.000 202.794 316.000 204.773 C 316.000 205.862,316.180 206.864,316.400 207.000 C 316.620 207.136,316.800 207.957,316.800 208.824 C 316.800 209.691,316.980 210.400,317.200 210.400 C 317.420 210.400,317.600 210.940,317.600 211.600 C 317.600 212.260,317.780 212.800,318.000 212.800 C 318.220 212.800,318.400 213.340,318.400 214.000 C 318.400 214.660,318.580 215.200,318.800 215.200 C 319.020 215.200,319.200 215.560,319.200 216.000 C 319.200 216.440,319.380 216.800,319.600 216.800 C 319.820 216.800,320.000 217.160,320.000 217.600 C 320.000 218.040,320.180 218.400,320.400 218.400 C 320.620 218.400,320.800 218.760,320.800 219.200 C 320.800 219.640,320.980 220.000,321.200 220.000 C 321.420 220.000,321.600 220.270,321.600 220.600 C 321.600 220.930,321.780 221.200,322.000 221.200 C 322.220 221.200,322.400 221.378,322.400 221.595 C 322.400 222.079,323.241 223.146,325.600 225.657 C 326.590 226.710,328.030 228.290,328.800 229.168 C 329.570 230.045,330.380 230.772,330.600 230.783 C 330.820 230.793,331.630 231.341,332.400 232.000 C 333.170 232.659,334.025 233.199,334.300 233.199 C 334.575 233.200,334.800 233.380,334.800 233.600 C 334.800 233.820,335.160 234.000,335.600 234.000 C 336.040 234.000,336.400 234.180,336.400 234.400 C 336.400 234.620,336.760 234.800,337.200 234.800 C 337.640 234.800,338.000 234.980,338.000 235.200 C 338.000 235.420,338.360 235.600,338.800 235.600 C 339.240 235.600,339.600 235.780,339.600 236.000 C 339.600 236.220,340.140 236.400,340.800 236.400 C 341.460 236.400,342.000 236.580,342.000 236.800 C 342.000 237.020,342.540 237.200,343.200 237.200 C 343.860 237.200,344.400 237.380,344.400 237.600 C 344.400 237.820,345.199 238.000,346.176 238.000 C 347.153 238.000,348.064 238.180,348.200 238.400 C 348.534 238.940,361.200 238.940,361.200 238.400 C 361.200 238.180,361.999 238.000,362.976 238.000 C 363.953 238.000,364.864 237.820,365.000 237.600 C 365.136 237.380,365.777 237.200,366.424 237.200 C 367.071 237.200,367.600 237.020,367.600 236.800 C 367.600 236.580,368.039 236.400,368.576 236.400 C 369.113 236.400,369.664 236.220,369.800 236.000 C 369.936 235.780,370.382 235.600,370.790 235.600 C 371.199 235.600,371.593 235.465,371.667 235.300 C 371.740 235.135,372.661 234.563,373.714 234.030 C 374.767 233.496,376.160 232.551,376.810 231.930 C 377.461 231.308,378.177 230.800,378.402 230.800 C 378.842 230.800,385.600 224.184,385.600 223.753 C 385.600 223.610,385.915 223.202,386.300 222.846 C 387.096 222.109,388.341 220.142,388.671 219.100 C 388.793 218.715,389.052 218.400,389.247 218.400 C 389.441 218.400,389.600 218.135,389.600 217.812 C 389.600 217.489,389.953 216.596,390.384 215.828 C 390.815 215.061,391.289 213.525,391.436 212.416 C 391.583 211.307,391.860 210.400,392.052 210.400 C 392.243 210.400,392.400 209.590,392.400 208.600 C 392.400 207.610,392.580 206.800,392.800 206.800 C 393.050 206.800,393.200 204.341,393.200 200.224 C 393.200 196.271,393.040 193.549,392.800 193.400 C 392.580 193.264,392.400 192.353,392.400 191.376 C 392.400 190.399,392.243 189.600,392.052 189.600 C 391.860 189.600,391.583 188.693,391.436 187.584 C 391.289 186.475,390.815 184.939,390.384 184.172 C 389.953 183.404,389.600 182.511,389.600 182.188 C 389.600 181.865,389.420 181.600,389.200 181.600 C 388.980 181.600,388.799 181.375,388.798 181.100 C 388.797 180.825,388.077 179.651,387.198 178.492 C 386.319 177.332,385.600 176.295,385.600 176.186 C 385.600 175.861,378.837 169.200,378.506 169.199 C 378.338 169.199,377.582 168.670,376.826 168.024 C 376.071 167.378,374.631 166.434,373.626 165.925 C 372.622 165.416,371.740 164.865,371.667 164.700 C 371.593 164.535,371.199 164.400,370.790 164.400 C 370.382 164.400,369.936 164.220,369.800 164.000 C 369.664 163.780,369.113 163.600,368.576 163.600 C 368.039 163.600,367.600 163.420,367.600 163.200 C 367.600 162.980,367.096 162.800,366.480 162.800 C 365.864 162.800,365.189 162.638,364.980 162.441 C 363.589 161.126,345.386 161.127,344.574 162.442 C 344.452 162.639,343.823 162.800,343.176 162.800 C 342.529 162.800,342.000 162.980,342.000 163.200 C 342.000 163.420,341.460 163.600,340.800 163.600 C 340.140 163.600,339.600 163.780,339.600 164.000 C 339.600 164.220,339.240 164.400,338.800 164.400 C 338.360 164.400,338.000 164.580,338.000 164.800 C 338.000 165.020,337.640 165.200,337.200 165.200 C 336.760 165.200,336.400 165.380,336.400 165.600 C 336.400 165.820,336.040 166.000,335.600 166.000 C 335.160 166.000,334.800 166.180,334.800 166.400 C 334.800 166.620,334.575 166.800,334.300 166.801 C 334.025 166.801,333.170 167.341,332.400 168.000 C 331.630 168.659,330.820 169.207,330.600 169.217 C 330.380 169.228,329.570 169.953,328.800 170.829 C 328.030 171.704,326.590 173.295,325.600 174.364 C 323.100 177.062,322.400 177.946,322.400 178.405 C 322.400 178.622,322.220 178.800,322.000 178.800 C 321.780 178.800,321.600 179.070,321.600 179.400 C 321.600 179.730,321.420 180.000,321.200 180.000 C 320.980 180.000,320.800 180.360,320.800 180.800 C 320.800 181.240,320.620 181.600,320.400 181.600 C 320.180 181.600,320.000 181.960,320.000 182.400 C 320.000 182.840,319.820 183.200,319.600 183.200 C 319.380 183.200,319.200 183.560,319.200 184.000 C 319.200 184.440,319.020 184.800,318.800 184.800 C 318.580 184.800,318.400 185.340,318.400 186.000 C 318.400 186.660,318.220 187.200,318.000 187.200 C 317.780 187.200,317.600 187.725,317.600 188.367 C 317.600 189.008,317.430 189.593,317.221 189.667 C 317.013 189.740,316.800 190.655,316.747 191.700 C 316.694 192.745,316.504 193.600,316.325 193.600 C 316.146 193.600,316.000 194.411,316.000 195.403 L 316.000 197.206 289.900 197.103 L 263.800 197.000 263.685 193.300 C 263.622 191.265,263.397 189.600,263.185 189.600 C 262.973 189.600,262.800 188.711,262.800 187.624 C 262.800 186.537,262.620 185.536,262.400 185.400 C 262.180 185.264,262.000 184.533,262.000 183.776 C 262.000 183.019,261.820 182.400,261.600 182.400 C 261.380 182.400,261.200 181.770,261.200 181.000 C 261.200 180.230,261.020 179.600,260.800 179.600 C 260.580 179.600,260.400 179.060,260.400 178.400 C 260.400 177.740,260.220 177.200,260.000 177.200 C 259.780 177.200,259.600 176.840,259.600 176.400 C 259.600 175.960,259.440 175.600,259.245 175.600 C 259.049 175.600,258.764 174.925,258.610 174.100 C 258.330 172.592,256.859 169.515,256.300 169.267 C 256.135 169.193,256.000 168.788,256.000 168.367 C 256.000 167.945,255.820 167.600,255.600 167.600 C 255.380 167.600,255.200 167.364,255.200 167.075 C 255.200 166.787,254.885 166.202,254.500 165.775 C 254.115 165.349,253.545 164.505,253.232 163.900 C 252.920 163.295,252.515 162.800,252.332 162.800 C 252.150 162.800,252.000 162.594,252.000 162.343 C 252.000 162.092,251.505 161.409,250.900 160.826 C 250.295 160.243,249.545 159.278,249.232 158.683 C 248.920 158.087,248.515 157.600,248.332 157.600 C 247.330 157.600,249.585 155.208,266.605 138.210 C 284.014 120.824,286.400 118.682,286.400 120.443 C 286.400 120.639,286.760 120.800,287.200 120.800 C 287.640 120.800,288.000 120.944,288.000 121.120 C 288.000 121.518,291.406 123.200,292.211 123.200 C 292.535 123.200,292.800 123.336,292.800 123.503 C 292.800 123.948,295.887 124.840,298.300 125.092 C 299.455 125.213,300.400 125.467,300.400 125.656 C 300.400 125.845,303.550 126.000,307.400 126.000 C 311.250 126.000,314.400 125.846,314.400 125.658 C 314.400 125.470,315.643 125.212,317.163 125.084 C 318.683 124.957,320.258 124.683,320.663 124.476 C 323.456 123.050,324.951 122.400,325.438 122.400 C 325.747 122.400,326.000 122.220,326.000 122.000 C 326.000 121.780,326.236 121.600,326.525 121.600 C 326.813 121.600,327.436 121.240,327.908 120.800 C 328.380 120.360,328.956 120.000,329.187 120.000 C 329.418 120.000,330.172 119.460,330.863 118.800 C 331.554 118.140,332.286 117.600,332.490 117.600 C 332.988 117.600,338.000 112.416,338.000 111.900 C 338.000 111.677,338.315 111.202,338.700 110.846 C 339.819 109.811,341.143 107.768,341.426 106.640 C 341.569 106.068,341.847 105.600,342.043 105.600 C 342.240 105.600,342.400 105.240,342.400 104.800 C 342.400 104.360,342.580 104.000,342.800 104.000 C 343.020 104.000,343.200 103.550,343.200 103.000 C 343.200 102.450,343.380 102.000,343.600 102.000 C 343.820 102.000,344.000 101.460,344.000 100.800 C 344.000 100.140,344.180 99.600,344.400 99.600 C 344.620 99.600,344.800 99.060,344.800 98.400 C 344.800 97.740,344.980 97.200,345.200 97.200 C 345.422 97.200,345.600 96.133,345.600 94.800 C 345.600 93.467,345.778 92.400,346.000 92.400 C 346.245 92.400,346.400 90.467,346.400 87.400 C 346.400 84.333,346.245 82.400,346.000 82.400 C 345.780 82.400,345.600 81.410,345.600 80.200 C 345.600 78.990,345.420 78.000,345.200 78.000 C 344.980 78.000,344.800 77.460,344.800 76.800 C 344.800 76.140,344.620 75.600,344.400 75.600 C 344.180 75.600,344.000 75.060,344.000 74.400 C 344.000 73.740,343.820 73.200,343.600 73.200 C 343.380 73.200,343.200 72.928,343.200 72.595 C 343.200 72.262,343.039 71.677,342.843 71.295 C 342.647 70.913,341.835 69.296,341.038 67.702 C 340.242 66.108,339.098 64.243,338.495 63.559 C 336.113 60.851,332.835 57.600,332.486 57.600 C 332.284 57.600,331.554 57.060,330.863 56.400 C 330.172 55.740,329.418 55.200,329.187 55.200 C 328.956 55.200,328.380 54.840,327.908 54.400 C 327.436 53.960,326.813 53.600,326.525 53.600 C 326.236 53.600,326.000 53.420,326.000 53.200 C 326.000 52.980,325.640 52.800,325.200 52.800 C 324.760 52.800,324.400 52.620,324.400 52.400 C 324.400 52.180,324.040 52.000,323.600 52.000 C 323.160 52.000,322.800 51.820,322.800 51.600 C 322.800 51.380,322.361 51.200,321.824 51.200 C 321.287 51.200,320.736 51.020,320.600 50.800 C 320.464 50.580,319.834 50.400,319.200 50.400 C 318.566 50.400,317.936 50.220,317.800 50.000 C 317.664 49.780,316.854 49.600,316.000 49.600 C 315.146 49.600,314.336 49.420,314.200 49.200 C 313.869 48.664,301.331 48.664,301.000 49.200 C 300.864 49.420,300.054 49.600,299.200 49.600 C 298.346 49.600,297.536 49.780,297.400 50.000 C 297.264 50.220,296.634 50.400,296.000 50.400 C 295.366 50.400,294.736 50.580,294.600 50.800 C 294.464 51.020,294.003 51.200,293.576 51.200 C 293.149 51.200,292.800 51.380,292.800 51.600 C 292.800 51.820,292.440 52.000,292.000 52.000 C 291.560 52.000,291.200 52.180,291.200 52.400 C 291.200 52.620,290.966 52.800,290.680 52.800 C 289.944 52.800,288.007 53.741,288.003 54.100 C 288.001 54.265,287.680 54.400,287.288 54.400 C 286.897 54.400,286.317 54.760,286.000 55.200 C 285.683 55.640,285.188 56.000,284.901 56.000 C 284.614 56.000,283.590 56.765,282.626 57.700 C 281.662 58.635,280.451 59.767,279.936 60.217 C 278.211 61.721,276.400 63.973,276.400 64.613 C 276.400 64.962,276.220 65.136,276.000 65.000 C 275.780 64.864,275.600 65.033,275.600 65.376 C 275.600 65.719,275.420 66.000,275.200 66.000 C 274.980 66.000,274.800 66.236,274.800 66.525 C 274.800 66.813,274.440 67.436,274.000 67.908 C 273.560 68.380,273.200 69.044,273.200 69.383 C 273.200 69.722,273.020 70.000,272.800 70.000 C 272.580 70.000,272.400 70.360,272.400 70.800 C 272.400 71.240,272.220 71.600,272.000 71.600 C 271.780 71.600,271.600 72.140,271.600 72.800 C 271.600 73.460,271.420 74.000,271.200 74.000 C 270.980 74.000,270.800 74.540,270.800 75.200 C 270.800 75.860,270.620 76.400,270.400 76.400 C 270.180 76.400,270.000 77.030,270.000 77.800 C 270.000 78.570,269.820 79.200,269.600 79.200 C 269.365 79.200,269.200 80.592,269.200 82.576 C 269.200 84.433,269.020 86.064,268.800 86.200 C 268.580 86.336,268.400 86.876,268.400 87.400 C 268.400 87.924,268.580 88.464,268.800 88.600 C 269.020 88.736,269.200 90.367,269.200 92.224 C 269.200 94.208,269.365 95.600,269.600 95.600 C 269.820 95.600,270.000 96.320,270.000 97.200 C 270.000 98.080,270.180 98.800,270.400 98.800 C 270.620 98.800,270.800 99.340,270.800 100.000 C 270.800 100.660,270.980 101.200,271.200 101.200 C 271.420 101.200,271.600 101.543,271.600 101.962 C 271.600 102.630,273.054 105.855,273.601 106.400 C 273.711 106.510,274.056 107.095,274.368 107.700 C 274.680 108.305,275.085 108.800,275.268 108.800 C 275.450 108.800,275.600 109.078,275.600 109.418 C 275.600 109.758,276.005 110.476,276.500 111.014 C 277.729 112.348,278.891 113.681,279.552 114.512 C 280.060 115.152,244.256 151.975,243.105 151.995 C 242.786 152.000,241.942 151.336,239.685 149.300 C 238.892 148.585,238.009 148.000,237.722 148.000 C 237.435 148.000,237.200 147.850,237.200 147.668 C 237.200 147.485,236.705 147.080,236.100 146.768 C 235.495 146.455,234.651 145.885,234.225 145.500 C 233.798 145.115,233.213 144.800,232.925 144.800 C 232.636 144.800,232.400 144.620,232.400 144.400 C 232.400 144.180,232.113 144.000,231.762 144.000 C 231.056 144.000,228.677 142.773,228.467 142.300 C 228.393 142.135,227.994 142.000,227.579 142.000 C 227.164 142.000,226.183 141.640,225.400 141.200 C 224.617 140.760,223.711 140.400,223.388 140.400 C 223.065 140.400,222.800 140.220,222.800 140.000 C 222.800 139.780,222.361 139.600,221.824 139.600 C 221.287 139.600,220.736 139.420,220.600 139.200 C 220.464 138.980,219.733 138.800,218.976 138.800 C 218.219 138.800,217.600 138.620,217.600 138.400 C 217.600 138.180,216.981 138.000,216.224 138.000 C 215.467 138.000,214.736 137.820,214.600 137.600 C 214.464 137.380,213.463 137.200,212.376 137.200 C 211.289 137.200,210.400 137.027,210.400 136.815 C 210.400 136.603,208.735 136.378,206.700 136.315 L 203.000 136.200 202.897 110.500 L 202.794 84.800 204.197 84.800 C 204.969 84.800,205.600 84.620,205.600 84.400 C 205.600 84.180,206.500 84.000,207.600 84.000 C 208.700 84.000,209.600 83.820,209.600 83.600 C 209.600 83.380,210.129 83.200,210.776 83.200 C 211.423 83.200,212.064 83.020,212.200 82.800 C 212.336 82.580,212.887 82.400,213.424 82.400 C 213.961 82.400,214.400 82.220,214.400 82.000 C 214.400 81.780,214.839 81.600,215.376 81.600 C 215.913 81.600,216.464 81.420,216.600 81.200 C 216.736 80.980,217.197 80.800,217.624 80.800 C 218.051 80.800,218.400 80.620,218.400 80.400 C 218.400 80.180,218.670 80.000,219.000 80.000 C 219.330 80.000,219.600 79.820,219.600 79.600 C 219.600 79.380,219.870 79.200,220.200 79.200 C 220.530 79.200,220.800 79.020,220.800 78.800 C 220.800 78.580,221.043 78.400,221.341 78.400 C 221.638 78.400,222.446 77.860,223.137 77.200 C 223.828 76.540,224.492 76.000,224.613 76.000 C 225.233 76.000,230.800 70.430,230.800 69.810 C 230.800 69.572,231.160 69.117,231.600 68.800 C 232.040 68.483,232.400 67.986,232.400 67.695 C 232.400 67.404,232.760 66.780,233.200 66.308 C 233.640 65.836,234.000 65.213,234.000 64.925 C 234.000 64.636,234.180 64.400,234.400 64.400 C 234.620 64.400,234.800 64.040,234.800 63.600 C 234.800 63.160,234.980 62.800,235.200 62.800 C 235.420 62.800,235.600 62.440,235.600 62.000 C 235.600 61.560,235.780 61.200,236.000 61.200 C 236.220 61.200,236.400 60.660,236.400 60.000 C 236.400 59.340,236.580 58.800,236.800 58.800 C 237.020 58.800,237.200 58.271,237.200 57.624 C 237.200 56.977,237.380 56.336,237.600 56.200 C 237.820 56.064,238.000 55.279,238.000 54.456 C 238.000 53.633,238.189 52.771,238.420 52.540 C 239.234 51.726,238.416 35.600,237.560 35.600 C 237.362 35.600,237.200 35.071,237.200 34.424 C 237.200 33.777,237.020 33.136,236.800 33.000 C 236.580 32.864,236.400 32.313,236.400 31.776 C 236.400 31.239,236.220 30.800,236.000 30.800 C 235.780 30.800,235.600 30.440,235.600 30.000 C 235.600 29.560,235.420 29.200,235.200 29.200 C 234.980 29.200,234.800 28.840,234.800 28.400 C 234.800 27.960,234.620 27.600,234.400 27.600 C 234.180 27.600,234.000 27.330,234.000 27.000 C 234.000 26.670,233.820 26.400,233.600 26.400 C 233.380 26.400,233.200 26.080,233.200 25.688 C 233.200 25.297,232.840 24.717,232.400 24.400 C 231.960 24.083,231.600 23.592,231.600 23.309 C 231.600 22.700,223.473 14.400,222.877 14.400 C 222.651 14.400,222.407 14.239,222.333 14.042 C 222.020 13.200,215.830 10.010,214.500 10.004 C 214.005 10.002,213.600 9.820,213.600 9.600 C 213.600 9.380,213.060 9.200,212.400 9.200 C 211.740 9.200,211.200 9.020,211.200 8.800 C 211.200 8.580,210.480 8.400,209.600 8.400 C 208.720 8.400,208.000 8.220,208.000 8.000 C 208.000 7.747,205.067 7.600,200.000 7.600 C 194.933 7.600,192.000 7.747,192.000 8.000 M209.270 14.046 C 219.481 16.876,228.604 25.699,231.556 35.600 C 231.851 36.590,232.297 37.940,232.546 38.600 C 233.193 40.311,233.133 50.908,232.462 53.400 C 228.951 66.443,220.345 74.947,207.173 78.386 C 204.954 78.965,195.042 78.724,192.400 78.026 C 191.410 77.765,190.105 77.451,189.500 77.330 C 188.895 77.209,188.400 76.950,188.400 76.755 C 188.400 76.560,188.148 76.400,187.841 76.400 C 187.116 76.400,183.342 74.412,180.975 72.783 C 168.349 64.096,163.674 46.601,170.130 32.200 C 170.820 30.660,171.613 29.162,171.893 28.871 C 172.172 28.581,172.400 28.189,172.400 28.000 C 172.400 27.811,172.625 27.419,172.900 27.129 C 173.175 26.838,174.015 25.790,174.766 24.800 C 181.831 15.492,197.201 10.702,209.270 14.046 M195.787 20.339 C 185.265 23.223,181.933 35.611,189.435 43.954 C 191.127 45.836,191.231 46.800,189.741 46.800 C 188.563 46.800,183.263 52.863,182.272 55.343 C 180.390 60.055,179.711 68.307,181.001 70.802 C 181.854 72.451,182.105 72.468,201.189 72.114 L 218.177 71.800 218.715 70.800 C 219.586 69.177,219.102 59.185,218.027 56.600 C 216.238 52.299,214.432 49.893,211.130 47.411 L 208.859 45.704 210.382 44.218 C 220.840 34.006,210.091 16.418,195.787 20.339 M202.480 48.850 C 209.856 50.416,214.063 55.583,214.154 63.187 L 214.200 67.000 200.000 67.000 L 185.800 67.000 185.869 63.139 C 185.928 59.795,186.089 58.968,187.069 56.964 C 190.037 50.894,196.380 47.555,202.480 48.850 M97.071 54.429 C 121.209 57.743,134.004 85.854,120.493 105.891 C 103.958 130.413,66.897 123.626,59.934 94.800 C 54.566 72.581,74.157 51.284,97.071 54.429 M317.200 55.402 C 327.770 58.755,335.837 66.490,339.173 76.473 C 339.638 77.863,340.224 79.630,340.477 80.400 C 340.738 81.194,340.931 84.226,340.924 87.400 C 340.910 93.863,340.443 96.086,337.856 102.000 C 334.317 110.088,325.439 117.444,316.200 119.941 C 293.141 126.175,270.902 106.336,274.429 82.677 C 277.410 62.678,298.247 49.390,317.200 55.402 M88.509 62.175 C 78.578 64.581,74.849 77.385,81.822 85.139 C 84.002 87.565,84.004 87.628,81.900 89.014 C 75.933 92.944,73.600 97.960,73.600 106.857 C 73.600 112.229,73.626 112.399,74.549 113.003 C 75.850 113.856,110.124 113.414,110.853 112.536 C 111.154 112.173,111.239 110.034,111.117 105.900 C 110.867 97.404,108.760 92.906,103.349 89.313 C 100.772 87.602,100.766 87.560,102.836 85.315 C 112.499 74.831,102.556 58.771,88.509 62.175 M303.972 62.122 C 293.528 65.083,289.936 77.473,297.228 85.384 C 299.219 87.544,299.207 87.656,296.805 89.197 C 291.297 92.731,288.800 98.372,288.800 107.281 C 288.800 113.894,286.615 113.200,307.443 113.200 C 328.522 113.200,326.400 113.866,326.400 107.248 C 326.400 98.528,323.713 92.617,318.100 88.992 C 315.996 87.633,315.997 87.565,318.178 85.139 C 327.293 75.001,317.055 58.412,303.972 62.122 M96.976 91.061 C 103.022 92.911,106.487 97.877,106.560 104.800 L 106.600 108.600 92.400 108.600 L 78.200 108.600 78.067 106.400 C 77.411 95.516,86.757 87.935,96.976 91.061 M309.814 90.436 C 317.333 91.826,322.232 98.020,321.917 105.737 L 321.800 108.600 307.600 108.600 L 293.400 108.600 293.446 104.790 C 293.537 97.207,298.140 91.637,305.304 90.443 C 306.457 90.251,307.412 90.072,307.427 90.047 C 307.441 90.021,308.515 90.196,309.814 90.436 M208.000 141.828 C 209.430 141.942,211.320 142.222,212.200 142.449 C 216.134 143.467,217.144 143.755,219.400 144.500 C 236.288 150.079,251.818 166.428,256.447 183.500 C 256.641 184.215,256.984 185.475,257.208 186.300 C 259.258 193.838,259.258 206.162,257.208 213.700 C 256.984 214.525,256.641 215.785,256.447 216.500 C 251.512 234.701,234.594 251.646,216.600 256.413 C 215.940 256.588,214.410 256.996,213.200 257.321 C 201.853 260.365,186.450 258.567,174.600 252.816 C 138.149 235.124,130.016 187.208,158.612 158.612 C 171.829 145.395,187.202 140.170,208.000 141.828 M187.400 157.161 C 183.044 159.184,182.642 160.320,182.400 171.290 C 182.137 183.257,183.276 182.138,171.090 182.400 C 160.542 182.627,160.051 182.758,157.806 185.954 L 156.600 187.669 156.600 200.000 L 156.600 212.331 157.806 214.046 C 160.051 217.242,160.542 217.373,171.090 217.600 C 183.290 217.863,182.137 216.710,182.400 228.910 C 182.712 243.422,182.925 243.600,200.000 243.600 C 212.090 243.600,212.943 243.470,215.116 241.288 C 217.327 239.068,217.370 238.853,217.593 228.910 C 217.865 216.712,216.712 217.865,228.910 217.593 C 238.853 217.370,239.068 217.327,241.288 215.116 C 243.471 212.942,243.600 212.095,243.600 199.947 C 243.600 186.985,243.434 186.235,240.048 183.884 L 238.200 182.600 228.910 182.400 C 216.712 182.137,217.865 183.290,217.593 171.090 C 217.379 161.549,217.346 161.344,215.600 159.083 C 213.498 156.359,192.245 154.911,187.400 157.161 M210.984 161.419 C 213.039 162.394,213.200 163.194,213.200 172.439 C 213.200 185.957,214.033 186.800,227.389 186.800 C 239.891 186.800,239.200 186.031,239.200 199.961 C 239.200 214.025,239.923 213.200,227.600 213.200 C 213.996 213.200,213.200 213.996,213.200 227.604 C 213.200 239.919,214.019 239.200,200.000 239.200 C 185.989 239.200,186.800 239.909,186.800 227.669 C 186.800 213.992,186.014 213.200,172.439 213.200 C 160.156 213.200,160.800 213.930,160.800 200.000 C 160.800 186.111,160.184 186.800,172.611 186.800 C 186.038 186.800,186.800 186.038,186.800 172.611 C 186.800 163.590,187.030 162.381,188.926 161.446 C 190.794 160.525,209.052 160.503,210.984 161.419 M359.600 166.980 C 387.378 171.606,397.897 205.081,377.620 224.327 C 361.174 239.938,334.491 234.841,324.604 214.200 C 323.656 212.220,322.791 210.150,322.683 209.600 C 322.575 209.050,322.197 207.160,321.844 205.400 C 317.534 183.965,337.794 163.349,359.600 166.980 M54.828 168.006 C 83.176 176.937,87.242 214.809,61.400 229.222 C 55.135 232.717,43.883 234.265,38.000 232.442 C 31.458 230.416,30.831 230.137,26.889 227.505 C 7.246 214.388,7.274 185.590,26.943 172.459 C 30.800 169.884,32.274 169.232,37.800 167.660 C 41.664 166.561,50.831 166.747,54.828 168.006 M41.337 174.543 C 31.080 177.158,27.507 190.403,34.983 198.101 C 36.769 199.940,36.759 200.057,34.700 201.412 C 28.568 205.446,26.297 210.471,26.482 219.595 L 26.600 225.390 27.660 225.898 C 29.154 226.613,62.489 226.117,63.513 225.364 C 64.490 224.646,64.452 214.341,63.461 211.480 C 61.987 207.223,59.262 203.582,55.734 201.155 L 53.972 199.942 55.952 197.777 C 65.501 187.329,55.231 171.001,41.337 174.543 M350.721 174.534 C 340.646 177.384,337.147 190.224,344.307 198.070 C 345.852 199.763,346.102 200.800,344.964 200.800 C 342.992 200.800,337.765 207.725,336.379 212.175 C 335.499 215.002,335.644 224.743,336.576 225.429 C 337.789 226.321,371.433 226.273,372.711 225.377 C 373.545 224.793,373.600 224.460,373.600 219.997 C 373.600 210.836,371.102 205.244,365.300 201.415 C 363.435 200.185,363.220 199.630,364.337 198.932 C 368.441 196.369,370.100 187.253,367.440 181.887 C 364.544 176.045,357.042 172.746,350.721 174.534 M51.400 204.037 C 56.405 206.383,59.268 211.053,59.530 217.300 L 59.693 221.200 45.447 221.200 L 31.200 221.200 31.200 217.357 C 31.200 206.612,41.873 199.574,51.400 204.037 M360.871 204.156 C 365.963 206.565,368.800 211.310,368.800 217.417 L 368.800 221.210 354.700 221.105 L 340.600 221.000 340.640 217.200 C 340.755 206.297,351.184 199.574,360.871 204.156 M100.600 280.223 C 104.098 281.168,104.463 281.299,106.916 282.487 C 111.517 284.716,116.018 288.461,119.703 293.127 C 133.279 310.313,124.205 337.337,102.400 344.658 C 87.070 349.806,68.913 341.511,61.964 326.185 C 50.707 301.358,74.422 273.146,100.600 280.223 M315.200 279.921 C 315.750 280.139,317.010 280.548,318.000 280.831 C 327.367 283.506,336.657 292.847,339.550 302.500 C 339.798 303.325,340.211 304.675,340.468 305.500 C 340.735 306.356,340.931 309.405,340.924 312.600 C 340.911 318.773,340.434 321.241,338.357 325.896 C 337.941 326.828,337.600 327.689,337.600 327.809 C 337.600 327.928,336.746 329.325,335.703 330.913 C 323.198 349.947,295.764 351.403,281.646 333.783 C 265.300 313.383,276.652 284.220,302.800 279.436 C 304.498 279.125,314.142 279.502,315.200 279.921 M87.775 287.547 C 77.753 290.968,74.903 303.969,82.592 311.193 C 83.902 312.423,83.864 313.043,82.434 313.782 C 79.282 315.412,75.782 319.886,74.425 324.018 C 73.118 327.999,73.199 337.319,74.549 338.203 C 76.196 339.282,109.834 338.907,110.667 337.800 C 111.450 336.760,111.184 325.773,110.323 323.600 C 108.694 319.491,106.034 316.053,102.997 314.134 C 100.806 312.750,100.805 312.718,102.836 310.515 C 112.708 299.805,101.580 282.835,87.775 287.547 M303.800 287.262 C 293.377 290.724,289.992 302.734,297.228 310.584 C 299.189 312.712,299.186 312.755,296.998 314.137 C 291.656 317.513,289.126 322.776,288.894 331.000 C 288.654 339.539,286.358 338.620,307.625 338.502 C 328.497 338.387,326.369 339.088,326.387 332.320 C 326.411 323.583,323.126 316.658,317.603 313.802 C 316.024 312.985,316.071 312.704,318.208 310.265 C 327.248 299.939,316.638 282.998,303.800 287.262 M97.766 316.422 C 103.221 318.462,106.492 323.427,106.558 329.765 L 106.600 333.800 92.400 333.800 L 78.200 333.800 78.215 330.400 C 78.261 319.650,87.926 312.740,97.766 316.422 M313.600 316.683 C 319.085 319.303,322.273 324.937,321.928 331.400 L 321.800 333.800 307.600 333.800 L 293.400 333.800 293.447 329.969 C 293.532 322.912,296.606 318.642,303.600 315.865 C 305.088 315.274,311.800 315.823,313.600 316.683 M207.680 321.763 C 218.137 324.539,225.599 330.687,230.192 340.312 C 230.746 341.473,231.200 342.652,231.200 342.932 C 231.200 343.211,231.351 343.611,231.536 343.820 C 232.935 345.404,233.574 357.946,232.442 361.600 C 231.034 366.145,230.736 366.952,229.745 368.912 C 222.598 383.044,207.096 390.005,191.800 385.951 C 185.080 384.170,177.549 379.344,174.397 374.800 C 173.863 374.030,173.195 373.162,172.913 372.871 C 172.631 372.581,172.400 372.189,172.400 372.000 C 172.400 371.811,172.172 371.419,171.893 371.129 C 171.171 370.378,169.005 365.435,168.154 362.600 C 167.118 359.147,167.112 349.687,168.143 345.800 C 170.889 335.443,177.807 327.786,188.600 323.155 C 192.936 321.295,203.119 320.552,207.680 321.763 M195.400 328.562 C 185.262 331.697,182.079 344.179,189.384 352.154 C 191.140 354.072,191.141 354.055,189.227 355.382 C 183.153 359.591,180.400 365.472,180.400 374.240 C 180.400 381.224,179.352 380.884,199.947 380.581 C 217.852 380.317,218.574 380.231,218.956 378.320 C 220.747 369.364,216.806 358.967,210.016 354.737 L 209.032 354.124 210.529 352.374 C 220.295 340.965,209.621 324.165,195.400 328.562 M205.716 357.955 C 211.040 360.262,214.400 365.859,214.400 372.422 C 214.400 375.871,215.632 375.600,199.965 375.600 L 186.015 375.600 185.756 374.565 C 183.049 363.782,195.414 353.493,205.716 357.955 M11.823 370.889 C 10.765 372.399,11.426 375.200,12.841 375.200 C 13.232 375.200,13.664 375.380,13.800 375.600 C 14.114 376.108,142.400 376.158,142.400 375.650 C 142.400 375.457,142.940 375.192,143.600 375.060 C 144.724 374.835,144.800 374.704,144.800 372.981 C 144.800 369.711,151.268 370.000,78.051 370.000 L 12.445 370.000 11.823 370.889 M255.700 370.598 C 254.607 371.840,255.070 374.794,256.400 375.060 C 257.060 375.192,257.600 375.457,257.600 375.650 C 257.600 376.158,385.886 376.108,386.200 375.600 C 386.336 375.380,386.732 375.200,387.080 375.200 C 388.542 375.200,389.217 372.952,388.336 371.019 L 387.872 370.000 322.036 370.015 C 265.684 370.028,256.128 370.112,255.700 370.598 M11.823 388.089 C 11.080 389.149,11.039 390.008,11.664 391.381 L 12.128 392.400 28.293 392.400 C 46.195 392.400,45.600 392.489,45.600 389.800 C 45.600 387.112,46.179 387.200,28.451 387.200 L 12.445 387.200 11.823 388.089 M354.900 387.798 C 354.222 388.569,354.267 391.124,354.971 391.829 C 355.932 392.790,387.509 392.668,388.243 391.700 C 388.906 390.827,388.940 389.545,388.336 388.219 L 387.872 387.200 371.636 387.215 C 358.127 387.228,355.316 387.326,354.900 387.798 " stroke="none" fill="#3d357c" fill-rule="evenodd"></path><path id="path4" d="M197.000 48.960 C 190.018 50.680,185.999 55.799,185.869 63.139 L 185.800 67.000 200.000 67.000 L 214.200 67.000 214.154 63.187 C 214.038 53.530,205.889 46.772,197.000 48.960 M89.600 90.562 C 82.360 92.152,77.602 98.685,78.067 106.400 L 78.200 108.600 92.400 108.600 L 106.600 108.600 106.560 104.800 C 106.458 95.212,98.573 88.592,89.600 90.562 M305.304 90.443 C 298.140 91.637,293.537 97.207,293.446 104.790 L 293.400 108.600 307.600 108.600 L 321.800 108.600 321.917 105.737 C 322.232 98.020,317.333 91.826,309.814 90.436 C 308.515 90.196,307.441 90.021,307.427 90.047 C 307.412 90.072,306.457 90.251,305.304 90.443 M41.800 203.147 C 35.278 204.863,31.200 210.330,31.200 217.357 L 31.200 221.200 45.447 221.200 L 59.693 221.200 59.530 217.300 C 59.117 207.439,50.780 200.784,41.800 203.147 M351.000 203.147 C 344.680 204.810,340.714 210.189,340.640 217.200 L 340.600 221.000 354.700 221.105 L 368.800 221.210 368.800 217.417 C 368.800 207.705,360.121 200.747,351.000 203.147 M87.738 316.156 C 81.756 318.337,78.244 323.590,78.215 330.400 L 78.200 333.800 92.400 333.800 L 106.600 333.800 106.558 329.765 C 106.454 319.798,96.831 312.840,87.738 316.156 M303.600 315.865 C 296.606 318.642,293.532 322.912,293.447 329.969 L 293.400 333.800 307.600 333.800 L 321.800 333.800 321.928 331.400 C 322.273 324.937,319.085 319.303,313.600 316.683 C 311.800 315.823,305.088 315.274,303.600 315.865 M196.200 357.335 C 188.995 359.737,184.072 367.858,185.756 374.565 L 186.015 375.600 199.965 375.600 C 215.632 375.600,214.400 375.871,214.400 372.422 C 214.400 362.029,205.141 354.354,196.200 357.335 " stroke="none" fill="#faab24" fill-rule="evenodd"></path></g></svg>